ISO-10303-21;
HEADER;
/* Generated by software containing ST-Developer
 * from STEP Tools, Inc. (www.steptools.com) 
 */
/* OPTION: using custom renumber hook */

FILE_DESCRIPTION(
/* description */ ('STEP AP242 Edition 2',
'CAx-IF Rec.Pracs.---Representation and Presentation of Product Manufa
cturing Information (PMI)---4.0---2014-10-13',
'CAx-IF Rec.Pracs.---3D Tessellated Geometry---0.4---2014-09-14','2;1',
'CAx-IF Rec.Pracs.---User Defined Attributes---1.5---2016-08-15'),
/* implementation_level */ '2;1');

FILE_NAME(
/* name */ 'Case',
/* time_stamp */ '2026-08-19T10:22:07Z',
/* author */ (''),
/* organization */ (''),
/* preprocessor_version */ 'ST-DEVELOPER v20',
/* originating_system */ 'ONSHAPE BY PTC INC, 1.219',
/* authorisation */ '  ');

FILE_SCHEMA (('AP242_MANAGED_MODEL_BASED_3D_ENGINEERING_MIM_LF { 1 0 10303 442 3 1 4 }'));
ENDSEC;

DATA;
#10=SHAPE_REPRESENTATION_RELATIONSHIP('','',#1034,#11);
#11=ADVANCED_BREP_SHAPE_REPRESENTATION('',(#1032),#1712);
#12=CYLINDRICAL_SURFACE('',#1069,0.00145);
#13=CYLINDRICAL_SURFACE('',#1073,0.00145);
#14=CYLINDRICAL_SURFACE('',#1077,0.00145);
#15=CYLINDRICAL_SURFACE('',#1081,0.00145);
#16=CYLINDRICAL_SURFACE('',#1110,0.00225);
#17=CYLINDRICAL_SURFACE('',#1112,0.00225);
#18=CYLINDRICAL_SURFACE('',#1114,0.00225);
#19=CYLINDRICAL_SURFACE('',#1116,0.00225);
#20=CYLINDRICAL_SURFACE('',#1118,0.00145);
#21=CYLINDRICAL_SURFACE('',#1120,0.00145);
#22=CYLINDRICAL_SURFACE('',#1122,0.00145);
#23=CYLINDRICAL_SURFACE('',#1124,0.00145);
#24=CYLINDRICAL_SURFACE('',#1126,0.002);
#25=CYLINDRICAL_SURFACE('',#1127,0.002);
#26=CYLINDRICAL_SURFACE('',#1128,0.002);
#27=CYLINDRICAL_SURFACE('',#1129,0.002);
#28=VERTEX_LOOP('',#536);
#29=VERTEX_LOOP('',#539);
#30=VERTEX_LOOP('',#542);
#31=VERTEX_LOOP('',#545);
#32=CONICAL_SURFACE('',#1067,0.00145,1.02974425867665);
#33=CONICAL_SURFACE('',#1071,0.00145,1.02974425867665);
#34=CONICAL_SURFACE('',#1075,0.00145,1.02974425867665);
#35=CONICAL_SURFACE('',#1079,0.00145,1.02974425867665);
#36=CONICAL_SURFACE('',#1083,0.00155,0.785398163397466);
#37=CONICAL_SURFACE('',#1084,0.00155,0.785398163397466);
#38=CONICAL_SURFACE('',#1085,0.00155,0.785398163397466);
#39=CONICAL_SURFACE('',#1086,0.00155,0.785398163397466);
#40=CIRCLE('',#1037,0.00145);
#41=CIRCLE('',#1038,0.00145);
#42=CIRCLE('',#1039,0.00145);
#43=CIRCLE('',#1040,0.00145);
#44=CIRCLE('',#1046,0.00225);
#45=CIRCLE('',#1047,0.00225);
#46=CIRCLE('',#1048,0.00225);
#47=CIRCLE('',#1049,0.00225);
#48=CIRCLE('',#1054,0.00155);
#49=CIRCLE('',#1055,0.00155);
#50=CIRCLE('',#1056,0.00155);
#51=CIRCLE('',#1057,0.00155);
#52=CIRCLE('',#1058,0.002);
#53=CIRCLE('',#1059,0.002);
#54=CIRCLE('',#1060,0.002);
#55=CIRCLE('',#1061,0.002);
#56=CIRCLE('',#1063,0.002);
#57=CIRCLE('',#1064,0.002);
#58=CIRCLE('',#1065,0.002);
#59=CIRCLE('',#1066,0.002);
#60=CIRCLE('',#1068,0.00145);
#61=CIRCLE('',#1070,0.00145);
#62=CIRCLE('',#1072,0.00145);
#63=CIRCLE('',#1074,0.00145);
#64=CIRCLE('',#1076,0.00145);
#65=CIRCLE('',#1078,0.00145);
#66=CIRCLE('',#1080,0.00145);
#67=CIRCLE('',#1082,0.00145);
#68=CIRCLE('',#1102,0.00225);
#69=CIRCLE('',#1103,0.00225);
#70=CIRCLE('',#1104,0.00225);
#71=CIRCLE('',#1105,0.00225);
#72=CIRCLE('',#1106,0.00145);
#73=CIRCLE('',#1107,0.00145);
#74=CIRCLE('',#1108,0.00145);
#75=CIRCLE('',#1109,0.00145);
#76=ORIENTED_EDGE('',*,*,#346,.T.);
#77=ORIENTED_EDGE('',*,*,#347,.T.);
#78=ORIENTED_EDGE('',*,*,#348,.F.);
#79=ORIENTED_EDGE('',*,*,#349,.F.);
#80=ORIENTED_EDGE('',*,*,#350,.F.);
#81=ORIENTED_EDGE('',*,*,#351,.F.);
#82=ORIENTED_EDGE('',*,*,#352,.F.);
#83=ORIENTED_EDGE('',*,*,#353,.F.);
#84=ORIENTED_EDGE('',*,*,#354,.F.);
#85=ORIENTED_EDGE('',*,*,#355,.F.);
#86=ORIENTED_EDGE('',*,*,#356,.F.);
#87=ORIENTED_EDGE('',*,*,#357,.F.);
#88=ORIENTED_EDGE('',*,*,#358,.F.);
#89=ORIENTED_EDGE('',*,*,#359,.T.);
#90=ORIENTED_EDGE('',*,*,#360,.T.);
#91=ORIENTED_EDGE('',*,*,#361,.T.);
#92=ORIENTED_EDGE('',*,*,#362,.F.);
#93=ORIENTED_EDGE('',*,*,#363,.T.);
#94=ORIENTED_EDGE('',*,*,#364,.T.);
#95=ORIENTED_EDGE('',*,*,#365,.T.);
#96=ORIENTED_EDGE('',*,*,#366,.F.);
#97=ORIENTED_EDGE('',*,*,#367,.F.);
#98=ORIENTED_EDGE('',*,*,#348,.T.);
#99=ORIENTED_EDGE('',*,*,#368,.T.);
#100=ORIENTED_EDGE('',*,*,#369,.F.);
#101=ORIENTED_EDGE('',*,*,#370,.F.);
#102=ORIENTED_EDGE('',*,*,#371,.T.);
#103=ORIENTED_EDGE('',*,*,#372,.F.);
#104=ORIENTED_EDGE('',*,*,#368,.F.);
#105=ORIENTED_EDGE('',*,*,#347,.F.);
#106=ORIENTED_EDGE('',*,*,#373,.F.);
#107=ORIENTED_EDGE('',*,*,#374,.T.);
#108=ORIENTED_EDGE('',*,*,#365,.F.);
#109=ORIENTED_EDGE('',*,*,#374,.F.);
#110=ORIENTED_EDGE('',*,*,#375,.F.);
#111=ORIENTED_EDGE('',*,*,#376,.T.);
#112=ORIENTED_EDGE('',*,*,#366,.T.);
#113=ORIENTED_EDGE('',*,*,#377,.F.);
#114=ORIENTED_EDGE('',*,*,#378,.T.);
#115=ORIENTED_EDGE('',*,*,#379,.T.);
#116=ORIENTED_EDGE('',*,*,#380,.T.);
#117=ORIENTED_EDGE('',*,*,#381,.F.);
#118=ORIENTED_EDGE('',*,*,#382,.F.);
#119=ORIENTED_EDGE('',*,*,#383,.F.);
#120=ORIENTED_EDGE('',*,*,#384,.F.);
#121=ORIENTED_EDGE('',*,*,#385,.F.);
#122=ORIENTED_EDGE('',*,*,#386,.F.);
#123=ORIENTED_EDGE('',*,*,#387,.F.);
#124=ORIENTED_EDGE('',*,*,#388,.F.);
#125=ORIENTED_EDGE('',*,*,#389,.F.);
#126=ORIENTED_EDGE('',*,*,#390,.T.);
#127=ORIENTED_EDGE('',*,*,#391,.T.);
#128=ORIENTED_EDGE('',*,*,#392,.T.);
#129=ORIENTED_EDGE('',*,*,#393,.T.);
#130=ORIENTED_EDGE('',*,*,#394,.T.);
#131=ORIENTED_EDGE('',*,*,#395,.F.);
#132=ORIENTED_EDGE('',*,*,#396,.T.);
#133=ORIENTED_EDGE('',*,*,#397,.F.);
#134=ORIENTED_EDGE('',*,*,#398,.T.);
#135=ORIENTED_EDGE('',*,*,#399,.T.);
#136=ORIENTED_EDGE('',*,*,#400,.T.);
#137=ORIENTED_EDGE('',*,*,#375,.T.);
#138=ORIENTED_EDGE('',*,*,#373,.T.);
#139=ORIENTED_EDGE('',*,*,#346,.F.);
#140=ORIENTED_EDGE('',*,*,#401,.F.);
#141=ORIENTED_EDGE('',*,*,#402,.T.);
#142=ORIENTED_EDGE('',*,*,#403,.T.);
#143=ORIENTED_EDGE('',*,*,#404,.T.);
#144=ORIENTED_EDGE('',*,*,#405,.T.);
#145=ORIENTED_EDGE('',*,*,#391,.F.);
#146=ORIENTED_EDGE('',*,*,#406,.T.);
#147=ORIENTED_EDGE('',*,*,#393,.F.);
#148=ORIENTED_EDGE('',*,*,#407,.T.);
#149=ORIENTED_EDGE('',*,*,#397,.T.);
#150=ORIENTED_EDGE('',*,*,#408,.T.);
#151=ORIENTED_EDGE('',*,*,#379,.F.);
#152=ORIENTED_EDGE('',*,*,#409,.T.);
#153=ORIENTED_EDGE('',*,*,#349,.T.);
#154=ORIENTED_EDGE('',*,*,#367,.T.);
#155=ORIENTED_EDGE('',*,*,#376,.F.);
#156=ORIENTED_EDGE('',*,*,#401,.T.);
#157=ORIENTED_EDGE('',*,*,#395,.T.);
#158=ORIENTED_EDGE('',*,*,#410,.T.);
#159=ORIENTED_EDGE('',*,*,#389,.T.);
#160=ORIENTED_EDGE('',*,*,#411,.T.);
#161=ORIENTED_EDGE('',*,*,#377,.T.);
#162=ORIENTED_EDGE('',*,*,#412,.T.);
#163=ORIENTED_EDGE('',*,*,#399,.F.);
#164=ORIENTED_EDGE('',*,*,#413,.T.);
#165=ORIENTED_EDGE('',*,*,#414,.F.);
#166=ORIENTED_EDGE('',*,*,#415,.T.);
#167=ORIENTED_EDGE('',*,*,#414,.T.);
#168=ORIENTED_EDGE('',*,*,#416,.F.);
#169=ORIENTED_EDGE('',*,*,#417,.T.);
#170=ORIENTED_EDGE('',*,*,#416,.T.);
#171=ORIENTED_EDGE('',*,*,#418,.F.);
#172=ORIENTED_EDGE('',*,*,#419,.T.);
#173=ORIENTED_EDGE('',*,*,#418,.T.);
#174=ORIENTED_EDGE('',*,*,#420,.F.);
#175=ORIENTED_EDGE('',*,*,#421,.T.);
#176=ORIENTED_EDGE('',*,*,#420,.T.);
#177=ORIENTED_EDGE('',*,*,#421,.F.);
#178=ORIENTED_EDGE('',*,*,#402,.F.);
#179=ORIENTED_EDGE('',*,*,#419,.F.);
#180=ORIENTED_EDGE('',*,*,#403,.F.);
#181=ORIENTED_EDGE('',*,*,#417,.F.);
#182=ORIENTED_EDGE('',*,*,#404,.F.);
#183=ORIENTED_EDGE('',*,*,#415,.F.);
#184=ORIENTED_EDGE('',*,*,#405,.F.);
#185=ORIENTED_EDGE('',*,*,#422,.F.);
#186=ORIENTED_EDGE('',*,*,#423,.F.);
#187=ORIENTED_EDGE('',*,*,#424,.T.);
#188=ORIENTED_EDGE('',*,*,#425,.T.);
#189=ORIENTED_EDGE('',*,*,#426,.F.);
#190=ORIENTED_EDGE('',*,*,#427,.F.);
#191=ORIENTED_EDGE('',*,*,#428,.T.);
#192=ORIENTED_EDGE('',*,*,#423,.T.);
#193=ORIENTED_EDGE('',*,*,#429,.F.);
#194=ORIENTED_EDGE('',*,*,#430,.F.);
#195=ORIENTED_EDGE('',*,*,#431,.T.);
#196=ORIENTED_EDGE('',*,*,#427,.T.);
#197=ORIENTED_EDGE('',*,*,#432,.F.);
#198=ORIENTED_EDGE('',*,*,#425,.F.);
#199=ORIENTED_EDGE('',*,*,#433,.T.);
#200=ORIENTED_EDGE('',*,*,#430,.T.);
#201=ORIENTED_EDGE('',*,*,#424,.F.);
#202=ORIENTED_EDGE('',*,*,#428,.F.);
#203=ORIENTED_EDGE('',*,*,#431,.F.);
#204=ORIENTED_EDGE('',*,*,#433,.F.);
#205=ORIENTED_EDGE('',*,*,#361,.F.);
#206=ORIENTED_EDGE('',*,*,#434,.T.);
#207=ORIENTED_EDGE('',*,*,#435,.T.);
#208=ORIENTED_EDGE('',*,*,#436,.T.);
#209=ORIENTED_EDGE('',*,*,#422,.T.);
#210=ORIENTED_EDGE('',*,*,#432,.T.);
#211=ORIENTED_EDGE('',*,*,#429,.T.);
#212=ORIENTED_EDGE('',*,*,#426,.T.);
#213=ORIENTED_EDGE('',*,*,#372,.T.);
#214=ORIENTED_EDGE('',*,*,#437,.F.);
#215=ORIENTED_EDGE('',*,*,#438,.F.);
#216=ORIENTED_EDGE('',*,*,#358,.T.);
#217=ORIENTED_EDGE('',*,*,#371,.F.);
#218=ORIENTED_EDGE('',*,*,#439,.F.);
#219=ORIENTED_EDGE('',*,*,#440,.T.);
#220=ORIENTED_EDGE('',*,*,#437,.T.);
#221=ORIENTED_EDGE('',*,*,#370,.T.);
#222=ORIENTED_EDGE('',*,*,#441,.F.);
#223=ORIENTED_EDGE('',*,*,#442,.F.);
#224=ORIENTED_EDGE('',*,*,#439,.T.);
#225=ORIENTED_EDGE('',*,*,#369,.T.);
#226=ORIENTED_EDGE('',*,*,#364,.F.);
#227=ORIENTED_EDGE('',*,*,#443,.F.);
#228=ORIENTED_EDGE('',*,*,#441,.T.);
#229=ORIENTED_EDGE('',*,*,#436,.F.);
#230=ORIENTED_EDGE('',*,*,#444,.F.);
#231=ORIENTED_EDGE('',*,*,#445,.T.);
#232=ORIENTED_EDGE('',*,*,#362,.T.);
#233=ORIENTED_EDGE('',*,*,#435,.F.);
#234=ORIENTED_EDGE('',*,*,#446,.F.);
#235=ORIENTED_EDGE('',*,*,#447,.T.);
#236=ORIENTED_EDGE('',*,*,#444,.T.);
#237=ORIENTED_EDGE('',*,*,#434,.F.);
#238=ORIENTED_EDGE('',*,*,#360,.F.);
#239=ORIENTED_EDGE('',*,*,#448,.T.);
#240=ORIENTED_EDGE('',*,*,#446,.T.);
#241=ORIENTED_EDGE('',*,*,#359,.F.);
#242=ORIENTED_EDGE('',*,*,#438,.T.);
#243=ORIENTED_EDGE('',*,*,#440,.F.);
#244=ORIENTED_EDGE('',*,*,#442,.T.);
#245=ORIENTED_EDGE('',*,*,#443,.T.);
#246=ORIENTED_EDGE('',*,*,#363,.F.);
#247=ORIENTED_EDGE('',*,*,#445,.F.);
#248=ORIENTED_EDGE('',*,*,#447,.F.);
#249=ORIENTED_EDGE('',*,*,#448,.F.);
#250=ORIENTED_EDGE('',*,*,#449,.F.);
#251=ORIENTED_EDGE('',*,*,#450,.F.);
#252=ORIENTED_EDGE('',*,*,#451,.F.);
#253=ORIENTED_EDGE('',*,*,#452,.F.);
#254=ORIENTED_EDGE('',*,*,#453,.F.);
#255=ORIENTED_EDGE('',*,*,#454,.F.);
#256=ORIENTED_EDGE('',*,*,#455,.F.);
#257=ORIENTED_EDGE('',*,*,#456,.F.);
#258=ORIENTED_EDGE('',*,*,#457,.T.);
#259=ORIENTED_EDGE('',*,*,#458,.T.);
#260=ORIENTED_EDGE('',*,*,#459,.T.);
#261=ORIENTED_EDGE('',*,*,#460,.T.);
#262=ORIENTED_EDGE('',*,*,#461,.T.);
#263=ORIENTED_EDGE('',*,*,#462,.T.);
#264=ORIENTED_EDGE('',*,*,#463,.T.);
#265=ORIENTED_EDGE('',*,*,#464,.T.);
#266=ORIENTED_EDGE('',*,*,#456,.T.);
#267=ORIENTED_EDGE('',*,*,#465,.T.);
#268=ORIENTED_EDGE('',*,*,#383,.T.);
#269=ORIENTED_EDGE('',*,*,#466,.F.);
#270=ORIENTED_EDGE('',*,*,#455,.T.);
#271=ORIENTED_EDGE('',*,*,#467,.T.);
#272=ORIENTED_EDGE('',*,*,#384,.T.);
#273=ORIENTED_EDGE('',*,*,#465,.F.);
#274=ORIENTED_EDGE('',*,*,#454,.T.);
#275=ORIENTED_EDGE('',*,*,#468,.T.);
#276=ORIENTED_EDGE('',*,*,#385,.T.);
#277=ORIENTED_EDGE('',*,*,#467,.F.);
#278=ORIENTED_EDGE('',*,*,#453,.T.);
#279=ORIENTED_EDGE('',*,*,#469,.T.);
#280=ORIENTED_EDGE('',*,*,#386,.T.);
#281=ORIENTED_EDGE('',*,*,#468,.F.);
#282=ORIENTED_EDGE('',*,*,#452,.T.);
#283=ORIENTED_EDGE('',*,*,#470,.T.);
#284=ORIENTED_EDGE('',*,*,#387,.T.);
#285=ORIENTED_EDGE('',*,*,#469,.F.);
#286=ORIENTED_EDGE('',*,*,#451,.T.);
#287=ORIENTED_EDGE('',*,*,#471,.T.);
#288=ORIENTED_EDGE('',*,*,#388,.T.);
#289=ORIENTED_EDGE('',*,*,#470,.F.);
#290=ORIENTED_EDGE('',*,*,#450,.T.);
#291=ORIENTED_EDGE('',*,*,#472,.T.);
#292=ORIENTED_EDGE('',*,*,#381,.T.);
#293=ORIENTED_EDGE('',*,*,#471,.F.);
#294=ORIENTED_EDGE('',*,*,#449,.T.);
#295=ORIENTED_EDGE('',*,*,#466,.T.);
#296=ORIENTED_EDGE('',*,*,#382,.T.);
#297=ORIENTED_EDGE('',*,*,#472,.F.);
#298=ORIENTED_EDGE('',*,*,#460,.F.);
#299=ORIENTED_EDGE('',*,*,#473,.F.);
#300=ORIENTED_EDGE('',*,*,#350,.T.);
#301=ORIENTED_EDGE('',*,*,#474,.T.);
#302=ORIENTED_EDGE('',*,*,#461,.F.);
#303=ORIENTED_EDGE('',*,*,#474,.F.);
#304=ORIENTED_EDGE('',*,*,#357,.T.);
#305=ORIENTED_EDGE('',*,*,#475,.T.);
#306=ORIENTED_EDGE('',*,*,#462,.F.);
#307=ORIENTED_EDGE('',*,*,#475,.F.);
#308=ORIENTED_EDGE('',*,*,#356,.T.);
#309=ORIENTED_EDGE('',*,*,#476,.T.);
#310=ORIENTED_EDGE('',*,*,#463,.F.);
#311=ORIENTED_EDGE('',*,*,#476,.F.);
#312=ORIENTED_EDGE('',*,*,#355,.T.);
#313=ORIENTED_EDGE('',*,*,#477,.T.);
#314=ORIENTED_EDGE('',*,*,#464,.F.);
#315=ORIENTED_EDGE('',*,*,#477,.F.);
#316=ORIENTED_EDGE('',*,*,#354,.T.);
#317=ORIENTED_EDGE('',*,*,#478,.T.);
#318=ORIENTED_EDGE('',*,*,#457,.F.);
#319=ORIENTED_EDGE('',*,*,#478,.F.);
#320=ORIENTED_EDGE('',*,*,#353,.T.);
#321=ORIENTED_EDGE('',*,*,#479,.T.);
#322=ORIENTED_EDGE('',*,*,#458,.F.);
#323=ORIENTED_EDGE('',*,*,#479,.F.);
#324=ORIENTED_EDGE('',*,*,#352,.T.);
#325=ORIENTED_EDGE('',*,*,#480,.T.);
#326=ORIENTED_EDGE('',*,*,#459,.F.);
#327=ORIENTED_EDGE('',*,*,#480,.F.);
#328=ORIENTED_EDGE('',*,*,#351,.T.);
#329=ORIENTED_EDGE('',*,*,#473,.T.);
#330=ORIENTED_EDGE('',*,*,#406,.F.);
#331=ORIENTED_EDGE('',*,*,#390,.F.);
#332=ORIENTED_EDGE('',*,*,#410,.F.);
#333=ORIENTED_EDGE('',*,*,#394,.F.);
#334=ORIENTED_EDGE('',*,*,#409,.F.);
#335=ORIENTED_EDGE('',*,*,#378,.F.);
#336=ORIENTED_EDGE('',*,*,#411,.F.);
#337=ORIENTED_EDGE('',*,*,#392,.F.);
#338=ORIENTED_EDGE('',*,*,#407,.F.);
#339=ORIENTED_EDGE('',*,*,#396,.F.);
#340=ORIENTED_EDGE('',*,*,#413,.F.);
#341=ORIENTED_EDGE('',*,*,#398,.F.);
#342=ORIENTED_EDGE('',*,*,#408,.F.);
#343=ORIENTED_EDGE('',*,*,#400,.F.);
#344=ORIENTED_EDGE('',*,*,#412,.F.);
#345=ORIENTED_EDGE('',*,*,#380,.F.);
#346=EDGE_CURVE('',#481,#482,#579,.T.);
#347=EDGE_CURVE('',#482,#483,#580,.T.);
#348=EDGE_CURVE('',#484,#483,#581,.T.);
#349=EDGE_CURVE('',#481,#484,#582,.T.);
#350=EDGE_CURVE('',#485,#486,#40,.F.);
#351=EDGE_CURVE('',#487,#485,#583,.T.);
#352=EDGE_CURVE('',#488,#487,#41,.F.);
#353=EDGE_CURVE('',#489,#488,#584,.T.);
#354=EDGE_CURVE('',#490,#489,#42,.F.);
#355=EDGE_CURVE('',#491,#490,#585,.T.);
#356=EDGE_CURVE('',#492,#491,#43,.F.);
#357=EDGE_CURVE('',#486,#492,#586,.T.);
#358=EDGE_CURVE('',#493,#494,#587,.T.);
#359=EDGE_CURVE('',#493,#495,#588,.T.);
#360=EDGE_CURVE('',#495,#496,#589,.T.);
#361=EDGE_CURVE('',#496,#497,#590,.T.);
#362=EDGE_CURVE('',#498,#497,#591,.T.);
#363=EDGE_CURVE('',#498,#499,#592,.F.);
#364=EDGE_CURVE('',#499,#500,#593,.T.);
#365=EDGE_CURVE('',#500,#501,#594,.T.);
#366=EDGE_CURVE('',#502,#501,#595,.T.);
#367=EDGE_CURVE('',#484,#502,#596,.T.);
#368=EDGE_CURVE('',#483,#494,#597,.T.);
#369=EDGE_CURVE('',#503,#500,#598,.T.);
#370=EDGE_CURVE('',#504,#503,#599,.T.);
#371=EDGE_CURVE('',#504,#505,#600,.T.);
#372=EDGE_CURVE('',#494,#505,#601,.T.);
#373=EDGE_CURVE('',#506,#482,#602,.T.);
#374=EDGE_CURVE('',#506,#501,#603,.T.);
#375=EDGE_CURVE('',#507,#506,#604,.T.);
#376=EDGE_CURVE('',#507,#502,#605,.T.);
#377=EDGE_CURVE('',#508,#509,#606,.T.);
#378=EDGE_CURVE('',#508,#510,#607,.F.);
#379=EDGE_CURVE('',#510,#511,#608,.T.);
#380=EDGE_CURVE('',#511,#509,#609,.T.);
#381=EDGE_CURVE('',#512,#513,#44,.T.);
#382=EDGE_CURVE('',#514,#512,#610,.T.);
#383=EDGE_CURVE('',#515,#514,#45,.T.);
#384=EDGE_CURVE('',#516,#515,#611,.T.);
#385=EDGE_CURVE('',#517,#516,#46,.T.);
#386=EDGE_CURVE('',#518,#517,#612,.T.);
#387=EDGE_CURVE('',#519,#518,#47,.T.);
#388=EDGE_CURVE('',#513,#519,#613,.T.);
#389=EDGE_CURVE('',#520,#521,#614,.T.);
#390=EDGE_CURVE('',#520,#522,#615,.F.);
#391=EDGE_CURVE('',#522,#523,#616,.T.);
#392=EDGE_CURVE('',#523,#521,#617,.T.);
#393=EDGE_CURVE('',#524,#525,#618,.T.);
#394=EDGE_CURVE('',#525,#526,#619,.T.);
#395=EDGE_CURVE('',#527,#526,#620,.T.);
#396=EDGE_CURVE('',#527,#524,#621,.F.);
#397=EDGE_CURVE('',#528,#529,#622,.T.);
#398=EDGE_CURVE('',#528,#530,#623,.T.);
#399=EDGE_CURVE('',#530,#531,#624,.T.);
#400=EDGE_CURVE('',#531,#529,#625,.F.);
#401=EDGE_CURVE('',#507,#481,#626,.T.);
#402=EDGE_CURVE('',#532,#532,#48,.F.);
#403=EDGE_CURVE('',#533,#533,#49,.F.);
#404=EDGE_CURVE('',#534,#534,#50,.F.);
#405=EDGE_CURVE('',#535,#535,#51,.F.);
#406=EDGE_CURVE('',#522,#525,#52,.T.);
#407=EDGE_CURVE('',#524,#528,#53,.T.);
#408=EDGE_CURVE('',#529,#511,#54,.T.);
#409=EDGE_CURVE('',#510,#523,#55,.T.);
#410=EDGE_CURVE('',#526,#520,#56,.F.);
#411=EDGE_CURVE('',#521,#508,#57,.F.);
#412=EDGE_CURVE('',#509,#531,#58,.F.);
#413=EDGE_CURVE('',#530,#527,#59,.F.);
#414=EDGE_CURVE('',#537,#537,#60,.T.);
#415=EDGE_CURVE('',#538,#538,#61,.T.);
#416=EDGE_CURVE('',#540,#540,#62,.T.);
#417=EDGE_CURVE('',#541,#541,#63,.T.);
#418=EDGE_CURVE('',#543,#543,#64,.T.);
#419=EDGE_CURVE('',#544,#544,#65,.T.);
#420=EDGE_CURVE('',#546,#546,#66,.T.);
#421=EDGE_CURVE('',#547,#547,#67,.T.);
#422=EDGE_CURVE('',#548,#549,#627,.T.);
#423=EDGE_CURVE('',#550,#548,#628,.T.);
#424=EDGE_CURVE('',#550,#551,#629,.T.);
#425=EDGE_CURVE('',#551,#549,#630,.T.);
#426=EDGE_CURVE('',#552,#548,#631,.T.);
#427=EDGE_CURVE('',#553,#552,#632,.T.);
#428=EDGE_CURVE('',#553,#550,#633,.T.);
#429=EDGE_CURVE('',#554,#552,#634,.T.);
#430=EDGE_CURVE('',#555,#554,#635,.T.);
#431=EDGE_CURVE('',#555,#553,#636,.T.);
#432=EDGE_CURVE('',#549,#554,#637,.T.);
#433=EDGE_CURVE('',#551,#555,#638,.T.);
#434=EDGE_CURVE('',#496,#556,#639,.T.);
#435=EDGE_CURVE('',#556,#557,#640,.T.);
#436=EDGE_CURVE('',#557,#497,#641,.T.);
#437=EDGE_CURVE('',#558,#505,#642,.T.);
#438=EDGE_CURVE('',#493,#558,#643,.T.);
#439=EDGE_CURVE('',#559,#504,#644,.T.);
#440=EDGE_CURVE('',#559,#558,#645,.T.);
#441=EDGE_CURVE('',#560,#503,#646,.T.);
#442=EDGE_CURVE('',#559,#560,#647,.T.);
#443=EDGE_CURVE('',#560,#499,#648,.T.);
#444=EDGE_CURVE('',#561,#557,#649,.T.);
#445=EDGE_CURVE('',#561,#498,#650,.T.);
#446=EDGE_CURVE('',#562,#556,#651,.T.);
#447=EDGE_CURVE('',#562,#561,#652,.T.);
#448=EDGE_CURVE('',#495,#562,#653,.T.);
#449=EDGE_CURVE('',#563,#564,#654,.T.);
#450=EDGE_CURVE('',#565,#563,#68,.F.);
#451=EDGE_CURVE('',#566,#565,#655,.T.);
#452=EDGE_CURVE('',#567,#566,#69,.F.);
#453=EDGE_CURVE('',#568,#567,#656,.T.);
#454=EDGE_CURVE('',#569,#568,#70,.F.);
#455=EDGE_CURVE('',#570,#569,#657,.T.);
#456=EDGE_CURVE('',#564,#570,#71,.F.);
#457=EDGE_CURVE('',#571,#572,#658,.T.);
#458=EDGE_CURVE('',#572,#573,#72,.F.);
#459=EDGE_CURVE('',#573,#574,#659,.T.);
#460=EDGE_CURVE('',#574,#575,#73,.F.);
#461=EDGE_CURVE('',#575,#576,#660,.T.);
#462=EDGE_CURVE('',#576,#577,#74,.F.);
#463=EDGE_CURVE('',#577,#578,#661,.T.);
#464=EDGE_CURVE('',#578,#571,#75,.F.);
#465=EDGE_CURVE('',#570,#515,#662,.T.);
#466=EDGE_CURVE('',#564,#514,#663,.T.);
#467=EDGE_CURVE('',#569,#516,#664,.T.);
#468=EDGE_CURVE('',#568,#517,#665,.T.);
#469=EDGE_CURVE('',#567,#518,#666,.T.);
#470=EDGE_CURVE('',#566,#519,#667,.T.);
#471=EDGE_CURVE('',#565,#513,#668,.T.);
#472=EDGE_CURVE('',#563,#512,#669,.T.);
#473=EDGE_CURVE('',#485,#574,#670,.T.);
#474=EDGE_CURVE('',#486,#575,#671,.T.);
#475=EDGE_CURVE('',#492,#576,#672,.T.);
#476=EDGE_CURVE('',#491,#577,#673,.T.);
#477=EDGE_CURVE('',#490,#578,#674,.T.);
#478=EDGE_CURVE('',#489,#571,#675,.T.);
#479=EDGE_CURVE('',#488,#572,#676,.T.);
#480=EDGE_CURVE('',#487,#573,#677,.T.);
#481=VERTEX_POINT('',#1422);
#482=VERTEX_POINT('',#1423);
#483=VERTEX_POINT('',#1425);
#484=VERTEX_POINT('',#1427);
#485=VERTEX_POINT('',#1430);
#486=VERTEX_POINT('',#1431);
#487=VERTEX_POINT('',#1433);
#488=VERTEX_POINT('',#1435);
#489=VERTEX_POINT('',#1437);
#490=VERTEX_POINT('',#1439);
#491=VERTEX_POINT('',#1441);
#492=VERTEX_POINT('',#1443);
#493=VERTEX_POINT('',#1447);
#494=VERTEX_POINT('',#1448);
#495=VERTEX_POINT('',#1450);
#496=VERTEX_POINT('',#1452);
#497=VERTEX_POINT('',#1454);
#498=VERTEX_POINT('',#1456);
#499=VERTEX_POINT('',#1458);
#500=VERTEX_POINT('',#1460);
#501=VERTEX_POINT('',#1462);
#502=VERTEX_POINT('',#1464);
#503=VERTEX_POINT('',#1469);
#504=VERTEX_POINT('',#1471);
#505=VERTEX_POINT('',#1473);
#506=VERTEX_POINT('',#1476);
#507=VERTEX_POINT('',#1480);
#508=VERTEX_POINT('',#1484);
#509=VERTEX_POINT('',#1485);
#510=VERTEX_POINT('',#1487);
#511=VERTEX_POINT('',#1489);
#512=VERTEX_POINT('',#1493);
#513=VERTEX_POINT('',#1494);
#514=VERTEX_POINT('',#1496);
#515=VERTEX_POINT('',#1498);
#516=VERTEX_POINT('',#1500);
#517=VERTEX_POINT('',#1502);
#518=VERTEX_POINT('',#1504);
#519=VERTEX_POINT('',#1506);
#520=VERTEX_POINT('',#1509);
#521=VERTEX_POINT('',#1510);
#522=VERTEX_POINT('',#1512);
#523=VERTEX_POINT('',#1514);
#524=VERTEX_POINT('',#1518);
#525=VERTEX_POINT('',#1519);
#526=VERTEX_POINT('',#1521);
#527=VERTEX_POINT('',#1523);
#528=VERTEX_POINT('',#1527);
#529=VERTEX_POINT('',#1528);
#530=VERTEX_POINT('',#1530);
#531=VERTEX_POINT('',#1532);
#532=VERTEX_POINT('',#1538);
#533=VERTEX_POINT('',#1540);
#534=VERTEX_POINT('',#1542);
#535=VERTEX_POINT('',#1544);
#536=VERTEX_POINT('',#1555);
#537=VERTEX_POINT('',#1557);
#538=VERTEX_POINT('',#1560);
#539=VERTEX_POINT('',#1562);
#540=VERTEX_POINT('',#1564);
#541=VERTEX_POINT('',#1567);
#542=VERTEX_POINT('',#1569);
#543=VERTEX_POINT('',#1571);
#544=VERTEX_POINT('',#1574);
#545=VERTEX_POINT('',#1576);
#546=VERTEX_POINT('',#1578);
#547=VERTEX_POINT('',#1581);
#548=VERTEX_POINT('',#1588);
#549=VERTEX_POINT('',#1589);
#550=VERTEX_POINT('',#1591);
#551=VERTEX_POINT('',#1593);
#552=VERTEX_POINT('',#1597);
#553=VERTEX_POINT('',#1599);
#554=VERTEX_POINT('',#1603);
#555=VERTEX_POINT('',#1605);
#556=VERTEX_POINT('',#1612);
#557=VERTEX_POINT('',#1614);
#558=VERTEX_POINT('',#1619);
#559=VERTEX_POINT('',#1623);
#560=VERTEX_POINT('',#1627);
#561=VERTEX_POINT('',#1633);
#562=VERTEX_POINT('',#1637);
#563=VERTEX_POINT('',#1644);
#564=VERTEX_POINT('',#1645);
#565=VERTEX_POINT('',#1647);
#566=VERTEX_POINT('',#1649);
#567=VERTEX_POINT('',#1651);
#568=VERTEX_POINT('',#1653);
#569=VERTEX_POINT('',#1655);
#570=VERTEX_POINT('',#1657);
#571=VERTEX_POINT('',#1660);
#572=VERTEX_POINT('',#1661);
#573=VERTEX_POINT('',#1663);
#574=VERTEX_POINT('',#1665);
#575=VERTEX_POINT('',#1667);
#576=VERTEX_POINT('',#1669);
#577=VERTEX_POINT('',#1671);
#578=VERTEX_POINT('',#1673);
#579=LINE('',#1421,#678);
#580=LINE('',#1424,#679);
#581=LINE('',#1426,#680);
#582=LINE('',#1428,#681);
#583=LINE('',#1432,#682);
#584=LINE('',#1436,#683);
#585=LINE('',#1440,#684);
#586=LINE('',#1444,#685);
#587=LINE('',#1446,#686);
#588=LINE('',#1449,#687);
#589=LINE('',#1451,#688);
#590=LINE('',#1453,#689);
#591=LINE('',#1455,#690);
#592=LINE('',#1457,#691);
#593=LINE('',#1459,#692);
#594=LINE('',#1461,#693);
#595=LINE('',#1463,#694);
#596=LINE('',#1465,#695);
#597=LINE('',#1466,#696);
#598=LINE('',#1468,#697);
#599=LINE('',#1470,#698);
#600=LINE('',#1472,#699);
#601=LINE('',#1474,#700);
#602=LINE('',#1475,#701);
#603=LINE('',#1477,#702);
#604=LINE('',#1479,#703);
#605=LINE('',#1481,#704);
#606=LINE('',#1483,#705);
#607=LINE('',#1486,#706);
#608=LINE('',#1488,#707);
#609=LINE('',#1490,#708);
#610=LINE('',#1495,#709);
#611=LINE('',#1499,#710);
#612=LINE('',#1503,#711);
#613=LINE('',#1507,#712);
#614=LINE('',#1508,#713);
#615=LINE('',#1511,#714);
#616=LINE('',#1513,#715);
#617=LINE('',#1515,#716);
#618=LINE('',#1517,#717);
#619=LINE('',#1520,#718);
#620=LINE('',#1522,#719);
#621=LINE('',#1524,#720);
#622=LINE('',#1526,#721);
#623=LINE('',#1529,#722);
#624=LINE('',#1531,#723);
#625=LINE('',#1533,#724);
#626=LINE('',#1535,#725);
#627=LINE('',#1587,#726);
#628=LINE('',#1590,#727);
#629=LINE('',#1592,#728);
#630=LINE('',#1594,#729);
#631=LINE('',#1596,#730);
#632=LINE('',#1598,#731);
#633=LINE('',#1600,#732);
#634=LINE('',#1602,#733);
#635=LINE('',#1604,#734);
#636=LINE('',#1606,#735);
#637=LINE('',#1608,#736);
#638=LINE('',#1609,#737);
#639=LINE('',#1611,#738);
#640=LINE('',#1613,#739);
#641=LINE('',#1615,#740);
#642=LINE('',#1618,#741);
#643=LINE('',#1620,#742);
#644=LINE('',#1622,#743);
#645=LINE('',#1624,#744);
#646=LINE('',#1626,#745);
#647=LINE('',#1628,#746);
#648=LINE('',#1630,#747);
#649=LINE('',#1632,#748);
#650=LINE('',#1634,#749);
#651=LINE('',#1636,#750);
#652=LINE('',#1638,#751);
#653=LINE('',#1640,#752);
#654=LINE('',#1643,#753);
#655=LINE('',#1648,#754);
#656=LINE('',#1652,#755);
#657=LINE('',#1656,#756);
#658=LINE('',#1659,#757);
#659=LINE('',#1664,#758);
#660=LINE('',#1668,#759);
#661=LINE('',#1672,#760);
#662=LINE('',#1676,#761);
#663=LINE('',#1677,#762);
#664=LINE('',#1679,#763);
#665=LINE('',#1681,#764);
#666=LINE('',#1683,#765);
#667=LINE('',#1685,#766);
#668=LINE('',#1687,#767);
#669=LINE('',#1689,#768);
#670=LINE('',#1692,#769);
#671=LINE('',#1693,#770);
#672=LINE('',#1695,#771);
#673=LINE('',#1697,#772);
#674=LINE('',#1699,#773);
#675=LINE('',#1701,#774);
#676=LINE('',#1703,#775);
#677=LINE('',#1705,#776);
#678=VECTOR('',#1134,1.);
#679=VECTOR('',#1135,1.);
#680=VECTOR('',#1136,1.);
#681=VECTOR('',#1137,1.);
#682=VECTOR('',#1140,1.);
#683=VECTOR('',#1143,1.);
#684=VECTOR('',#1146,1.);
#685=VECTOR('',#1149,1.);
#686=VECTOR('',#1152,1.);
#687=VECTOR('',#1153,1.);
#688=VECTOR('',#1154,1.);
#689=VECTOR('',#1155,1.);
#690=VECTOR('',#1156,1.);
#691=VECTOR('',#1157,1.);
#692=VECTOR('',#1158,1.);
#693=VECTOR('',#1159,1.);
#694=VECTOR('',#1160,1.);
#695=VECTOR('',#1161,1.);
#696=VECTOR('',#1162,1.);
#697=VECTOR('',#1165,1.);
#698=VECTOR('',#1166,1.);
#699=VECTOR('',#1167,1.);
#700=VECTOR('',#1168,1.);
#701=VECTOR('',#1169,1.);
#702=VECTOR('',#1170,1.);
#703=VECTOR('',#1173,1.);
#704=VECTOR('',#1174,1.);
#705=VECTOR('',#1177,1.);
#706=VECTOR('',#1178,1.);
#707=VECTOR('',#1179,1.);
#708=VECTOR('',#1180,1.);
#709=VECTOR('',#1185,1.);
#710=VECTOR('',#1188,1.);
#711=VECTOR('',#1191,1.);
#712=VECTOR('',#1194,1.);
#713=VECTOR('',#1195,1.);
#714=VECTOR('',#1196,1.);
#715=VECTOR('',#1197,1.);
#716=VECTOR('',#1198,1.);
#717=VECTOR('',#1201,1.);
#718=VECTOR('',#1202,1.);
#719=VECTOR('',#1203,1.);
#720=VECTOR('',#1204,1.);
#721=VECTOR('',#1207,1.);
#722=VECTOR('',#1208,1.);
#723=VECTOR('',#1209,1.);
#724=VECTOR('',#1210,1.);
#725=VECTOR('',#1213,1.);
#726=VECTOR('',#1284,1.);
#727=VECTOR('',#1285,1.);
#728=VECTOR('',#1286,1.);
#729=VECTOR('',#1287,1.);
#730=VECTOR('',#1290,1.);
#731=VECTOR('',#1291,1.);
#732=VECTOR('',#1292,1.);
#733=VECTOR('',#1295,1.);
#734=VECTOR('',#1296,1.);
#735=VECTOR('',#1297,1.);
#736=VECTOR('',#1300,1.);
#737=VECTOR('',#1301,1.);
#738=VECTOR('',#1304,1.);
#739=VECTOR('',#1305,1.);
#740=VECTOR('',#1306,1.);
#741=VECTOR('',#1311,1.);
#742=VECTOR('',#1312,1.);
#743=VECTOR('',#1315,1.);
#744=VECTOR('',#1316,1.);
#745=VECTOR('',#1319,1.);
#746=VECTOR('',#1320,1.);
#747=VECTOR('',#1323,1.);
#748=VECTOR('',#1326,1.);
#749=VECTOR('',#1327,1.);
#750=VECTOR('',#1330,1.);
#751=VECTOR('',#1331,1.);
#752=VECTOR('',#1334,1.);
#753=VECTOR('',#1339,1.);
#754=VECTOR('',#1342,1.);
#755=VECTOR('',#1345,1.);
#756=VECTOR('',#1348,1.);
#757=VECTOR('',#1351,1.);
#758=VECTOR('',#1354,1.);
#759=VECTOR('',#1357,1.);
#760=VECTOR('',#1360,1.);
#761=VECTOR('',#1365,1.);
#762=VECTOR('',#1366,1.);
#763=VECTOR('',#1369,1.);
#764=VECTOR('',#1372,1.);
#765=VECTOR('',#1375,1.);
#766=VECTOR('',#1378,1.);
#767=VECTOR('',#1381,1.);
#768=VECTOR('',#1384,1.);
#769=VECTOR('',#1389,1.);
#770=VECTOR('',#1390,1.);
#771=VECTOR('',#1393,1.);
#772=VECTOR('',#1396,1.);
#773=VECTOR('',#1399,1.);
#774=VECTOR('',#1402,1.);
#775=VECTOR('',#1405,1.);
#776=VECTOR('',#1408,1.);
#777=EDGE_LOOP('',(#76,#77,#78,#79));
#778=EDGE_LOOP('',(#80,#81,#82,#83,#84,#85,#86,#87));
#779=EDGE_LOOP('',(#88,#89,#90,#91,#92,#93,#94,#95,#96,#97,#98,#99));
#780=EDGE_LOOP('',(#100,#101,#102,#103,#104,#105,#106,#107,#108));
#781=EDGE_LOOP('',(#109,#110,#111,#112));
#782=EDGE_LOOP('',(#113,#114,#115,#116));
#783=EDGE_LOOP('',(#117,#118,#119,#120,#121,#122,#123,#124));
#784=EDGE_LOOP('',(#125,#126,#127,#128));
#785=EDGE_LOOP('',(#129,#130,#131,#132));
#786=EDGE_LOOP('',(#133,#134,#135,#136));
#787=EDGE_LOOP('',(#137,#138,#139,#140));
#788=EDGE_LOOP('',(#141));
#789=EDGE_LOOP('',(#142));
#790=EDGE_LOOP('',(#143));
#791=EDGE_LOOP('',(#144));
#792=EDGE_LOOP('',(#145,#146,#147,#148,#149,#150,#151,#152));
#793=EDGE_LOOP('',(#153,#154,#155,#156));
#794=EDGE_LOOP('',(#157,#158,#159,#160,#161,#162,#163,#164));
#795=EDGE_LOOP('',(#165));
#796=EDGE_LOOP('',(#166));
#797=EDGE_LOOP('',(#167));
#798=EDGE_LOOP('',(#168));
#799=EDGE_LOOP('',(#169));
#800=EDGE_LOOP('',(#170));
#801=EDGE_LOOP('',(#171));
#802=EDGE_LOOP('',(#172));
#803=EDGE_LOOP('',(#173));
#804=EDGE_LOOP('',(#174));
#805=EDGE_LOOP('',(#175));
#806=EDGE_LOOP('',(#176));
#807=EDGE_LOOP('',(#177));
#808=EDGE_LOOP('',(#178));
#809=EDGE_LOOP('',(#179));
#810=EDGE_LOOP('',(#180));
#811=EDGE_LOOP('',(#181));
#812=EDGE_LOOP('',(#182));
#813=EDGE_LOOP('',(#183));
#814=EDGE_LOOP('',(#184));
#815=EDGE_LOOP('',(#185,#186,#187,#188));
#816=EDGE_LOOP('',(#189,#190,#191,#192));
#817=EDGE_LOOP('',(#193,#194,#195,#196));
#818=EDGE_LOOP('',(#197,#198,#199,#200));
#819=EDGE_LOOP('',(#201,#202,#203,#204));
#820=EDGE_LOOP('',(#205,#206,#207,#208));
#821=EDGE_LOOP('',(#209,#210,#211,#212));
#822=EDGE_LOOP('',(#213,#214,#215,#216));
#823=EDGE_LOOP('',(#217,#218,#219,#220));
#824=EDGE_LOOP('',(#221,#222,#223,#224));
#825=EDGE_LOOP('',(#225,#226,#227,#228));
#826=EDGE_LOOP('',(#229,#230,#231,#232));
#827=EDGE_LOOP('',(#233,#234,#235,#236));
#828=EDGE_LOOP('',(#237,#238,#239,#240));
#829=EDGE_LOOP('',(#241,#242,#243,#244,#245,#246,#247,#248,#249));
#830=EDGE_LOOP('',(#250,#251,#252,#253,#254,#255,#256,#257));
#831=EDGE_LOOP('',(#258,#259,#260,#261,#262,#263,#264,#265));
#832=EDGE_LOOP('',(#266,#267,#268,#269));
#833=EDGE_LOOP('',(#270,#271,#272,#273));
#834=EDGE_LOOP('',(#274,#275,#276,#277));
#835=EDGE_LOOP('',(#278,#279,#280,#281));
#836=EDGE_LOOP('',(#282,#283,#284,#285));
#837=EDGE_LOOP('',(#286,#287,#288,#289));
#838=EDGE_LOOP('',(#290,#291,#292,#293));
#839=EDGE_LOOP('',(#294,#295,#296,#297));
#840=EDGE_LOOP('',(#298,#299,#300,#301));
#841=EDGE_LOOP('',(#302,#303,#304,#305));
#842=EDGE_LOOP('',(#306,#307,#308,#309));
#843=EDGE_LOOP('',(#310,#311,#312,#313));
#844=EDGE_LOOP('',(#314,#315,#316,#317));
#845=EDGE_LOOP('',(#318,#319,#320,#321));
#846=EDGE_LOOP('',(#322,#323,#324,#325));
#847=EDGE_LOOP('',(#326,#327,#328,#329));
#848=EDGE_LOOP('',(#330,#331,#332,#333));
#849=EDGE_LOOP('',(#334,#335,#336,#337));
#850=EDGE_LOOP('',(#338,#339,#340,#341));
#851=EDGE_LOOP('',(#342,#343,#344,#345));
#852=FACE_BOUND('',#777,.T.);
#853=FACE_BOUND('',#778,.T.);
#854=FACE_BOUND('',#779,.T.);
#855=FACE_BOUND('',#780,.T.);
#856=FACE_BOUND('',#781,.T.);
#857=FACE_BOUND('',#782,.T.);
#858=FACE_BOUND('',#783,.T.);
#859=FACE_BOUND('',#784,.T.);
#860=FACE_BOUND('',#785,.T.);
#861=FACE_BOUND('',#786,.T.);
#862=FACE_BOUND('',#787,.T.);
#863=FACE_BOUND('',#788,.T.);
#864=FACE_BOUND('',#789,.T.);
#865=FACE_BOUND('',#790,.T.);
#866=FACE_BOUND('',#791,.T.);
#867=FACE_BOUND('',#792,.T.);
#868=FACE_BOUND('',#793,.T.);
#869=FACE_BOUND('',#794,.T.);
#870=FACE_BOUND('',#28,.T.);
#871=FACE_BOUND('',#795,.T.);
#872=FACE_BOUND('',#796,.T.);
#873=FACE_BOUND('',#797,.T.);
#874=FACE_BOUND('',#29,.T.);
#875=FACE_BOUND('',#798,.T.);
#876=FACE_BOUND('',#799,.T.);
#877=FACE_BOUND('',#800,.T.);
#878=FACE_BOUND('',#30,.T.);
#879=FACE_BOUND('',#801,.T.);
#880=FACE_BOUND('',#802,.T.);
#881=FACE_BOUND('',#803,.T.);
#882=FACE_BOUND('',#31,.T.);
#883=FACE_BOUND('',#804,.T.);
#884=FACE_BOUND('',#805,.T.);
#885=FACE_BOUND('',#806,.T.);
#886=FACE_BOUND('',#807,.T.);
#887=FACE_BOUND('',#808,.T.);
#888=FACE_BOUND('',#809,.T.);
#889=FACE_BOUND('',#810,.T.);
#890=FACE_BOUND('',#811,.T.);
#891=FACE_BOUND('',#812,.T.);
#892=FACE_BOUND('',#813,.T.);
#893=FACE_BOUND('',#814,.T.);
#894=FACE_BOUND('',#815,.T.);
#895=FACE_BOUND('',#816,.T.);
#896=FACE_BOUND('',#817,.T.);
#897=FACE_BOUND('',#818,.T.);
#898=FACE_BOUND('',#819,.T.);
#899=FACE_BOUND('',#820,.T.);
#900=FACE_BOUND('',#821,.T.);
#901=FACE_BOUND('',#822,.T.);
#902=FACE_BOUND('',#823,.T.);
#903=FACE_BOUND('',#824,.T.);
#904=FACE_BOUND('',#825,.T.);
#905=FACE_BOUND('',#826,.T.);
#906=FACE_BOUND('',#827,.T.);
#907=FACE_BOUND('',#828,.T.);
#908=FACE_BOUND('',#829,.T.);
#909=FACE_BOUND('',#830,.T.);
#910=FACE_BOUND('',#831,.T.);
#911=FACE_BOUND('',#832,.T.);
#912=FACE_BOUND('',#833,.T.);
#913=FACE_BOUND('',#834,.T.);
#914=FACE_BOUND('',#835,.T.);
#915=FACE_BOUND('',#836,.T.);
#916=FACE_BOUND('',#837,.T.);
#917=FACE_BOUND('',#838,.T.);
#918=FACE_BOUND('',#839,.T.);
#919=FACE_BOUND('',#840,.T.);
#920=FACE_BOUND('',#841,.T.);
#921=FACE_BOUND('',#842,.T.);
#922=FACE_BOUND('',#843,.T.);
#923=FACE_BOUND('',#844,.T.);
#924=FACE_BOUND('',#845,.T.);
#925=FACE_BOUND('',#846,.T.);
#926=FACE_BOUND('',#847,.T.);
#927=FACE_BOUND('',#848,.T.);
#928=FACE_BOUND('',#849,.T.);
#929=FACE_BOUND('',#850,.T.);
#930=FACE_BOUND('',#851,.T.);
#931=PLANE('',#1036);
#932=PLANE('',#1041);
#933=PLANE('',#1042);
#934=PLANE('',#1043);
#935=PLANE('',#1044);
#936=PLANE('',#1045);
#937=PLANE('',#1050);
#938=PLANE('',#1051);
#939=PLANE('',#1052);
#940=PLANE('',#1053);
#941=PLANE('',#1062);
#942=PLANE('',#1087);
#943=PLANE('',#1088);
#944=PLANE('',#1089);
#945=PLANE('',#1090);
#946=PLANE('',#1091);
#947=PLANE('',#1092);
#948=PLANE('',#1093);
#949=PLANE('',#1094);
#950=PLANE('',#1095);
#951=PLANE('',#1096);
#952=PLANE('',#1097);
#953=PLANE('',#1098);
#954=PLANE('',#1099);
#955=PLANE('',#1100);
#956=PLANE('',#1101);
#957=PLANE('',#1111);
#958=PLANE('',#1113);
#959=PLANE('',#1115);
#960=PLANE('',#1117);
#961=PLANE('',#1119);
#962=PLANE('',#1121);
#963=PLANE('',#1123);
#964=PLANE('',#1125);
#965=ADVANCED_FACE('',(#852,#853),#931,.F.);
#966=ADVANCED_FACE('',(#854),#932,.F.);
#967=ADVANCED_FACE('',(#855),#933,.T.);
#968=ADVANCED_FACE('',(#856),#934,.T.);
#969=ADVANCED_FACE('',(#857),#935,.T.);
#970=ADVANCED_FACE('',(#858,#859),#936,.T.);
#971=ADVANCED_FACE('',(#860),#937,.T.);
#972=ADVANCED_FACE('',(#861),#938,.F.);
#973=ADVANCED_FACE('',(#862),#939,.F.);
#974=ADVANCED_FACE('',(#863,#864,#865,#866,#867,#868),#940,.T.);
#975=ADVANCED_FACE('',(#869),#941,.F.);
#976=ADVANCED_FACE('',(#870,#871),#32,.F.);
#977=ADVANCED_FACE('',(#872,#873),#12,.F.);
#978=ADVANCED_FACE('',(#874,#875),#33,.F.);
#979=ADVANCED_FACE('',(#876,#877),#13,.F.);
#980=ADVANCED_FACE('',(#878,#879),#34,.F.);
#981=ADVANCED_FACE('',(#880,#881),#14,.F.);
#982=ADVANCED_FACE('',(#882,#883),#35,.F.);
#983=ADVANCED_FACE('',(#884,#885),#15,.F.);
#984=ADVANCED_FACE('',(#886,#887),#36,.F.);
#985=ADVANCED_FACE('',(#888,#889),#37,.F.);
#986=ADVANCED_FACE('',(#890,#891),#38,.F.);
#987=ADVANCED_FACE('',(#892,#893),#39,.F.);
#988=ADVANCED_FACE('',(#894),#942,.T.);
#989=ADVANCED_FACE('',(#895),#943,.T.);
#990=ADVANCED_FACE('',(#896),#944,.T.);
#991=ADVANCED_FACE('',(#897),#945,.T.);
#992=ADVANCED_FACE('',(#898,#899),#946,.T.);
#993=ADVANCED_FACE('',(#900),#947,.T.);
#994=ADVANCED_FACE('',(#901),#948,.F.);
#995=ADVANCED_FACE('',(#902),#949,.T.);
#996=ADVANCED_FACE('',(#903),#950,.F.);
#997=ADVANCED_FACE('',(#904),#951,.F.);
#998=ADVANCED_FACE('',(#905),#952,.T.);
#999=ADVANCED_FACE('',(#906),#953,.T.);
#1000=ADVANCED_FACE('',(#907),#954,.T.);
#1001=ADVANCED_FACE('',(#908),#955,.T.);
#1002=ADVANCED_FACE('',(#909,#910),#956,.T.);
#1003=ADVANCED_FACE('',(#911),#16,.F.);
#1004=ADVANCED_FACE('',(#912),#957,.F.);
#1005=ADVANCED_FACE('',(#913),#17,.F.);
#1006=ADVANCED_FACE('',(#914),#958,.F.);
#1007=ADVANCED_FACE('',(#915),#18,.F.);
#1008=ADVANCED_FACE('',(#916),#959,.F.);
#1009=ADVANCED_FACE('',(#917),#19,.F.);
#1010=ADVANCED_FACE('',(#918),#960,.F.);
#1011=ADVANCED_FACE('',(#919),#20,.F.);
#1012=ADVANCED_FACE('',(#920),#961,.F.);
#1013=ADVANCED_FACE('',(#921),#21,.F.);
#1014=ADVANCED_FACE('',(#922),#962,.F.);
#1015=ADVANCED_FACE('',(#923),#22,.F.);
#1016=ADVANCED_FACE('',(#924),#963,.F.);
#1017=ADVANCED_FACE('',(#925),#23,.F.);
#1018=ADVANCED_FACE('',(#926),#964,.F.);
#1019=ADVANCED_FACE('',(#927),#24,.T.);
#1020=ADVANCED_FACE('',(#928),#25,.T.);
#1021=ADVANCED_FACE('',(#929),#26,.T.);
#1022=ADVANCED_FACE('',(#930),#27,.T.);
#1023=CLOSED_SHELL('',(#965,#966,#967,#968,#969,#970,#971,#972,#973,#974,
#975,#976,#977,#978,#979,#980,#981,#982,#983,#984,#985,#986,#987,#988,#989,
#990,#991,#992,#993,#994,#995,#996,#997,#998,#999,#1000,#1001,#1002,#1003,
#1004,#1005,#1006,#1007,#1008,#1009,#1010,#1011,#1012,#1013,#1014,#1015,
#1016,#1017,#1018,#1019,#1020,#1021,#1022));
#1024=STYLED_ITEM('',(#1025),#1032);
#1025=PRESENTATION_STYLE_ASSIGNMENT((#1026));
#1026=SURFACE_STYLE_USAGE(.BOTH.,#1027);
#1027=SURFACE_SIDE_STYLE('',(#1028));
#1028=SURFACE_STYLE_FILL_AREA(#1029);
#1029=FILL_AREA_STYLE('',(#1030));
#1030=FILL_AREA_STYLE_COLOUR('',#1031);
#1031=COLOUR_RGB('',0.615686274509804,0.811764705882353,0.929411764705882);
#1032=MANIFOLD_SOLID_BREP('Part 1',#1023);
#1033=SHAPE_DEFINITION_REPRESENTATION(#1717,#1034);
#1034=SHAPE_REPRESENTATION('Part 1',(#1035),#1712);
#1035=AXIS2_PLACEMENT_3D('',#1419,#1130,#1131);
#1036=AXIS2_PLACEMENT_3D('',#1420,#1132,#1133);
#1037=AXIS2_PLACEMENT_3D('',#1429,#1138,#1139);
#1038=AXIS2_PLACEMENT_3D('',#1434,#1141,#1142);
#1039=AXIS2_PLACEMENT_3D('',#1438,#1144,#1145);
#1040=AXIS2_PLACEMENT_3D('',#1442,#1147,#1148);
#1041=AXIS2_PLACEMENT_3D('',#1445,#1150,#1151);
#1042=AXIS2_PLACEMENT_3D('',#1467,#1163,#1164);
#1043=AXIS2_PLACEMENT_3D('',#1478,#1171,#1172);
#1044=AXIS2_PLACEMENT_3D('',#1482,#1175,#1176);
#1045=AXIS2_PLACEMENT_3D('',#1491,#1181,#1182);
#1046=AXIS2_PLACEMENT_3D('',#1492,#1183,#1184);
#1047=AXIS2_PLACEMENT_3D('',#1497,#1186,#1187);
#1048=AXIS2_PLACEMENT_3D('',#1501,#1189,#1190);
#1049=AXIS2_PLACEMENT_3D('',#1505,#1192,#1193);
#1050=AXIS2_PLACEMENT_3D('',#1516,#1199,#1200);
#1051=AXIS2_PLACEMENT_3D('',#1525,#1205,#1206);
#1052=AXIS2_PLACEMENT_3D('',#1534,#1211,#1212);
#1053=AXIS2_PLACEMENT_3D('',#1536,#1214,#1215);
#1054=AXIS2_PLACEMENT_3D('',#1537,#1216,#1217);
#1055=AXIS2_PLACEMENT_3D('',#1539,#1218,#1219);
#1056=AXIS2_PLACEMENT_3D('',#1541,#1220,#1221);
#1057=AXIS2_PLACEMENT_3D('',#1543,#1222,#1223);
#1058=AXIS2_PLACEMENT_3D('',#1545,#1224,#1225);
#1059=AXIS2_PLACEMENT_3D('',#1546,#1226,#1227);
#1060=AXIS2_PLACEMENT_3D('',#1547,#1228,#1229);
#1061=AXIS2_PLACEMENT_3D('',#1548,#1230,#1231);
#1062=AXIS2_PLACEMENT_3D('',#1549,#1232,#1233);
#1063=AXIS2_PLACEMENT_3D('',#1550,#1234,#1235);
#1064=AXIS2_PLACEMENT_3D('',#1551,#1236,#1237);
#1065=AXIS2_PLACEMENT_3D('',#1552,#1238,#1239);
#1066=AXIS2_PLACEMENT_3D('',#1553,#1240,#1241);
#1067=AXIS2_PLACEMENT_3D('',#1554,#1242,#1243);
#1068=AXIS2_PLACEMENT_3D('',#1556,#1244,#1245);
#1069=AXIS2_PLACEMENT_3D('',#1558,#1246,#1247);
#1070=AXIS2_PLACEMENT_3D('',#1559,#1248,#1249);
#1071=AXIS2_PLACEMENT_3D('',#1561,#1250,#1251);
#1072=AXIS2_PLACEMENT_3D('',#1563,#1252,#1253);
#1073=AXIS2_PLACEMENT_3D('',#1565,#1254,#1255);
#1074=AXIS2_PLACEMENT_3D('',#1566,#1256,#1257);
#1075=AXIS2_PLACEMENT_3D('',#1568,#1258,#1259);
#1076=AXIS2_PLACEMENT_3D('',#1570,#1260,#1261);
#1077=AXIS2_PLACEMENT_3D('',#1572,#1262,#1263);
#1078=AXIS2_PLACEMENT_3D('',#1573,#1264,#1265);
#1079=AXIS2_PLACEMENT_3D('',#1575,#1266,#1267);
#1080=AXIS2_PLACEMENT_3D('',#1577,#1268,#1269);
#1081=AXIS2_PLACEMENT_3D('',#1579,#1270,#1271);
#1082=AXIS2_PLACEMENT_3D('',#1580,#1272,#1273);
#1083=AXIS2_PLACEMENT_3D('',#1582,#1274,#1275);
#1084=AXIS2_PLACEMENT_3D('',#1583,#1276,#1277);
#1085=AXIS2_PLACEMENT_3D('',#1584,#1278,#1279);
#1086=AXIS2_PLACEMENT_3D('',#1585,#1280,#1281);
#1087=AXIS2_PLACEMENT_3D('',#1586,#1282,#1283);
#1088=AXIS2_PLACEMENT_3D('',#1595,#1288,#1289);
#1089=AXIS2_PLACEMENT_3D('',#1601,#1293,#1294);
#1090=AXIS2_PLACEMENT_3D('',#1607,#1298,#1299);
#1091=AXIS2_PLACEMENT_3D('',#1610,#1302,#1303);
#1092=AXIS2_PLACEMENT_3D('',#1616,#1307,#1308);
#1093=AXIS2_PLACEMENT_3D('',#1617,#1309,#1310);
#1094=AXIS2_PLACEMENT_3D('',#1621,#1313,#1314);
#1095=AXIS2_PLACEMENT_3D('',#1625,#1317,#1318);
#1096=AXIS2_PLACEMENT_3D('',#1629,#1321,#1322);
#1097=AXIS2_PLACEMENT_3D('',#1631,#1324,#1325);
#1098=AXIS2_PLACEMENT_3D('',#1635,#1328,#1329);
#1099=AXIS2_PLACEMENT_3D('',#1639,#1332,#1333);
#1100=AXIS2_PLACEMENT_3D('',#1641,#1335,#1336);
#1101=AXIS2_PLACEMENT_3D('',#1642,#1337,#1338);
#1102=AXIS2_PLACEMENT_3D('',#1646,#1340,#1341);
#1103=AXIS2_PLACEMENT_3D('',#1650,#1343,#1344);
#1104=AXIS2_PLACEMENT_3D('',#1654,#1346,#1347);
#1105=AXIS2_PLACEMENT_3D('',#1658,#1349,#1350);
#1106=AXIS2_PLACEMENT_3D('',#1662,#1352,#1353);
#1107=AXIS2_PLACEMENT_3D('',#1666,#1355,#1356);
#1108=AXIS2_PLACEMENT_3D('',#1670,#1358,#1359);
#1109=AXIS2_PLACEMENT_3D('',#1674,#1361,#1362);
#1110=AXIS2_PLACEMENT_3D('',#1675,#1363,#1364);
#1111=AXIS2_PLACEMENT_3D('',#1678,#1367,#1368);
#1112=AXIS2_PLACEMENT_3D('',#1680,#1370,#1371);
#1113=AXIS2_PLACEMENT_3D('',#1682,#1373,#1374);
#1114=AXIS2_PLACEMENT_3D('',#1684,#1376,#1377);
#1115=AXIS2_PLACEMENT_3D('',#1686,#1379,#1380);
#1116=AXIS2_PLACEMENT_3D('',#1688,#1382,#1383);
#1117=AXIS2_PLACEMENT_3D('',#1690,#1385,#1386);
#1118=AXIS2_PLACEMENT_3D('',#1691,#1387,#1388);
#1119=AXIS2_PLACEMENT_3D('',#1694,#1391,#1392);
#1120=AXIS2_PLACEMENT_3D('',#1696,#1394,#1395);
#1121=AXIS2_PLACEMENT_3D('',#1698,#1397,#1398);
#1122=AXIS2_PLACEMENT_3D('',#1700,#1400,#1401);
#1123=AXIS2_PLACEMENT_3D('',#1702,#1403,#1404);
#1124=AXIS2_PLACEMENT_3D('',#1704,#1406,#1407);
#1125=AXIS2_PLACEMENT_3D('',#1706,#1409,#1410);
#1126=AXIS2_PLACEMENT_3D('',#1707,#1411,#1412);
#1127=AXIS2_PLACEMENT_3D('',#1708,#1413,#1414);
#1128=AXIS2_PLACEMENT_3D('',#1709,#1415,#1416);
#1129=AXIS2_PLACEMENT_3D('',#1710,#1417,#1418);
#1130=DIRECTION('',(0.,0.,1.));
#1131=DIRECTION('',(1.,0.,0.));
#1132=DIRECTION('',(0.,1.,0.));
#1133=DIRECTION('',(0.,0.,1.));
#1134=DIRECTION('',(0.,0.,-1.));
#1135=DIRECTION('',(1.,0.,0.));
#1136=DIRECTION('',(0.,0.,-1.));
#1137=DIRECTION('',(1.,0.,0.));
#1138=DIRECTION('',(0.,1.,0.));
#1139=DIRECTION('',(0.,0.,1.));
#1140=DIRECTION('',(-1.,0.,0.));
#1141=DIRECTION('',(0.,1.,0.));
#1142=DIRECTION('',(0.,0.,1.));
#1143=DIRECTION('',(0.,0.,1.));
#1144=DIRECTION('',(0.,1.,0.));
#1145=DIRECTION('',(0.,0.,1.));
#1146=DIRECTION('',(1.,0.,0.));
#1147=DIRECTION('',(0.,1.,0.));
#1148=DIRECTION('',(0.,0.,1.));
#1149=DIRECTION('',(-9.77309000550311E-15,0.,-1.));
#1150=DIRECTION('',(1.,0.,0.));
#1151=DIRECTION('',(0.,0.,-1.));
#1152=DIRECTION('',(0.,0.,-1.));
#1153=DIRECTION('',(0.,-1.,0.));
#1154=DIRECTION('',(0.,0.,-1.));
#1155=DIRECTION('',(0.,-1.,0.));
#1156=DIRECTION('',(0.,0.,-1.));
#1157=DIRECTION('',(0.,1.,0.));
#1158=DIRECTION('',(0.,0.,-1.));
#1159=DIRECTION('',(0.,-1.,0.));
#1160=DIRECTION('',(0.,0.,-1.));
#1161=DIRECTION('',(0.,-1.,0.));
#1162=DIRECTION('',(0.,-1.,0.));
#1163=DIRECTION('',(0.,0.,1.));
#1164=DIRECTION('',(1.,0.,0.));
#1165=DIRECTION('',(0.999999998133384,-6.11001744251359E-5,0.));
#1166=DIRECTION('',(1.,0.,0.));
#1167=DIRECTION('',(0.,1.,0.));
#1168=DIRECTION('',(-1.,-1.60621101585066E-16,0.));
#1169=DIRECTION('',(0.,1.,0.));
#1170=DIRECTION('',(1.,0.,0.));
#1171=DIRECTION('',(0.,1.,0.));
#1172=DIRECTION('',(0.,0.,1.));
#1173=DIRECTION('',(0.,0.,-1.));
#1174=DIRECTION('',(1.,0.,0.));
#1175=DIRECTION('',(1.,0.,0.));
#1176=DIRECTION('',(0.,0.,-1.));
#1177=DIRECTION('',(0.,-1.,0.));
#1178=DIRECTION('',(0.,0.,-1.));
#1179=DIRECTION('',(0.,-1.,0.));
#1180=DIRECTION('',(0.,0.,-1.));
#1181=DIRECTION('',(-1.29367480554632E-16,1.,0.));
#1182=DIRECTION('',(-1.,-1.29367480554632E-16,0.));
#1183=DIRECTION('',(-1.29367480554632E-16,1.,0.));
#1184=DIRECTION('',(-1.,-1.29367480554632E-16,0.));
#1185=DIRECTION('',(1.,1.29367480554632E-16,0.));
#1186=DIRECTION('',(-1.29367480554632E-16,1.,0.));
#1187=DIRECTION('',(-1.,-1.29367480554632E-16,0.));
#1188=DIRECTION('',(4.88654500275159E-15,6.32160015622799E-31,1.));
#1189=DIRECTION('',(-1.29367480554632E-16,1.,0.));
#1190=DIRECTION('',(-1.,-1.29367480554632E-16,0.));
#1191=DIRECTION('',(-1.,-1.29367480554632E-16,0.));
#1192=DIRECTION('',(-1.29367480554632E-16,1.,0.));
#1193=DIRECTION('',(-1.,-1.29367480554632E-16,0.));
#1194=DIRECTION('',(0.,0.,-1.));
#1195=DIRECTION('',(1.,1.29367480554632E-16,0.));
#1196=DIRECTION('',(0.,0.,-1.));
#1197=DIRECTION('',(1.,1.29367480554632E-16,0.));
#1198=DIRECTION('',(0.,0.,-1.));
#1199=DIRECTION('',(-1.,0.,0.));
#1200=DIRECTION('',(0.,0.,1.));
#1201=DIRECTION('',(0.,1.,0.));
#1202=DIRECTION('',(0.,0.,-1.));
#1203=DIRECTION('',(0.,1.,0.));
#1204=DIRECTION('',(0.,0.,-1.));
#1205=DIRECTION('',(-1.29367480554632E-16,1.,0.));
#1206=DIRECTION('',(-1.,-1.29367480554632E-16,0.));
#1207=DIRECTION('',(1.,1.29367480554632E-16,0.));
#1208=DIRECTION('',(0.,0.,-1.));
#1209=DIRECTION('',(1.,1.29367480554632E-16,0.));
#1210=DIRECTION('',(0.,0.,-1.));
#1211=DIRECTION('',(-1.,0.,0.));
#1212=DIRECTION('',(0.,0.,1.));
#1213=DIRECTION('',(0.,1.,0.));
#1214=DIRECTION('',(0.,0.,1.));
#1215=DIRECTION('',(1.,0.,0.));
#1216=DIRECTION('',(0.,0.,1.));
#1217=DIRECTION('',(1.,0.,0.));
#1218=DIRECTION('',(0.,0.,1.));
#1219=DIRECTION('',(1.,0.,0.));
#1220=DIRECTION('',(0.,0.,1.));
#1221=DIRECTION('',(1.,0.,0.));
#1222=DIRECTION('',(0.,0.,1.));
#1223=DIRECTION('',(1.,0.,0.));
#1224=DIRECTION('',(0.,0.,1.));
#1225=DIRECTION('',(1.,0.,0.));
#1226=DIRECTION('',(0.,0.,1.));
#1227=DIRECTION('',(1.,0.,0.));
#1228=DIRECTION('',(0.,0.,1.));
#1229=DIRECTION('',(1.,0.,0.));
#1230=DIRECTION('',(0.,0.,1.));
#1231=DIRECTION('',(1.,0.,0.));
#1232=DIRECTION('',(0.,0.,1.));
#1233=DIRECTION('',(1.,0.,0.));
#1234=DIRECTION('',(0.,0.,1.));
#1235=DIRECTION('',(1.,0.,0.));
#1236=DIRECTION('',(0.,0.,1.));
#1237=DIRECTION('',(1.,0.,0.));
#1238=DIRECTION('',(0.,0.,1.));
#1239=DIRECTION('',(1.,0.,0.));
#1240=DIRECTION('',(0.,0.,1.));
#1241=DIRECTION('',(1.,0.,0.));
#1242=DIRECTION('',(0.,0.,1.));
#1243=DIRECTION('',(1.,0.,0.));
#1244=DIRECTION('',(0.,0.,-1.));
#1245=DIRECTION('',(-1.,0.,0.));
#1246=DIRECTION('',(0.,0.,-1.));
#1247=DIRECTION('',(-1.,0.,0.));
#1248=DIRECTION('',(0.,0.,1.));
#1249=DIRECTION('',(1.,0.,0.));
#1250=DIRECTION('',(0.,0.,1.));
#1251=DIRECTION('',(1.,0.,0.));
#1252=DIRECTION('',(0.,0.,-1.));
#1253=DIRECTION('',(-1.,0.,0.));
#1254=DIRECTION('',(0.,0.,-1.));
#1255=DIRECTION('',(-1.,0.,0.));
#1256=DIRECTION('',(0.,0.,1.));
#1257=DIRECTION('',(1.,0.,0.));
#1258=DIRECTION('',(0.,0.,1.));
#1259=DIRECTION('',(1.,0.,0.));
#1260=DIRECTION('',(0.,0.,-1.));
#1261=DIRECTION('',(-1.,0.,0.));
#1262=DIRECTION('',(0.,0.,-1.));
#1263=DIRECTION('',(-1.,0.,0.));
#1264=DIRECTION('',(0.,0.,1.));
#1265=DIRECTION('',(1.,0.,0.));
#1266=DIRECTION('',(0.,0.,1.));
#1267=DIRECTION('',(1.,0.,0.));
#1268=DIRECTION('',(0.,0.,-1.));
#1269=DIRECTION('',(-1.,0.,0.));
#1270=DIRECTION('',(0.,0.,-1.));
#1271=DIRECTION('',(-1.,0.,0.));
#1272=DIRECTION('',(0.,0.,1.));
#1273=DIRECTION('',(1.,0.,0.));
#1274=DIRECTION('',(0.,0.,1.));
#1275=DIRECTION('',(1.,0.,0.));
#1276=DIRECTION('',(0.,0.,1.));
#1277=DIRECTION('',(1.,0.,0.));
#1278=DIRECTION('',(0.,0.,1.));
#1279=DIRECTION('',(1.,0.,0.));
#1280=DIRECTION('',(0.,0.,1.));
#1281=DIRECTION('',(1.,0.,0.));
#1282=DIRECTION('',(1.,0.,0.));
#1283=DIRECTION('',(0.,0.,-1.));
#1284=DIRECTION('',(0.,-1.,0.));
#1285=DIRECTION('',(0.,0.,-1.));
#1286=DIRECTION('',(0.,-1.,0.));
#1287=DIRECTION('',(0.,0.,-1.));
#1288=DIRECTION('',(1.8112487350319E-16,-1.,0.));
#1289=DIRECTION('',(1.,1.8112487350319E-16,0.));
#1290=DIRECTION('',(-1.,-1.8112487350319E-16,0.));
#1291=DIRECTION('',(0.,0.,-1.));
#1292=DIRECTION('',(-1.,-1.8112487350319E-16,0.));
#1293=DIRECTION('',(-1.,0.,0.));
#1294=DIRECTION('',(0.,0.,1.));
#1295=DIRECTION('',(0.,1.,0.));
#1296=DIRECTION('',(0.,0.,-1.));
#1297=DIRECTION('',(0.,1.,0.));
#1298=DIRECTION('',(0.,1.,0.));
#1299=DIRECTION('',(0.,0.,1.));
#1300=DIRECTION('',(1.,0.,0.));
#1301=DIRECTION('',(1.,0.,0.));
#1302=DIRECTION('',(0.,0.,1.));
#1303=DIRECTION('',(1.,0.,0.));
#1304=DIRECTION('',(-1.,-1.60621101585066E-16,0.));
#1305=DIRECTION('',(0.,-1.,0.));
#1306=DIRECTION('',(0.999999998133384,-6.11001744251281E-5,0.));
#1307=DIRECTION('',(0.,0.,1.));
#1308=DIRECTION('',(1.,0.,0.));
#1309=DIRECTION('',(1.60621101585066E-16,-1.,0.));
#1310=DIRECTION('',(1.,1.60621101585066E-16,0.));
#1311=DIRECTION('',(0.,0.,-1.));
#1312=DIRECTION('',(-1.,-1.60621101585066E-16,0.));
#1313=DIRECTION('',(-1.,0.,0.));
#1314=DIRECTION('',(0.,0.,1.));
#1315=DIRECTION('',(0.,0.,-1.));
#1316=DIRECTION('',(0.,1.,0.));
#1317=DIRECTION('',(0.,1.,0.));
#1318=DIRECTION('',(0.,0.,1.));
#1319=DIRECTION('',(0.,0.,-1.));
#1320=DIRECTION('',(1.,0.,0.));
#1321=DIRECTION('',(6.11001744251359E-5,0.999999998133384,0.));
#1322=DIRECTION('',(-0.999999998133384,6.11001744251359E-5,0.));
#1323=DIRECTION('',(0.999999998133384,-6.11001744251359E-5,0.));
#1324=DIRECTION('',(6.11001744251281E-5,0.999999998133384,0.));
#1325=DIRECTION('',(-0.999999998133384,6.11001744251281E-5,0.));
#1326=DIRECTION('',(0.,0.,-1.));
#1327=DIRECTION('',(0.999999998133384,-6.11001744251281E-5,0.));
#1328=DIRECTION('',(1.,0.,0.));
#1329=DIRECTION('',(0.,0.,-1.));
#1330=DIRECTION('',(0.,0.,-1.));
#1331=DIRECTION('',(0.,-1.,0.));
#1332=DIRECTION('',(1.60621101585066E-16,-1.,0.));
#1333=DIRECTION('',(1.,1.60621101585066E-16,0.));
#1334=DIRECTION('',(-1.,-1.60621101585066E-16,0.));
#1335=DIRECTION('',(0.,0.,1.));
#1336=DIRECTION('',(1.,0.,0.));
#1337=DIRECTION('',(0.,1.,0.));
#1338=DIRECTION('',(0.,0.,1.));
#1339=DIRECTION('',(-1.,0.,0.));
#1340=DIRECTION('',(0.,1.,0.));
#1341=DIRECTION('',(0.,0.,1.));
#1342=DIRECTION('',(0.,0.,1.));
#1343=DIRECTION('',(0.,1.,0.));
#1344=DIRECTION('',(0.,0.,1.));
#1345=DIRECTION('',(1.,0.,0.));
#1346=DIRECTION('',(0.,1.,0.));
#1347=DIRECTION('',(0.,0.,1.));
#1348=DIRECTION('',(-4.88654500275159E-15,0.,-1.));
#1349=DIRECTION('',(0.,1.,0.));
#1350=DIRECTION('',(0.,0.,1.));
#1351=DIRECTION('',(0.,0.,1.));
#1352=DIRECTION('',(0.,1.,0.));
#1353=DIRECTION('',(0.,0.,1.));
#1354=DIRECTION('',(-1.,0.,0.));
#1355=DIRECTION('',(0.,1.,0.));
#1356=DIRECTION('',(0.,0.,1.));
#1357=DIRECTION('',(-9.77309000550311E-15,0.,-1.));
#1358=DIRECTION('',(0.,1.,0.));
#1359=DIRECTION('',(0.,0.,1.));
#1360=DIRECTION('',(1.,0.,0.));
#1361=DIRECTION('',(0.,1.,0.));
#1362=DIRECTION('',(0.,0.,1.));
#1363=DIRECTION('',(-1.29367480554632E-16,1.,0.));
#1364=DIRECTION('',(-1.,-1.29367480554632E-16,0.));
#1365=DIRECTION('',(-1.29367480554632E-16,1.,0.));
#1366=DIRECTION('',(-1.29367480554632E-16,1.,0.));
#1367=DIRECTION('',(-1.,-1.29367480554632E-16,4.88654500275159E-15));
#1368=DIRECTION('',(4.88654500275159E-15,0.,1.));
#1369=DIRECTION('',(-1.29367480554632E-16,1.,0.));
#1370=DIRECTION('',(-1.29367480554632E-16,1.,0.));
#1371=DIRECTION('',(-1.,-1.29367480554632E-16,0.));
#1372=DIRECTION('',(-1.29367480554632E-16,1.,0.));
#1373=DIRECTION('',(0.,0.,-1.));
#1374=DIRECTION('',(-1.,0.,0.));
#1375=DIRECTION('',(-1.29367480554632E-16,1.,0.));
#1376=DIRECTION('',(-1.29367480554632E-16,1.,0.));
#1377=DIRECTION('',(-1.,-1.29367480554632E-16,0.));
#1378=DIRECTION('',(-1.29367480554632E-16,1.,0.));
#1379=DIRECTION('',(1.,1.29367480554632E-16,0.));
#1380=DIRECTION('',(-1.29367480554632E-16,1.,0.));
#1381=DIRECTION('',(-1.29367480554632E-16,1.,0.));
#1382=DIRECTION('',(-1.29367480554632E-16,1.,0.));
#1383=DIRECTION('',(-1.,-1.29367480554632E-16,0.));
#1384=DIRECTION('',(-1.29367480554632E-16,1.,0.));
#1385=DIRECTION('',(0.,0.,1.));
#1386=DIRECTION('',(1.,0.,0.));
#1387=DIRECTION('',(-1.29367480554632E-16,1.,0.));
#1388=DIRECTION('',(-1.,-1.29367480554632E-16,0.));
#1389=DIRECTION('',(-1.29367480554632E-16,1.,0.));
#1390=DIRECTION('',(-1.29367480554632E-16,1.,0.));
#1391=DIRECTION('',(-1.,-1.29367480554632E-16,9.77309000550311E-15));
#1392=DIRECTION('',(9.77309000550311E-15,0.,1.));
#1393=DIRECTION('',(-1.29367480554632E-16,1.,0.));
#1394=DIRECTION('',(-1.29367480554632E-16,1.,0.));
#1395=DIRECTION('',(-1.,-1.29367480554632E-16,0.));
#1396=DIRECTION('',(-1.29367480554632E-16,1.,0.));
#1397=DIRECTION('',(0.,0.,-1.));
#1398=DIRECTION('',(-1.,0.,0.));
#1399=DIRECTION('',(-1.29367480554632E-16,1.,0.));
#1400=DIRECTION('',(-1.29367480554632E-16,1.,0.));
#1401=DIRECTION('',(-1.,-1.29367480554632E-16,0.));
#1402=DIRECTION('',(-1.29367480554632E-16,1.,0.));
#1403=DIRECTION('',(1.,1.29367480554632E-16,0.));
#1404=DIRECTION('',(-1.29367480554632E-16,1.,0.));
#1405=DIRECTION('',(-1.29367480554632E-16,1.,0.));
#1406=DIRECTION('',(-1.29367480554632E-16,1.,0.));
#1407=DIRECTION('',(-1.,-1.29367480554632E-16,0.));
#1408=DIRECTION('',(-1.29367480554632E-16,1.,0.));
#1409=DIRECTION('',(0.,0.,1.));
#1410=DIRECTION('',(1.,0.,0.));
#1411=DIRECTION('',(0.,0.,-1.));
#1412=DIRECTION('',(-1.,0.,0.));
#1413=DIRECTION('',(0.,0.,-1.));
#1414=DIRECTION('',(-1.,0.,0.));
#1415=DIRECTION('',(0.,0.,1.));
#1416=DIRECTION('',(1.,0.,0.));
#1417=DIRECTION('',(0.,0.,1.));
#1418=DIRECTION('',(1.,0.,0.));
#1419=CARTESIAN_POINT('',(0.,0.,0.));
#1420=CARTESIAN_POINT('',(-0.0026678906625334,0.04143522467968,0.018));
#1421=CARTESIAN_POINT('',(-0.0483049706625334,0.04143522467968,0.018));
#1422=CARTESIAN_POINT('',(-0.0483049706625334,0.04143522467968,0.018));
#1423=CARTESIAN_POINT('',(-0.0483049706625334,0.04143522467968,0.007));
#1424=CARTESIAN_POINT('',(-0.0026678906625334,0.04143522467968,0.007));
#1425=CARTESIAN_POINT('',(0.0429691893374666,0.04143522467968,0.007));
#1426=CARTESIAN_POINT('',(0.0429691893374666,0.04143522467968,0.018));
#1427=CARTESIAN_POINT('',(0.0429691893374666,0.04143522467968,0.018));
#1428=CARTESIAN_POINT('',(-0.0026678906625334,0.04143522467968,0.018));
#1429=CARTESIAN_POINT('',(0.0254348194278495,0.04143522467968,0.0138727494118952));
#1430=CARTESIAN_POINT('',(0.0254348194278495,0.04143522467968,0.0153227494118952));
#1431=CARTESIAN_POINT('',(0.0239848194278495,0.04143522467968,0.0138727494118952));
#1432=CARTESIAN_POINT('',(0.0286548194278495,0.04143522467968,0.0153227494118952));
#1433=CARTESIAN_POINT('',(0.0318748194278495,0.04143522467968,0.0153227494118952));
#1434=CARTESIAN_POINT('',(0.0318748194278495,0.04143522467968,0.0138727494118952));
#1435=CARTESIAN_POINT('',(0.0333248194278495,0.04143522467968,0.0138727494118952));
#1436=CARTESIAN_POINT('',(0.0333248194278495,0.04143522467968,0.0135177494118952));
#1437=CARTESIAN_POINT('',(0.0333248194278495,0.04143522467968,0.0131627494118952));
#1438=CARTESIAN_POINT('',(0.0318748194278495,0.04143522467968,0.0131627494118952));
#1439=CARTESIAN_POINT('',(0.0318748194278495,0.04143522467968,0.0117127494118952));
#1440=CARTESIAN_POINT('',(0.0286548194278495,0.04143522467968,0.0117127494118952));
#1441=CARTESIAN_POINT('',(0.0254348194278495,0.04143522467968,0.0117127494118952));
#1442=CARTESIAN_POINT('',(0.0254348194278495,0.04143522467968,0.0131627494118952));
#1443=CARTESIAN_POINT('',(0.0239848194278495,0.04143522467968,0.0131627494118952));
#1444=CARTESIAN_POINT('',(0.0239848194278495,0.04143522467968,0.0135177494118952));
#1445=CARTESIAN_POINT('',(0.0429691893374666,0.00695022467967996,0.018));
#1446=CARTESIAN_POINT('',(0.0429691893374666,0.0402637503323194,0.009));
#1447=CARTESIAN_POINT('',(0.0429691893374666,0.0402637503323194,0.0105));
#1448=CARTESIAN_POINT('',(0.0429691893374666,0.0402637503323194,0.007));
#1449=CARTESIAN_POINT('',(0.0429691893374666,0.00695022467967996,0.0105));
#1450=CARTESIAN_POINT('',(0.0429691893374666,0.0385137503323194,0.0105));
#1451=CARTESIAN_POINT('',(0.0429691893374666,0.0385137503323194,0.0105));
#1452=CARTESIAN_POINT('',(0.0429691893374666,0.0385137503323194,0.0095));
#1453=CARTESIAN_POINT('',(0.0429691893374666,0.00695022467967996,0.0095));
#1454=CARTESIAN_POINT('',(0.0429691893374924,-0.0220115279295278,0.0095));
#1455=CARTESIAN_POINT('',(0.0429691893374924,-0.0220115279295278,0.0105));
#1456=CARTESIAN_POINT('',(0.0429691893374731,-0.022011528349849,0.0105));
#1457=CARTESIAN_POINT('',(0.0429691893374666,0.00695022467967996,0.0105));
#1458=CARTESIAN_POINT('',(0.0429691893374666,-0.0237615287701655,0.0105));
#1459=CARTESIAN_POINT('',(0.0429691893374666,-0.0237615287668942,0.018));
#1460=CARTESIAN_POINT('',(0.0429691357966755,-0.0237615287701655,0.007));
#1461=CARTESIAN_POINT('',(0.0429691893374666,0.00695022467967996,0.007));
#1462=CARTESIAN_POINT('',(0.0429691893374666,-0.0275347753203201,0.007));
#1463=CARTESIAN_POINT('',(0.0429691893374666,-0.0275347753203201,0.018));
#1464=CARTESIAN_POINT('',(0.0429691893374666,-0.0275347753203201,0.018));
#1465=CARTESIAN_POINT('',(0.0429691893374666,0.00695022467967996,0.018));
#1466=CARTESIAN_POINT('',(0.0429691893374666,0.00695022467967996,0.007));
#1467=CARTESIAN_POINT('',(-0.00266789066253339,0.00695022467967996,0.007));
#1468=CARTESIAN_POINT('',(-0.000231305709538363,-0.0237588892156494,0.007));
#1469=CARTESIAN_POINT('',(-0.0434316936749481,-0.0237562496644045,0.007));
#1470=CARTESIAN_POINT('',(-0.044306640134156,-0.0237562496644045,0.007));
#1471=CARTESIAN_POINT('',(-0.0451815865933639,-0.0237562496644045,0.007));
#1472=CARTESIAN_POINT('',(-0.0451815865933639,0.0393887503323194,0.007));
#1473=CARTESIAN_POINT('',(-0.0451815865933639,0.0402637503323194,0.007));
#1474=CARTESIAN_POINT('',(-0.000231198627948667,0.0402637503323194,0.007));
#1475=CARTESIAN_POINT('',(-0.0483049706625334,0.00695022467967995,0.007));
#1476=CARTESIAN_POINT('',(-0.0483049706625334,-0.0275347753203201,0.007));
#1477=CARTESIAN_POINT('',(-0.00266789066253339,-0.0275347753203201,0.007));
#1478=CARTESIAN_POINT('',(-0.00266789066253339,-0.0275347753203201,0.018));
#1479=CARTESIAN_POINT('',(-0.0483049706625334,-0.0275347753203201,0.018));
#1480=CARTESIAN_POINT('',(-0.0483049706625334,-0.0275347753203201,0.018));
#1481=CARTESIAN_POINT('',(-0.00266789066253339,-0.0275347753203201,0.018));
#1482=CARTESIAN_POINT('',(0.0509691893374666,0.00695022467967997,0.018));
#1483=CARTESIAN_POINT('',(0.0509691893374666,0.00695022467967997,0.));
#1484=CARTESIAN_POINT('',(0.0509691893374666,0.04743522467968,0.));
#1485=CARTESIAN_POINT('',(0.0509691893374666,-0.0335347753203201,0.));
#1486=CARTESIAN_POINT('',(0.0509691893374666,0.04743522467968,0.018));
#1487=CARTESIAN_POINT('',(0.0509691893374666,0.04743522467968,0.018));
#1488=CARTESIAN_POINT('',(0.0509691893374666,0.00695022467967997,0.018));
#1489=CARTESIAN_POINT('',(0.0509691893374666,-0.0335347753203201,0.018));
#1490=CARTESIAN_POINT('',(0.0509691893374666,-0.0335347753203201,0.));
#1491=CARTESIAN_POINT('',(-0.00266789066253339,0.04943522467968,0.018));
#1492=CARTESIAN_POINT('',(0.0318748194278495,0.04943522467968,0.0138727494118952));
#1493=CARTESIAN_POINT('',(0.0318748194278495,0.04943522467968,0.0161227494118953));
#1494=CARTESIAN_POINT('',(0.0341248194278495,0.04943522467968,0.0138727494118952));
#1495=CARTESIAN_POINT('',(0.0286548194278495,0.04943522467968,0.0161227494118953));
#1496=CARTESIAN_POINT('',(0.0254348194278495,0.04943522467968,0.0161227494118953));
#1497=CARTESIAN_POINT('',(0.0254348194278495,0.04943522467968,0.0138727494118952));
#1498=CARTESIAN_POINT('',(0.0231848194278495,0.04943522467968,0.0138727494118952));
#1499=CARTESIAN_POINT('',(0.0231848194278495,0.04943522467968,0.0135177494118952));
#1500=CARTESIAN_POINT('',(0.0231848194278495,0.04943522467968,0.0131627494118952));
#1501=CARTESIAN_POINT('',(0.0254348194278495,0.04943522467968,0.0131627494118952));
#1502=CARTESIAN_POINT('',(0.0254348194278495,0.04943522467968,0.0109127494118952));
#1503=CARTESIAN_POINT('',(0.0286548194278495,0.04943522467968,0.0109127494118952));
#1504=CARTESIAN_POINT('',(0.0318748194278495,0.04943522467968,0.0109127494118952));
#1505=CARTESIAN_POINT('',(0.0318748194278495,0.04943522467968,0.0131627494118952));
#1506=CARTESIAN_POINT('',(0.0341248194278495,0.04943522467968,0.0131627494118952));
#1507=CARTESIAN_POINT('',(0.0341248194278495,0.04943522467968,0.0135177494118952));
#1508=CARTESIAN_POINT('',(-0.00266789066253339,0.04943522467968,0.));
#1509=CARTESIAN_POINT('',(-0.0543049706625334,0.04943522467968,0.));
#1510=CARTESIAN_POINT('',(0.0489691893374666,0.04943522467968,0.));
#1511=CARTESIAN_POINT('',(-0.0543049706625334,0.04943522467968,0.018));
#1512=CARTESIAN_POINT('',(-0.0543049706625334,0.04943522467968,0.018));
#1513=CARTESIAN_POINT('',(-0.00266789066253339,0.04943522467968,0.018));
#1514=CARTESIAN_POINT('',(0.0489691893374666,0.04943522467968,0.018));
#1515=CARTESIAN_POINT('',(0.0489691893374666,0.04943522467968,0.018));
#1516=CARTESIAN_POINT('',(-0.0563049706625334,0.00695022467967995,0.018));
#1517=CARTESIAN_POINT('',(-0.0563049706625334,0.00695022467967995,0.018));
#1518=CARTESIAN_POINT('',(-0.0563049706625334,-0.0335347753203201,0.018));
#1519=CARTESIAN_POINT('',(-0.0563049706625334,0.04743522467968,0.018));
#1520=CARTESIAN_POINT('',(-0.0563049706625334,0.04743522467968,0.018));
#1521=CARTESIAN_POINT('',(-0.0563049706625334,0.04743522467968,0.));
#1522=CARTESIAN_POINT('',(-0.0563049706625334,0.00695022467967995,0.));
#1523=CARTESIAN_POINT('',(-0.0563049706625334,-0.0335347753203201,0.));
#1524=CARTESIAN_POINT('',(-0.0563049706625334,-0.0335347753203201,0.018));
#1525=CARTESIAN_POINT('',(-0.00266789066253339,-0.0355347753203201,0.018));
#1526=CARTESIAN_POINT('',(-0.00266789066253339,-0.0355347753203201,0.018));
#1527=CARTESIAN_POINT('',(-0.0543049706625334,-0.0355347753203201,0.018));
#1528=CARTESIAN_POINT('',(0.0489691893374666,-0.0355347753203201,0.018));
#1529=CARTESIAN_POINT('',(-0.0543049706625334,-0.0355347753203201,0.));
#1530=CARTESIAN_POINT('',(-0.0543049706625334,-0.0355347753203201,0.));
#1531=CARTESIAN_POINT('',(-0.00266789066253339,-0.0355347753203201,0.));
#1532=CARTESIAN_POINT('',(0.0489691893374666,-0.0355347753203201,0.));
#1533=CARTESIAN_POINT('',(0.0489691893374666,-0.0355347753203201,0.018));
#1534=CARTESIAN_POINT('',(-0.0483049706625334,0.00695022467967995,0.018));
#1535=CARTESIAN_POINT('',(-0.0483049706625334,0.00695022467967995,0.018));
#1536=CARTESIAN_POINT('',(-0.00266789066253339,0.00695022467967996,0.018));
#1537=CARTESIAN_POINT('',(-0.0523049706625334,-0.03153477532032,0.018));
#1538=CARTESIAN_POINT('',(-0.0507549706625334,-0.03153477532032,0.018));
#1539=CARTESIAN_POINT('',(0.0469691893374666,-0.03153477532032,0.018));
#1540=CARTESIAN_POINT('',(0.0485191893374666,-0.03153477532032,0.018));
#1541=CARTESIAN_POINT('',(0.0469691893374666,0.04543522467968,0.018));
#1542=CARTESIAN_POINT('',(0.0485191893374666,0.04543522467968,0.018));
#1543=CARTESIAN_POINT('',(-0.0523049706625334,0.04543522467968,0.018));
#1544=CARTESIAN_POINT('',(-0.0507549706625334,0.04543522467968,0.018));
#1545=CARTESIAN_POINT('',(-0.0543049706625334,0.04743522467968,0.018));
#1546=CARTESIAN_POINT('',(-0.0543049706625334,-0.0335347753203201,0.018));
#1547=CARTESIAN_POINT('',(0.0489691893374666,-0.0335347753203201,0.018));
#1548=CARTESIAN_POINT('',(0.0489691893374666,0.04743522467968,0.018));
#1549=CARTESIAN_POINT('',(-0.00266789066253339,0.00695022467967996,0.));
#1550=CARTESIAN_POINT('',(-0.0543049706625334,0.04743522467968,0.));
#1551=CARTESIAN_POINT('',(0.0489691893374666,0.04743522467968,0.));
#1552=CARTESIAN_POINT('',(0.0489691893374666,-0.0335347753203201,0.));
#1553=CARTESIAN_POINT('',(-0.0543049706625334,-0.0335347753203201,0.));
#1554=CARTESIAN_POINT('',(-0.0523049706625334,0.04543522467968,0.002));
#1555=CARTESIAN_POINT('',(-0.0523049706625334,0.04543522467968,0.00112875210241004));
#1556=CARTESIAN_POINT('',(-0.0523049706625334,0.04543522467968,0.002));
#1557=CARTESIAN_POINT('',(-0.0537549706625334,0.04543522467968,0.002));
#1558=CARTESIAN_POINT('',(-0.0523049706625334,0.04543522467968,0.018));
#1559=CARTESIAN_POINT('',(-0.0523049706625334,0.04543522467968,0.0179));
#1560=CARTESIAN_POINT('',(-0.0508549706625334,0.04543522467968,0.0179));
#1561=CARTESIAN_POINT('',(0.0469691893374666,0.04543522467968,0.002));
#1562=CARTESIAN_POINT('',(0.0469691893374666,0.04543522467968,0.00112875210241004));
#1563=CARTESIAN_POINT('',(0.0469691893374666,0.04543522467968,0.002));
#1564=CARTESIAN_POINT('',(0.0455191893374666,0.04543522467968,0.002));
#1565=CARTESIAN_POINT('',(0.0469691893374666,0.04543522467968,0.018));
#1566=CARTESIAN_POINT('',(0.0469691893374666,0.04543522467968,0.0179));
#1567=CARTESIAN_POINT('',(0.0484191893374666,0.04543522467968,0.0179));
#1568=CARTESIAN_POINT('',(0.0469691893374666,-0.03153477532032,0.002));
#1569=CARTESIAN_POINT('',(0.0469691893374666,-0.03153477532032,0.00112875210241004));
#1570=CARTESIAN_POINT('',(0.0469691893374666,-0.03153477532032,0.002));
#1571=CARTESIAN_POINT('',(0.0455191893374666,-0.03153477532032,0.002));
#1572=CARTESIAN_POINT('',(0.0469691893374666,-0.03153477532032,0.018));
#1573=CARTESIAN_POINT('',(0.0469691893374666,-0.03153477532032,0.0179));
#1574=CARTESIAN_POINT('',(0.0484191893374666,-0.03153477532032,0.0179));
#1575=CARTESIAN_POINT('',(-0.0523049706625334,-0.03153477532032,0.002));
#1576=CARTESIAN_POINT('',(-0.0523049706625334,-0.03153477532032,0.00112875210241004));
#1577=CARTESIAN_POINT('',(-0.0523049706625334,-0.03153477532032,0.002));
#1578=CARTESIAN_POINT('',(-0.0537549706625334,-0.03153477532032,0.002));
#1579=CARTESIAN_POINT('',(-0.0523049706625334,-0.03153477532032,0.018));
#1580=CARTESIAN_POINT('',(-0.0523049706625334,-0.03153477532032,0.0179));
#1581=CARTESIAN_POINT('',(-0.0508549706625334,-0.03153477532032,0.0179));
#1582=CARTESIAN_POINT('',(-0.0523049706625334,-0.03153477532032,0.018));
#1583=CARTESIAN_POINT('',(0.0469691893374666,-0.03153477532032,0.018));
#1584=CARTESIAN_POINT('',(0.0469691893374666,0.04543522467968,0.018));
#1585=CARTESIAN_POINT('',(-0.0523049706625334,0.04543522467968,0.018));
#1586=CARTESIAN_POINT('',(-0.0391815865933639,0.00825375033231937,0.0095));
#1587=CARTESIAN_POINT('',(-0.0391815865933639,0.00825375033231937,0.007));
#1588=CARTESIAN_POINT('',(-0.0391815865933639,0.0342637503323193,0.007));
#1589=CARTESIAN_POINT('',(-0.0391815865933639,-0.0177562496676807,0.007));
#1590=CARTESIAN_POINT('',(-0.0391815865933639,0.0342637503323193,0.0095));
#1591=CARTESIAN_POINT('',(-0.0391815865933639,0.0342637503323193,0.0095));
#1592=CARTESIAN_POINT('',(-0.0391815865933639,0.00825375033231937,0.0095));
#1593=CARTESIAN_POINT('',(-0.0391815865933639,-0.0177562496676807,0.0095));
#1594=CARTESIAN_POINT('',(-0.0391815865933639,-0.0177562496676807,0.0095));
#1595=CARTESIAN_POINT('',(-0.000871586593363914,0.0342637503323194,0.0095));
#1596=CARTESIAN_POINT('',(-0.000871586593363914,0.0342637503323194,0.007));
#1597=CARTESIAN_POINT('',(0.0374384134066361,0.0342637503323194,0.007));
#1598=CARTESIAN_POINT('',(0.0374384134066361,0.0342637503323194,0.0095));
#1599=CARTESIAN_POINT('',(0.0374384134066361,0.0342637503323194,0.0095));
#1600=CARTESIAN_POINT('',(-0.000871586593363914,0.0342637503323194,0.0095));
#1601=CARTESIAN_POINT('',(0.0374384134066361,0.00825375033231938,0.0095));
#1602=CARTESIAN_POINT('',(0.0374384134066361,0.00825375033231938,0.007));
#1603=CARTESIAN_POINT('',(0.0374384134066361,-0.0177562496676807,0.007));
#1604=CARTESIAN_POINT('',(0.0374384134066361,-0.0177562496676807,0.0095));
#1605=CARTESIAN_POINT('',(0.0374384134066361,-0.0177562496676807,0.0095));
#1606=CARTESIAN_POINT('',(0.0374384134066361,0.00825375033231938,0.0095));
#1607=CARTESIAN_POINT('',(-0.000871586593363914,-0.0177562496676807,0.0095));
#1608=CARTESIAN_POINT('',(-0.000871586593363914,-0.0177562496676807,0.007));
#1609=CARTESIAN_POINT('',(-0.000871586593363914,-0.0177562496676807,0.0095));
#1610=CARTESIAN_POINT('',(-0.00266789066253339,0.00695022467967995,0.0095));
#1611=CARTESIAN_POINT('',(-0.000231198627948667,0.0385137503323194,0.0095));
#1612=CARTESIAN_POINT('',(-0.0434315865933639,0.0385137503323194,0.0095));
#1613=CARTESIAN_POINT('',(-0.0434315865933639,0.00825375033231937,0.0095));
#1614=CARTESIAN_POINT('',(-0.0434315865933639,-0.0220062496676806,0.0095));
#1615=CARTESIAN_POINT('',(-0.00023119862794867,-0.0220088892189255,0.0095));
#1616=CARTESIAN_POINT('',(-0.00266789066253339,0.00695022467967996,0.007));
#1617=CARTESIAN_POINT('',(-0.000231198627948667,0.0402637503323194,0.009));
#1618=CARTESIAN_POINT('',(-0.0451815865933639,0.0402637503323194,0.009));
#1619=CARTESIAN_POINT('',(-0.0451815865933639,0.0402637503323194,0.0105));
#1620=CARTESIAN_POINT('',(-0.000231198627948667,0.0402637503323194,0.0105));
#1621=CARTESIAN_POINT('',(-0.0451815865933639,0.0393887503323194,0.009));
#1622=CARTESIAN_POINT('',(-0.0451815865933639,-0.0237562496644045,0.009));
#1623=CARTESIAN_POINT('',(-0.0451815865933639,-0.0237562496644045,0.0105));
#1624=CARTESIAN_POINT('',(-0.0451815865933639,0.0393887503323194,0.0105));
#1625=CARTESIAN_POINT('',(-0.044306640134156,-0.0237562496644045,0.009));
#1626=CARTESIAN_POINT('',(-0.0434316936749481,-0.0237562496644045,0.009));
#1627=CARTESIAN_POINT('',(-0.0434316936749481,-0.0237562496644045,0.0105));
#1628=CARTESIAN_POINT('',(-0.044306640134156,-0.0237562496644045,0.0105));
#1629=CARTESIAN_POINT('',(-0.000231305709538363,-0.0237588892156494,0.009));
#1630=CARTESIAN_POINT('',(-0.000231305709538363,-0.0237588892156494,0.0105));
#1631=CARTESIAN_POINT('',(-0.00023119862794867,-0.0220088892189255,0.0105));
#1632=CARTESIAN_POINT('',(-0.0434315865933639,-0.0220062496676806,0.0105));
#1633=CARTESIAN_POINT('',(-0.0434315865933639,-0.0220062496676806,0.0105));
#1634=CARTESIAN_POINT('',(-0.00023119862794867,-0.0220088892189255,0.0105));
#1635=CARTESIAN_POINT('',(-0.0434315865933639,0.00825375033231937,0.0105));
#1636=CARTESIAN_POINT('',(-0.0434315865933639,0.0385137503323194,0.0105));
#1637=CARTESIAN_POINT('',(-0.0434315865933639,0.0385137503323194,0.0105));
#1638=CARTESIAN_POINT('',(-0.0434315865933639,0.00825375033231937,0.0105));
#1639=CARTESIAN_POINT('',(-0.000231198627948667,0.0385137503323194,0.0105));
#1640=CARTESIAN_POINT('',(-0.000231198627948667,0.0385137503323194,0.0105));
#1641=CARTESIAN_POINT('',(-0.00266789066253339,0.00695022467967995,0.0105));
#1642=CARTESIAN_POINT('',(-0.0026678906625334,0.04793522467968,0.018));
#1643=CARTESIAN_POINT('',(0.0286548194278496,0.04793522467968,0.0161227494118953));
#1644=CARTESIAN_POINT('',(0.0318748194278495,0.04793522467968,0.0161227494118953));
#1645=CARTESIAN_POINT('',(0.0254348194278495,0.04793522467968,0.0161227494118953));
#1646=CARTESIAN_POINT('',(0.0318748194278495,0.04793522467968,0.0138727494118952));
#1647=CARTESIAN_POINT('',(0.0341248194278495,0.04793522467968,0.0138727494118952));
#1648=CARTESIAN_POINT('',(0.0341248194278495,0.04793522467968,0.0135177494118952));
#1649=CARTESIAN_POINT('',(0.0341248194278495,0.04793522467968,0.0131627494118952));
#1650=CARTESIAN_POINT('',(0.0318748194278495,0.04793522467968,0.0131627494118952));
#1651=CARTESIAN_POINT('',(0.0318748194278495,0.04793522467968,0.0109127494118952));
#1652=CARTESIAN_POINT('',(0.0286548194278496,0.04793522467968,0.0109127494118952));
#1653=CARTESIAN_POINT('',(0.0254348194278495,0.04793522467968,0.0109127494118952));
#1654=CARTESIAN_POINT('',(0.0254348194278495,0.04793522467968,0.0131627494118952));
#1655=CARTESIAN_POINT('',(0.0231848194278495,0.0479352246796799,0.0131627494118952));
#1656=CARTESIAN_POINT('',(0.0231848194278495,0.0479352246796799,0.0135177494118952));
#1657=CARTESIAN_POINT('',(0.0231848194278495,0.04793522467968,0.0138727494118952));
#1658=CARTESIAN_POINT('',(0.0254348194278495,0.04793522467968,0.0138727494118952));
#1659=CARTESIAN_POINT('',(0.0333248194278495,0.04793522467968,0.0135177494118952));
#1660=CARTESIAN_POINT('',(0.0333248194278495,0.04793522467968,0.0131627494118952));
#1661=CARTESIAN_POINT('',(0.0333248194278495,0.04793522467968,0.0138727494118952));
#1662=CARTESIAN_POINT('',(0.0318748194278495,0.04793522467968,0.0138727494118952));
#1663=CARTESIAN_POINT('',(0.0318748194278495,0.04793522467968,0.0153227494118952));
#1664=CARTESIAN_POINT('',(0.0286548194278496,0.04793522467968,0.0153227494118952));
#1665=CARTESIAN_POINT('',(0.0254348194278495,0.04793522467968,0.0153227494118952));
#1666=CARTESIAN_POINT('',(0.0254348194278495,0.04793522467968,0.0138727494118952));
#1667=CARTESIAN_POINT('',(0.0239848194278495,0.0479352246796799,0.0138727494118952));
#1668=CARTESIAN_POINT('',(0.0239848194278495,0.0479352246796799,0.0135177494118952));
#1669=CARTESIAN_POINT('',(0.0239848194278495,0.04793522467968,0.0131627494118952));
#1670=CARTESIAN_POINT('',(0.0254348194278495,0.04793522467968,0.0131627494118952));
#1671=CARTESIAN_POINT('',(0.0254348194278495,0.04793522467968,0.0117127494118952));
#1672=CARTESIAN_POINT('',(0.0286548194278496,0.04793522467968,0.0117127494118952));
#1673=CARTESIAN_POINT('',(0.0318748194278495,0.04793522467968,0.0117127494118952));
#1674=CARTESIAN_POINT('',(0.0318748194278495,0.04793522467968,0.0131627494118952));
#1675=CARTESIAN_POINT('',(0.0254348194278496,-0.203882396455652,0.0138727494118952));
#1676=CARTESIAN_POINT('',(0.0231848194278495,-0.203882396455652,0.0138727494118952));
#1677=CARTESIAN_POINT('',(0.0254348194278496,-0.203882396455652,0.0161227494118953));
#1678=CARTESIAN_POINT('',(0.0231848194278496,-0.203882396455652,0.0135177494118952));
#1679=CARTESIAN_POINT('',(0.0231848194278496,-0.203882396455652,0.0131627494118952));
#1680=CARTESIAN_POINT('',(0.0254348194278496,-0.203882396455652,0.0131627494118952));
#1681=CARTESIAN_POINT('',(0.0254348194278496,-0.203882396455652,0.0109127494118952));
#1682=CARTESIAN_POINT('',(0.0286548194278496,-0.203882396455652,0.0109127494118952));
#1683=CARTESIAN_POINT('',(0.0318748194278496,-0.203882396455652,0.0109127494118952));
#1684=CARTESIAN_POINT('',(0.0318748194278496,-0.203882396455652,0.0131627494118952));
#1685=CARTESIAN_POINT('',(0.0341248194278496,-0.203882396455652,0.0131627494118952));
#1686=CARTESIAN_POINT('',(0.0341248194278496,-0.203882396455652,0.0135177494118952));
#1687=CARTESIAN_POINT('',(0.0341248194278496,-0.203882396455652,0.0138727494118952));
#1688=CARTESIAN_POINT('',(0.0318748194278496,-0.203882396455652,0.0138727494118952));
#1689=CARTESIAN_POINT('',(0.0318748194278496,-0.203882396455652,0.0161227494118953));
#1690=CARTESIAN_POINT('',(0.0286548194278496,-0.203882396455652,0.0161227494118953));
#1691=CARTESIAN_POINT('',(0.0254348194278495,0.0414332246796799,0.0138727494118952));
#1692=CARTESIAN_POINT('',(0.0254348194278495,0.0414332246796799,0.0153227494118952));
#1693=CARTESIAN_POINT('',(0.0239848194278495,0.0414332246796799,0.0138727494118952));
#1694=CARTESIAN_POINT('',(0.0239848194278495,0.0414332246796799,0.0135177494118952));
#1695=CARTESIAN_POINT('',(0.0239848194278495,0.0414332246796799,0.0131627494118952));
#1696=CARTESIAN_POINT('',(0.0254348194278495,0.0414332246796799,0.0131627494118952));
#1697=CARTESIAN_POINT('',(0.0254348194278495,0.0414332246796799,0.0117127494118952));
#1698=CARTESIAN_POINT('',(0.0286548194278495,0.0414332246796799,0.0117127494118952));
#1699=CARTESIAN_POINT('',(0.0318748194278495,0.0414332246796799,0.0117127494118952));
#1700=CARTESIAN_POINT('',(0.0318748194278495,0.0414332246796799,0.0131627494118952));
#1701=CARTESIAN_POINT('',(0.0333248194278495,0.0414332246796799,0.0131627494118952));
#1702=CARTESIAN_POINT('',(0.0333248194278495,0.0414332246796799,0.0135177494118952));
#1703=CARTESIAN_POINT('',(0.0333248194278495,0.0414332246796799,0.0138727494118952));
#1704=CARTESIAN_POINT('',(0.0318748194278495,0.0414332246796799,0.0138727494118952));
#1705=CARTESIAN_POINT('',(0.0318748194278495,0.0414332246796799,0.0153227494118952));
#1706=CARTESIAN_POINT('',(0.0286548194278495,0.0414332246796799,0.0153227494118952));
#1707=CARTESIAN_POINT('',(-0.0543049706625334,0.04743522467968,0.018));
#1708=CARTESIAN_POINT('',(0.0489691893374666,0.04743522467968,0.018));
#1709=CARTESIAN_POINT('',(-0.0543049706625334,-0.0335347753203201,0.018));
#1710=CARTESIAN_POINT('',(0.0489691893374666,-0.0335347753203201,0.018));
#1711=MECHANICAL_DESIGN_GEOMETRIC_PRESENTATION_REPRESENTATION('',(#1024),
#1712);
#1712=(
GEOMETRIC_REPRESENTATION_CONTEXT(3)
GLOBAL_UNCERTAINTY_ASSIGNED_CONTEXT((#1713))
GLOBAL_UNIT_ASSIGNED_CONTEXT((#1716,#1715,#1714))
REPRESENTATION_CONTEXT('Part 1','TOP_LEVEL_ASSEMBLY_PART')
);
#1713=UNCERTAINTY_MEASURE_WITH_UNIT(LENGTH_MEASURE(2.1E-5),#1716,
'DISTANCE_ACCURACY_VALUE','Maximum Tolerance applied to model');
#1714=(
NAMED_UNIT(*)
SI_UNIT($,.STERADIAN.)
SOLID_ANGLE_UNIT()
);
#1715=(
NAMED_UNIT(*)
PLANE_ANGLE_UNIT()
SI_UNIT($,.RADIAN.)
);
#1716=(
LENGTH_UNIT()
NAMED_UNIT(*)
SI_UNIT($,.METRE.)
);
#1717=PRODUCT_DEFINITION_SHAPE('','',#1718);
#1718=PRODUCT_DEFINITION('','',#1720,#1719);
#1719=PRODUCT_DEFINITION_CONTEXT('',#1726,'design');
#1720=PRODUCT_DEFINITION_FORMATION_WITH_SPECIFIED_SOURCE('','',#1722,
 .NOT_KNOWN.);
#1721=PRODUCT_RELATED_PRODUCT_CATEGORY('','',(#1722));
#1722=PRODUCT('Part 1','Part 1','Part 1',(#1724));
#1723=PRODUCT_CATEGORY('','');
#1724=PRODUCT_CONTEXT('',#1726,'mechanical');
#1725=APPLICATION_PROTOCOL_DEFINITION('international standard',
'ap242_managed_model_based_3d_engineering',2020,#1726);
#1726=APPLICATION_CONTEXT('managed model based 3d engineering');
ENDSEC;
END-ISO-10303-21;
