ISO-10303-21;
HEADER;
/* Generated by software containing ST-Developer
 * from STEP Tools, Inc. (www.steptools.com) 
 */
/* OPTION: using custom renumber hook */

FILE_DESCRIPTION(
/* description */ ('STEP AP242 Edition 2',
'CAx-IF Rec.Pracs.---Representation and Presentation of Product Manufa
cturing Information (PMI)---4.0---2014-10-13',
'CAx-IF Rec.Pracs.---3D Tessellated Geometry---0.4---2014-09-14','2;1',
'CAx-IF Rec.Pracs.---User Defined Attributes---1.5---2016-08-15'),
/* implementation_level */ '2;1');

FILE_NAME(
/* name */ 'Case',
/* time_stamp */ '2026-08-16T07:48:45Z',
/* author */ (''),
/* organization */ (''),
/* preprocessor_version */ 'ST-DEVELOPER v20',
/* originating_system */ 'ONSHAPE BY PTC INC, 1.219',
/* authorisation */ '  ');

FILE_SCHEMA (('AP242_MANAGED_MODEL_BASED_3D_ENGINEERING_MIM_LF { 1 0 10303 442 3 1 4 }'));
ENDSEC;

DATA;
#10=SHAPE_REPRESENTATION_RELATIONSHIP('','',#843,#11);
#11=ADVANCED_BREP_SHAPE_REPRESENTATION('',(#841),#1373);
#12=CYLINDRICAL_SURFACE('',#872,0.0013);
#13=CYLINDRICAL_SURFACE('',#876,0.0013);
#14=CYLINDRICAL_SURFACE('',#880,0.0013);
#15=CYLINDRICAL_SURFACE('',#884,0.0013);
#16=CYLINDRICAL_SURFACE('',#896,0.002);
#17=CYLINDRICAL_SURFACE('',#897,0.002);
#18=CYLINDRICAL_SURFACE('',#898,0.002);
#19=CYLINDRICAL_SURFACE('',#899,0.002);
#20=VERTEX_LOOP('',#408);
#21=VERTEX_LOOP('',#411);
#22=VERTEX_LOOP('',#414);
#23=VERTEX_LOOP('',#417);
#24=CONICAL_SURFACE('',#870,0.0013,1.02974425867665);
#25=CONICAL_SURFACE('',#874,0.0013,1.02974425867665);
#26=CONICAL_SURFACE('',#878,0.0013,1.02974425867665);
#27=CONICAL_SURFACE('',#882,0.0013,1.02974425867665);
#28=CONICAL_SURFACE('',#886,0.0018,0.785398163397448);
#29=CONICAL_SURFACE('',#887,0.0018,0.785398163397448);
#30=CONICAL_SURFACE('',#888,0.0018,0.785398163397448);
#31=CONICAL_SURFACE('',#889,0.0018,0.785398163397448);
#32=CIRCLE('',#857,0.002);
#33=CIRCLE('',#858,0.002);
#34=CIRCLE('',#859,0.002);
#35=CIRCLE('',#860,0.002);
#36=CIRCLE('',#861,0.0018);
#37=CIRCLE('',#862,0.0018);
#38=CIRCLE('',#863,0.0018);
#39=CIRCLE('',#864,0.0018);
#40=CIRCLE('',#866,0.002);
#41=CIRCLE('',#867,0.002);
#42=CIRCLE('',#868,0.002);
#43=CIRCLE('',#869,0.002);
#44=CIRCLE('',#871,0.0013);
#45=CIRCLE('',#873,0.0013);
#46=CIRCLE('',#875,0.0013);
#47=CIRCLE('',#877,0.0013);
#48=CIRCLE('',#879,0.0013);
#49=CIRCLE('',#881,0.0013);
#50=CIRCLE('',#883,0.0013);
#51=CIRCLE('',#885,0.0013);
#52=ORIENTED_EDGE('',*,*,#260,.F.);
#53=ORIENTED_EDGE('',*,*,#261,.F.);
#54=ORIENTED_EDGE('',*,*,#262,.F.);
#55=ORIENTED_EDGE('',*,*,#263,.T.);
#56=ORIENTED_EDGE('',*,*,#264,.F.);
#57=ORIENTED_EDGE('',*,*,#265,.F.);
#58=ORIENTED_EDGE('',*,*,#266,.F.);
#59=ORIENTED_EDGE('',*,*,#267,.F.);
#60=ORIENTED_EDGE('',*,*,#268,.T.);
#61=ORIENTED_EDGE('',*,*,#269,.T.);
#62=ORIENTED_EDGE('',*,*,#270,.F.);
#63=ORIENTED_EDGE('',*,*,#271,.F.);
#64=ORIENTED_EDGE('',*,*,#272,.T.);
#65=ORIENTED_EDGE('',*,*,#273,.T.);
#66=ORIENTED_EDGE('',*,*,#274,.F.);
#67=ORIENTED_EDGE('',*,*,#275,.T.);
#68=ORIENTED_EDGE('',*,*,#276,.T.);
#69=ORIENTED_EDGE('',*,*,#260,.T.);
#70=ORIENTED_EDGE('',*,*,#277,.F.);
#71=ORIENTED_EDGE('',*,*,#278,.F.);
#72=ORIENTED_EDGE('',*,*,#263,.F.);
#73=ORIENTED_EDGE('',*,*,#279,.F.);
#74=ORIENTED_EDGE('',*,*,#280,.T.);
#75=ORIENTED_EDGE('',*,*,#277,.T.);
#76=ORIENTED_EDGE('',*,*,#279,.T.);
#77=ORIENTED_EDGE('',*,*,#262,.T.);
#78=ORIENTED_EDGE('',*,*,#281,.F.);
#79=ORIENTED_EDGE('',*,*,#282,.F.);
#80=ORIENTED_EDGE('',*,*,#261,.T.);
#81=ORIENTED_EDGE('',*,*,#276,.F.);
#82=ORIENTED_EDGE('',*,*,#283,.F.);
#83=ORIENTED_EDGE('',*,*,#281,.T.);
#84=ORIENTED_EDGE('',*,*,#271,.T.);
#85=ORIENTED_EDGE('',*,*,#284,.F.);
#86=ORIENTED_EDGE('',*,*,#275,.F.);
#87=ORIENTED_EDGE('',*,*,#285,.T.);
#88=ORIENTED_EDGE('',*,*,#286,.T.);
#89=ORIENTED_EDGE('',*,*,#287,.T.);
#90=ORIENTED_EDGE('',*,*,#288,.F.);
#91=ORIENTED_EDGE('',*,*,#289,.T.);
#92=ORIENTED_EDGE('',*,*,#290,.F.);
#93=ORIENTED_EDGE('',*,*,#291,.T.);
#94=ORIENTED_EDGE('',*,*,#292,.T.);
#95=ORIENTED_EDGE('',*,*,#293,.T.);
#96=ORIENTED_EDGE('',*,*,#294,.F.);
#97=ORIENTED_EDGE('',*,*,#295,.T.);
#98=ORIENTED_EDGE('',*,*,#296,.T.);
#99=ORIENTED_EDGE('',*,*,#297,.T.);
#100=ORIENTED_EDGE('',*,*,#298,.T.);
#101=ORIENTED_EDGE('',*,*,#299,.T.);
#102=ORIENTED_EDGE('',*,*,#300,.T.);
#103=ORIENTED_EDGE('',*,*,#301,.T.);
#104=ORIENTED_EDGE('',*,*,#302,.F.);
#105=ORIENTED_EDGE('',*,*,#303,.T.);
#106=ORIENTED_EDGE('',*,*,#304,.T.);
#107=ORIENTED_EDGE('',*,*,#305,.T.);
#108=ORIENTED_EDGE('',*,*,#304,.F.);
#109=ORIENTED_EDGE('',*,*,#306,.T.);
#110=ORIENTED_EDGE('',*,*,#286,.F.);
#111=ORIENTED_EDGE('',*,*,#307,.T.);
#112=ORIENTED_EDGE('',*,*,#290,.T.);
#113=ORIENTED_EDGE('',*,*,#308,.T.);
#114=ORIENTED_EDGE('',*,*,#296,.F.);
#115=ORIENTED_EDGE('',*,*,#309,.T.);
#116=ORIENTED_EDGE('',*,*,#310,.T.);
#117=ORIENTED_EDGE('',*,*,#311,.T.);
#118=ORIENTED_EDGE('',*,*,#312,.T.);
#119=ORIENTED_EDGE('',*,*,#313,.T.);
#120=ORIENTED_EDGE('',*,*,#282,.T.);
#121=ORIENTED_EDGE('',*,*,#283,.T.);
#122=ORIENTED_EDGE('',*,*,#278,.T.);
#123=ORIENTED_EDGE('',*,*,#280,.F.);
#124=ORIENTED_EDGE('',*,*,#288,.T.);
#125=ORIENTED_EDGE('',*,*,#314,.T.);
#126=ORIENTED_EDGE('',*,*,#302,.T.);
#127=ORIENTED_EDGE('',*,*,#315,.T.);
#128=ORIENTED_EDGE('',*,*,#294,.T.);
#129=ORIENTED_EDGE('',*,*,#316,.T.);
#130=ORIENTED_EDGE('',*,*,#292,.F.);
#131=ORIENTED_EDGE('',*,*,#317,.T.);
#132=ORIENTED_EDGE('',*,*,#318,.F.);
#133=ORIENTED_EDGE('',*,*,#319,.T.);
#134=ORIENTED_EDGE('',*,*,#318,.T.);
#135=ORIENTED_EDGE('',*,*,#320,.F.);
#136=ORIENTED_EDGE('',*,*,#321,.T.);
#137=ORIENTED_EDGE('',*,*,#320,.T.);
#138=ORIENTED_EDGE('',*,*,#322,.F.);
#139=ORIENTED_EDGE('',*,*,#323,.T.);
#140=ORIENTED_EDGE('',*,*,#322,.T.);
#141=ORIENTED_EDGE('',*,*,#324,.F.);
#142=ORIENTED_EDGE('',*,*,#325,.T.);
#143=ORIENTED_EDGE('',*,*,#324,.T.);
#144=ORIENTED_EDGE('',*,*,#325,.F.);
#145=ORIENTED_EDGE('',*,*,#310,.F.);
#146=ORIENTED_EDGE('',*,*,#323,.F.);
#147=ORIENTED_EDGE('',*,*,#311,.F.);
#148=ORIENTED_EDGE('',*,*,#321,.F.);
#149=ORIENTED_EDGE('',*,*,#312,.F.);
#150=ORIENTED_EDGE('',*,*,#319,.F.);
#151=ORIENTED_EDGE('',*,*,#313,.F.);
#152=ORIENTED_EDGE('',*,*,#274,.T.);
#153=ORIENTED_EDGE('',*,*,#326,.T.);
#154=ORIENTED_EDGE('',*,*,#268,.F.);
#155=ORIENTED_EDGE('',*,*,#285,.F.);
#156=ORIENTED_EDGE('',*,*,#270,.T.);
#157=ORIENTED_EDGE('',*,*,#327,.T.);
#158=ORIENTED_EDGE('',*,*,#272,.F.);
#159=ORIENTED_EDGE('',*,*,#284,.T.);
#160=ORIENTED_EDGE('',*,*,#328,.F.);
#161=ORIENTED_EDGE('',*,*,#301,.F.);
#162=ORIENTED_EDGE('',*,*,#329,.F.);
#163=ORIENTED_EDGE('',*,*,#273,.F.);
#164=ORIENTED_EDGE('',*,*,#329,.T.);
#165=ORIENTED_EDGE('',*,*,#300,.F.);
#166=ORIENTED_EDGE('',*,*,#330,.F.);
#167=ORIENTED_EDGE('',*,*,#326,.F.);
#168=ORIENTED_EDGE('',*,*,#328,.T.);
#169=ORIENTED_EDGE('',*,*,#327,.F.);
#170=ORIENTED_EDGE('',*,*,#331,.F.);
#171=ORIENTED_EDGE('',*,*,#298,.F.);
#172=ORIENTED_EDGE('',*,*,#330,.T.);
#173=ORIENTED_EDGE('',*,*,#299,.F.);
#174=ORIENTED_EDGE('',*,*,#331,.T.);
#175=ORIENTED_EDGE('',*,*,#269,.F.);
#176=ORIENTED_EDGE('',*,*,#306,.F.);
#177=ORIENTED_EDGE('',*,*,#303,.F.);
#178=ORIENTED_EDGE('',*,*,#314,.F.);
#179=ORIENTED_EDGE('',*,*,#287,.F.);
#180=ORIENTED_EDGE('',*,*,#309,.F.);
#181=ORIENTED_EDGE('',*,*,#295,.F.);
#182=ORIENTED_EDGE('',*,*,#315,.F.);
#183=ORIENTED_EDGE('',*,*,#305,.F.);
#184=ORIENTED_EDGE('',*,*,#307,.F.);
#185=ORIENTED_EDGE('',*,*,#289,.F.);
#186=ORIENTED_EDGE('',*,*,#317,.F.);
#187=ORIENTED_EDGE('',*,*,#291,.F.);
#188=ORIENTED_EDGE('',*,*,#308,.F.);
#189=ORIENTED_EDGE('',*,*,#293,.F.);
#190=ORIENTED_EDGE('',*,*,#316,.F.);
#191=ORIENTED_EDGE('',*,*,#297,.F.);
#192=ORIENTED_EDGE('',*,*,#332,.T.);
#193=ORIENTED_EDGE('',*,*,#265,.T.);
#194=ORIENTED_EDGE('',*,*,#333,.F.);
#195=ORIENTED_EDGE('',*,*,#334,.F.);
#196=ORIENTED_EDGE('',*,*,#333,.T.);
#197=ORIENTED_EDGE('',*,*,#264,.T.);
#198=ORIENTED_EDGE('',*,*,#335,.F.);
#199=ORIENTED_EDGE('',*,*,#336,.F.);
#200=ORIENTED_EDGE('',*,*,#335,.T.);
#201=ORIENTED_EDGE('',*,*,#267,.T.);
#202=ORIENTED_EDGE('',*,*,#337,.F.);
#203=ORIENTED_EDGE('',*,*,#338,.F.);
#204=ORIENTED_EDGE('',*,*,#339,.F.);
#205=ORIENTED_EDGE('',*,*,#340,.F.);
#206=ORIENTED_EDGE('',*,*,#341,.T.);
#207=ORIENTED_EDGE('',*,*,#342,.T.);
#208=ORIENTED_EDGE('',*,*,#343,.F.);
#209=ORIENTED_EDGE('',*,*,#344,.F.);
#210=ORIENTED_EDGE('',*,*,#345,.T.);
#211=ORIENTED_EDGE('',*,*,#340,.T.);
#212=ORIENTED_EDGE('',*,*,#346,.F.);
#213=ORIENTED_EDGE('',*,*,#347,.F.);
#214=ORIENTED_EDGE('',*,*,#348,.T.);
#215=ORIENTED_EDGE('',*,*,#344,.T.);
#216=ORIENTED_EDGE('',*,*,#349,.F.);
#217=ORIENTED_EDGE('',*,*,#342,.F.);
#218=ORIENTED_EDGE('',*,*,#350,.T.);
#219=ORIENTED_EDGE('',*,*,#347,.T.);
#220=ORIENTED_EDGE('',*,*,#337,.T.);
#221=ORIENTED_EDGE('',*,*,#266,.T.);
#222=ORIENTED_EDGE('',*,*,#332,.F.);
#223=ORIENTED_EDGE('',*,*,#351,.F.);
#224=ORIENTED_EDGE('',*,*,#341,.F.);
#225=ORIENTED_EDGE('',*,*,#345,.F.);
#226=ORIENTED_EDGE('',*,*,#348,.F.);
#227=ORIENTED_EDGE('',*,*,#350,.F.);
#228=ORIENTED_EDGE('',*,*,#334,.T.);
#229=ORIENTED_EDGE('',*,*,#336,.T.);
#230=ORIENTED_EDGE('',*,*,#338,.T.);
#231=ORIENTED_EDGE('',*,*,#351,.T.);
#232=ORIENTED_EDGE('',*,*,#352,.F.);
#233=ORIENTED_EDGE('',*,*,#353,.F.);
#234=ORIENTED_EDGE('',*,*,#354,.T.);
#235=ORIENTED_EDGE('',*,*,#355,.T.);
#236=ORIENTED_EDGE('',*,*,#356,.F.);
#237=ORIENTED_EDGE('',*,*,#357,.F.);
#238=ORIENTED_EDGE('',*,*,#358,.T.);
#239=ORIENTED_EDGE('',*,*,#353,.T.);
#240=ORIENTED_EDGE('',*,*,#359,.F.);
#241=ORIENTED_EDGE('',*,*,#360,.F.);
#242=ORIENTED_EDGE('',*,*,#361,.T.);
#243=ORIENTED_EDGE('',*,*,#357,.T.);
#244=ORIENTED_EDGE('',*,*,#362,.F.);
#245=ORIENTED_EDGE('',*,*,#355,.F.);
#246=ORIENTED_EDGE('',*,*,#363,.T.);
#247=ORIENTED_EDGE('',*,*,#360,.T.);
#248=ORIENTED_EDGE('',*,*,#354,.F.);
#249=ORIENTED_EDGE('',*,*,#358,.F.);
#250=ORIENTED_EDGE('',*,*,#361,.F.);
#251=ORIENTED_EDGE('',*,*,#363,.F.);
#252=ORIENTED_EDGE('',*,*,#343,.T.);
#253=ORIENTED_EDGE('',*,*,#339,.T.);
#254=ORIENTED_EDGE('',*,*,#349,.T.);
#255=ORIENTED_EDGE('',*,*,#346,.T.);
#256=ORIENTED_EDGE('',*,*,#352,.T.);
#257=ORIENTED_EDGE('',*,*,#362,.T.);
#258=ORIENTED_EDGE('',*,*,#359,.T.);
#259=ORIENTED_EDGE('',*,*,#356,.T.);
#260=EDGE_CURVE('',#364,#365,#440,.T.);
#261=EDGE_CURVE('',#366,#364,#441,.T.);
#262=EDGE_CURVE('',#367,#366,#442,.T.);
#263=EDGE_CURVE('',#367,#365,#443,.T.);
#264=EDGE_CURVE('',#368,#369,#444,.T.);
#265=EDGE_CURVE('',#370,#368,#445,.T.);
#266=EDGE_CURVE('',#371,#370,#446,.T.);
#267=EDGE_CURVE('',#369,#371,#447,.T.);
#268=EDGE_CURVE('',#372,#373,#448,.T.);
#269=EDGE_CURVE('',#373,#374,#449,.T.);
#270=EDGE_CURVE('',#375,#374,#450,.T.);
#271=EDGE_CURVE('',#372,#375,#451,.T.);
#272=EDGE_CURVE('',#376,#377,#452,.T.);
#273=EDGE_CURVE('',#377,#378,#453,.T.);
#274=EDGE_CURVE('',#379,#378,#454,.T.);
#275=EDGE_CURVE('',#379,#376,#455,.T.);
#276=EDGE_CURVE('',#380,#364,#456,.T.);
#277=EDGE_CURVE('',#381,#365,#457,.T.);
#278=EDGE_CURVE('',#380,#381,#458,.T.);
#279=EDGE_CURVE('',#382,#367,#459,.T.);
#280=EDGE_CURVE('',#382,#381,#460,.T.);
#281=EDGE_CURVE('',#383,#366,#461,.T.);
#282=EDGE_CURVE('',#382,#383,#462,.T.);
#283=EDGE_CURVE('',#383,#380,#463,.T.);
#284=EDGE_CURVE('',#376,#375,#464,.T.);
#285=EDGE_CURVE('',#379,#372,#465,.T.);
#286=EDGE_CURVE('',#384,#385,#466,.T.);
#287=EDGE_CURVE('',#385,#386,#467,.T.);
#288=EDGE_CURVE('',#387,#386,#468,.T.);
#289=EDGE_CURVE('',#387,#384,#469,.F.);
#290=EDGE_CURVE('',#388,#389,#470,.T.);
#291=EDGE_CURVE('',#388,#390,#471,.T.);
#292=EDGE_CURVE('',#390,#391,#472,.T.);
#293=EDGE_CURVE('',#391,#389,#473,.F.);
#294=EDGE_CURVE('',#392,#393,#474,.T.);
#295=EDGE_CURVE('',#392,#394,#475,.F.);
#296=EDGE_CURVE('',#394,#395,#476,.T.);
#297=EDGE_CURVE('',#395,#393,#477,.T.);
#298=EDGE_CURVE('',#396,#397,#478,.T.);
#299=EDGE_CURVE('',#397,#398,#479,.T.);
#300=EDGE_CURVE('',#398,#399,#480,.T.);
#301=EDGE_CURVE('',#399,#396,#481,.T.);
#302=EDGE_CURVE('',#400,#401,#482,.T.);
#303=EDGE_CURVE('',#400,#402,#483,.F.);
#304=EDGE_CURVE('',#402,#403,#484,.T.);
#305=EDGE_CURVE('',#403,#401,#485,.T.);
#306=EDGE_CURVE('',#402,#385,#32,.T.);
#307=EDGE_CURVE('',#384,#388,#33,.T.);
#308=EDGE_CURVE('',#389,#395,#34,.T.);
#309=EDGE_CURVE('',#394,#403,#35,.T.);
#310=EDGE_CURVE('',#404,#404,#36,.F.);
#311=EDGE_CURVE('',#405,#405,#37,.F.);
#312=EDGE_CURVE('',#406,#406,#38,.F.);
#313=EDGE_CURVE('',#407,#407,#39,.F.);
#314=EDGE_CURVE('',#386,#400,#40,.F.);
#315=EDGE_CURVE('',#401,#392,#41,.F.);
#316=EDGE_CURVE('',#393,#391,#42,.F.);
#317=EDGE_CURVE('',#390,#387,#43,.F.);
#318=EDGE_CURVE('',#409,#409,#44,.T.);
#319=EDGE_CURVE('',#410,#410,#45,.T.);
#320=EDGE_CURVE('',#412,#412,#46,.T.);
#321=EDGE_CURVE('',#413,#413,#47,.T.);
#322=EDGE_CURVE('',#415,#415,#48,.T.);
#323=EDGE_CURVE('',#416,#416,#49,.T.);
#324=EDGE_CURVE('',#418,#418,#50,.T.);
#325=EDGE_CURVE('',#419,#419,#51,.T.);
#326=EDGE_CURVE('',#378,#373,#486,.T.);
#327=EDGE_CURVE('',#374,#377,#487,.T.);
#328=EDGE_CURVE('',#396,#377,#488,.F.);
#329=EDGE_CURVE('',#378,#399,#489,.F.);
#330=EDGE_CURVE('',#373,#398,#490,.T.);
#331=EDGE_CURVE('',#397,#374,#491,.F.);
#332=EDGE_CURVE('',#420,#370,#492,.T.);
#333=EDGE_CURVE('',#421,#368,#493,.T.);
#334=EDGE_CURVE('',#420,#421,#494,.T.);
#335=EDGE_CURVE('',#422,#369,#495,.T.);
#336=EDGE_CURVE('',#421,#422,#496,.T.);
#337=EDGE_CURVE('',#423,#371,#497,.T.);
#338=EDGE_CURVE('',#422,#423,#498,.T.);
#339=EDGE_CURVE('',#424,#425,#499,.T.);
#340=EDGE_CURVE('',#426,#424,#500,.T.);
#341=EDGE_CURVE('',#426,#427,#501,.T.);
#342=EDGE_CURVE('',#427,#425,#502,.T.);
#343=EDGE_CURVE('',#428,#424,#503,.T.);
#344=EDGE_CURVE('',#429,#428,#504,.T.);
#345=EDGE_CURVE('',#429,#426,#505,.T.);
#346=EDGE_CURVE('',#430,#428,#506,.T.);
#347=EDGE_CURVE('',#431,#430,#507,.T.);
#348=EDGE_CURVE('',#431,#429,#508,.T.);
#349=EDGE_CURVE('',#425,#430,#509,.T.);
#350=EDGE_CURVE('',#427,#431,#510,.T.);
#351=EDGE_CURVE('',#423,#420,#511,.T.);
#352=EDGE_CURVE('',#432,#433,#512,.T.);
#353=EDGE_CURVE('',#434,#432,#513,.T.);
#354=EDGE_CURVE('',#434,#435,#514,.T.);
#355=EDGE_CURVE('',#435,#433,#515,.T.);
#356=EDGE_CURVE('',#436,#432,#516,.T.);
#357=EDGE_CURVE('',#437,#436,#517,.T.);
#358=EDGE_CURVE('',#437,#434,#518,.T.);
#359=EDGE_CURVE('',#438,#436,#519,.T.);
#360=EDGE_CURVE('',#439,#438,#520,.T.);
#361=EDGE_CURVE('',#439,#437,#521,.T.);
#362=EDGE_CURVE('',#433,#438,#522,.T.);
#363=EDGE_CURVE('',#435,#439,#523,.T.);
#364=VERTEX_POINT('',#1144);
#365=VERTEX_POINT('',#1145);
#366=VERTEX_POINT('',#1147);
#367=VERTEX_POINT('',#1149);
#368=VERTEX_POINT('',#1152);
#369=VERTEX_POINT('',#1153);
#370=VERTEX_POINT('',#1155);
#371=VERTEX_POINT('',#1157);
#372=VERTEX_POINT('',#1161);
#373=VERTEX_POINT('',#1162);
#374=VERTEX_POINT('',#1164);
#375=VERTEX_POINT('',#1166);
#376=VERTEX_POINT('',#1170);
#377=VERTEX_POINT('',#1171);
#378=VERTEX_POINT('',#1173);
#379=VERTEX_POINT('',#1175);
#380=VERTEX_POINT('',#1179);
#381=VERTEX_POINT('',#1181);
#382=VERTEX_POINT('',#1185);
#383=VERTEX_POINT('',#1189);
#384=VERTEX_POINT('',#1197);
#385=VERTEX_POINT('',#1198);
#386=VERTEX_POINT('',#1200);
#387=VERTEX_POINT('',#1202);
#388=VERTEX_POINT('',#1206);
#389=VERTEX_POINT('',#1207);
#390=VERTEX_POINT('',#1209);
#391=VERTEX_POINT('',#1211);
#392=VERTEX_POINT('',#1215);
#393=VERTEX_POINT('',#1216);
#394=VERTEX_POINT('',#1218);
#395=VERTEX_POINT('',#1220);
#396=VERTEX_POINT('',#1224);
#397=VERTEX_POINT('',#1225);
#398=VERTEX_POINT('',#1227);
#399=VERTEX_POINT('',#1229);
#400=VERTEX_POINT('',#1232);
#401=VERTEX_POINT('',#1233);
#402=VERTEX_POINT('',#1235);
#403=VERTEX_POINT('',#1237);
#404=VERTEX_POINT('',#1245);
#405=VERTEX_POINT('',#1247);
#406=VERTEX_POINT('',#1249);
#407=VERTEX_POINT('',#1251);
#408=VERTEX_POINT('',#1258);
#409=VERTEX_POINT('',#1260);
#410=VERTEX_POINT('',#1263);
#411=VERTEX_POINT('',#1265);
#412=VERTEX_POINT('',#1267);
#413=VERTEX_POINT('',#1270);
#414=VERTEX_POINT('',#1272);
#415=VERTEX_POINT('',#1274);
#416=VERTEX_POINT('',#1277);
#417=VERTEX_POINT('',#1279);
#418=VERTEX_POINT('',#1281);
#419=VERTEX_POINT('',#1284);
#420=VERTEX_POINT('',#1307);
#421=VERTEX_POINT('',#1309);
#422=VERTEX_POINT('',#1313);
#423=VERTEX_POINT('',#1317);
#424=VERTEX_POINT('',#1321);
#425=VERTEX_POINT('',#1322);
#426=VERTEX_POINT('',#1324);
#427=VERTEX_POINT('',#1326);
#428=VERTEX_POINT('',#1330);
#429=VERTEX_POINT('',#1332);
#430=VERTEX_POINT('',#1336);
#431=VERTEX_POINT('',#1338);
#432=VERTEX_POINT('',#1348);
#433=VERTEX_POINT('',#1349);
#434=VERTEX_POINT('',#1351);
#435=VERTEX_POINT('',#1353);
#436=VERTEX_POINT('',#1357);
#437=VERTEX_POINT('',#1359);
#438=VERTEX_POINT('',#1363);
#439=VERTEX_POINT('',#1365);
#440=LINE('',#1143,#524);
#441=LINE('',#1146,#525);
#442=LINE('',#1148,#526);
#443=LINE('',#1150,#527);
#444=LINE('',#1151,#528);
#445=LINE('',#1154,#529);
#446=LINE('',#1156,#530);
#447=LINE('',#1158,#531);
#448=LINE('',#1160,#532);
#449=LINE('',#1163,#533);
#450=LINE('',#1165,#534);
#451=LINE('',#1167,#535);
#452=LINE('',#1169,#536);
#453=LINE('',#1172,#537);
#454=LINE('',#1174,#538);
#455=LINE('',#1176,#539);
#456=LINE('',#1178,#540);
#457=LINE('',#1180,#541);
#458=LINE('',#1182,#542);
#459=LINE('',#1184,#543);
#460=LINE('',#1186,#544);
#461=LINE('',#1188,#545);
#462=LINE('',#1190,#546);
#463=LINE('',#1192,#547);
#464=LINE('',#1193,#548);
#465=LINE('',#1194,#549);
#466=LINE('',#1196,#550);
#467=LINE('',#1199,#551);
#468=LINE('',#1201,#552);
#469=LINE('',#1203,#553);
#470=LINE('',#1205,#554);
#471=LINE('',#1208,#555);
#472=LINE('',#1210,#556);
#473=LINE('',#1212,#557);
#474=LINE('',#1214,#558);
#475=LINE('',#1217,#559);
#476=LINE('',#1219,#560);
#477=LINE('',#1221,#561);
#478=LINE('',#1223,#562);
#479=LINE('',#1226,#563);
#480=LINE('',#1228,#564);
#481=LINE('',#1230,#565);
#482=LINE('',#1231,#566);
#483=LINE('',#1234,#567);
#484=LINE('',#1236,#568);
#485=LINE('',#1238,#569);
#486=LINE('',#1290,#570);
#487=LINE('',#1292,#571);
#488=LINE('',#1294,#572);
#489=LINE('',#1295,#573);
#490=LINE('',#1297,#574);
#491=LINE('',#1299,#575);
#492=LINE('',#1306,#576);
#493=LINE('',#1308,#577);
#494=LINE('',#1310,#578);
#495=LINE('',#1312,#579);
#496=LINE('',#1314,#580);
#497=LINE('',#1316,#581);
#498=LINE('',#1318,#582);
#499=LINE('',#1320,#583);
#500=LINE('',#1323,#584);
#501=LINE('',#1325,#585);
#502=LINE('',#1327,#586);
#503=LINE('',#1329,#587);
#504=LINE('',#1331,#588);
#505=LINE('',#1333,#589);
#506=LINE('',#1335,#590);
#507=LINE('',#1337,#591);
#508=LINE('',#1339,#592);
#509=LINE('',#1341,#593);
#510=LINE('',#1342,#594);
#511=LINE('',#1344,#595);
#512=LINE('',#1347,#596);
#513=LINE('',#1350,#597);
#514=LINE('',#1352,#598);
#515=LINE('',#1354,#599);
#516=LINE('',#1356,#600);
#517=LINE('',#1358,#601);
#518=LINE('',#1360,#602);
#519=LINE('',#1362,#603);
#520=LINE('',#1364,#604);
#521=LINE('',#1366,#605);
#522=LINE('',#1368,#606);
#523=LINE('',#1369,#607);
#524=VECTOR('',#919,1.);
#525=VECTOR('',#920,1.);
#526=VECTOR('',#921,1.);
#527=VECTOR('',#922,1.);
#528=VECTOR('',#923,1.);
#529=VECTOR('',#924,1.);
#530=VECTOR('',#925,1.);
#531=VECTOR('',#926,1.);
#532=VECTOR('',#929,1.);
#533=VECTOR('',#930,1.);
#534=VECTOR('',#931,1.);
#535=VECTOR('',#932,1.);
#536=VECTOR('',#935,1.);
#537=VECTOR('',#936,1.);
#538=VECTOR('',#937,1.);
#539=VECTOR('',#938,1.);
#540=VECTOR('',#941,1.);
#541=VECTOR('',#942,1.);
#542=VECTOR('',#943,1.);
#543=VECTOR('',#946,1.);
#544=VECTOR('',#947,1.);
#545=VECTOR('',#950,1.);
#546=VECTOR('',#951,1.);
#547=VECTOR('',#954,1.);
#548=VECTOR('',#955,1.);
#549=VECTOR('',#956,1.);
#550=VECTOR('',#959,1.);
#551=VECTOR('',#960,1.);
#552=VECTOR('',#961,1.);
#553=VECTOR('',#962,1.);
#554=VECTOR('',#965,1.);
#555=VECTOR('',#966,1.);
#556=VECTOR('',#967,1.);
#557=VECTOR('',#968,1.);
#558=VECTOR('',#971,1.);
#559=VECTOR('',#972,1.);
#560=VECTOR('',#973,1.);
#561=VECTOR('',#974,1.);
#562=VECTOR('',#977,1.);
#563=VECTOR('',#978,1.);
#564=VECTOR('',#979,1.);
#565=VECTOR('',#980,1.);
#566=VECTOR('',#981,1.);
#567=VECTOR('',#982,1.);
#568=VECTOR('',#983,1.);
#569=VECTOR('',#984,1.);
#570=VECTOR('',#1055,1.);
#571=VECTOR('',#1058,1.);
#572=VECTOR('',#1061,1.);
#573=VECTOR('',#1062,1.);
#574=VECTOR('',#1065,1.);
#575=VECTOR('',#1068,1.);
#576=VECTOR('',#1081,1.);
#577=VECTOR('',#1082,1.);
#578=VECTOR('',#1083,1.);
#579=VECTOR('',#1086,1.);
#580=VECTOR('',#1087,1.);
#581=VECTOR('',#1090,1.);
#582=VECTOR('',#1091,1.);
#583=VECTOR('',#1094,1.);
#584=VECTOR('',#1095,1.);
#585=VECTOR('',#1096,1.);
#586=VECTOR('',#1097,1.);
#587=VECTOR('',#1100,1.);
#588=VECTOR('',#1101,1.);
#589=VECTOR('',#1102,1.);
#590=VECTOR('',#1105,1.);
#591=VECTOR('',#1106,1.);
#592=VECTOR('',#1107,1.);
#593=VECTOR('',#1110,1.);
#594=VECTOR('',#1111,1.);
#595=VECTOR('',#1114,1.);
#596=VECTOR('',#1119,1.);
#597=VECTOR('',#1120,1.);
#598=VECTOR('',#1121,1.);
#599=VECTOR('',#1122,1.);
#600=VECTOR('',#1125,1.);
#601=VECTOR('',#1126,1.);
#602=VECTOR('',#1127,1.);
#603=VECTOR('',#1130,1.);
#604=VECTOR('',#1131,1.);
#605=VECTOR('',#1132,1.);
#606=VECTOR('',#1135,1.);
#607=VECTOR('',#1136,1.);
#608=EDGE_LOOP('',(#52,#53,#54,#55));
#609=EDGE_LOOP('',(#56,#57,#58,#59));
#610=EDGE_LOOP('',(#60,#61,#62,#63));
#611=EDGE_LOOP('',(#64,#65,#66,#67));
#612=EDGE_LOOP('',(#68,#69,#70,#71));
#613=EDGE_LOOP('',(#72,#73,#74,#75));
#614=EDGE_LOOP('',(#76,#77,#78,#79));
#615=EDGE_LOOP('',(#80,#81,#82,#83));
#616=EDGE_LOOP('',(#84,#85,#86,#87));
#617=EDGE_LOOP('',(#88,#89,#90,#91));
#618=EDGE_LOOP('',(#92,#93,#94,#95));
#619=EDGE_LOOP('',(#96,#97,#98,#99));
#620=EDGE_LOOP('',(#100,#101,#102,#103));
#621=EDGE_LOOP('',(#104,#105,#106,#107));
#622=EDGE_LOOP('',(#108,#109,#110,#111,#112,#113,#114,#115));
#623=EDGE_LOOP('',(#116));
#624=EDGE_LOOP('',(#117));
#625=EDGE_LOOP('',(#118));
#626=EDGE_LOOP('',(#119));
#627=EDGE_LOOP('',(#120,#121,#122,#123));
#628=EDGE_LOOP('',(#124,#125,#126,#127,#128,#129,#130,#131));
#629=EDGE_LOOP('',(#132));
#630=EDGE_LOOP('',(#133));
#631=EDGE_LOOP('',(#134));
#632=EDGE_LOOP('',(#135));
#633=EDGE_LOOP('',(#136));
#634=EDGE_LOOP('',(#137));
#635=EDGE_LOOP('',(#138));
#636=EDGE_LOOP('',(#139));
#637=EDGE_LOOP('',(#140));
#638=EDGE_LOOP('',(#141));
#639=EDGE_LOOP('',(#142));
#640=EDGE_LOOP('',(#143));
#641=EDGE_LOOP('',(#144));
#642=EDGE_LOOP('',(#145));
#643=EDGE_LOOP('',(#146));
#644=EDGE_LOOP('',(#147));
#645=EDGE_LOOP('',(#148));
#646=EDGE_LOOP('',(#149));
#647=EDGE_LOOP('',(#150));
#648=EDGE_LOOP('',(#151));
#649=EDGE_LOOP('',(#152,#153,#154,#155));
#650=EDGE_LOOP('',(#156,#157,#158,#159));
#651=EDGE_LOOP('',(#160,#161,#162,#163));
#652=EDGE_LOOP('',(#164,#165,#166,#167));
#653=EDGE_LOOP('',(#168,#169,#170,#171));
#654=EDGE_LOOP('',(#172,#173,#174,#175));
#655=EDGE_LOOP('',(#176,#177,#178,#179));
#656=EDGE_LOOP('',(#180,#181,#182,#183));
#657=EDGE_LOOP('',(#184,#185,#186,#187));
#658=EDGE_LOOP('',(#188,#189,#190,#191));
#659=EDGE_LOOP('',(#192,#193,#194,#195));
#660=EDGE_LOOP('',(#196,#197,#198,#199));
#661=EDGE_LOOP('',(#200,#201,#202,#203));
#662=EDGE_LOOP('',(#204,#205,#206,#207));
#663=EDGE_LOOP('',(#208,#209,#210,#211));
#664=EDGE_LOOP('',(#212,#213,#214,#215));
#665=EDGE_LOOP('',(#216,#217,#218,#219));
#666=EDGE_LOOP('',(#220,#221,#222,#223));
#667=EDGE_LOOP('',(#224,#225,#226,#227));
#668=EDGE_LOOP('',(#228,#229,#230,#231));
#669=EDGE_LOOP('',(#232,#233,#234,#235));
#670=EDGE_LOOP('',(#236,#237,#238,#239));
#671=EDGE_LOOP('',(#240,#241,#242,#243));
#672=EDGE_LOOP('',(#244,#245,#246,#247));
#673=EDGE_LOOP('',(#248,#249,#250,#251));
#674=EDGE_LOOP('',(#252,#253,#254,#255));
#675=EDGE_LOOP('',(#256,#257,#258,#259));
#676=FACE_BOUND('',#608,.T.);
#677=FACE_BOUND('',#609,.T.);
#678=FACE_BOUND('',#610,.T.);
#679=FACE_BOUND('',#611,.T.);
#680=FACE_BOUND('',#612,.T.);
#681=FACE_BOUND('',#613,.T.);
#682=FACE_BOUND('',#614,.T.);
#683=FACE_BOUND('',#615,.T.);
#684=FACE_BOUND('',#616,.T.);
#685=FACE_BOUND('',#617,.T.);
#686=FACE_BOUND('',#618,.T.);
#687=FACE_BOUND('',#619,.T.);
#688=FACE_BOUND('',#620,.T.);
#689=FACE_BOUND('',#621,.T.);
#690=FACE_BOUND('',#622,.T.);
#691=FACE_BOUND('',#623,.T.);
#692=FACE_BOUND('',#624,.T.);
#693=FACE_BOUND('',#625,.T.);
#694=FACE_BOUND('',#626,.T.);
#695=FACE_BOUND('',#627,.T.);
#696=FACE_BOUND('',#628,.T.);
#697=FACE_BOUND('',#20,.T.);
#698=FACE_BOUND('',#629,.T.);
#699=FACE_BOUND('',#630,.T.);
#700=FACE_BOUND('',#631,.T.);
#701=FACE_BOUND('',#21,.T.);
#702=FACE_BOUND('',#632,.T.);
#703=FACE_BOUND('',#633,.T.);
#704=FACE_BOUND('',#634,.T.);
#705=FACE_BOUND('',#22,.T.);
#706=FACE_BOUND('',#635,.T.);
#707=FACE_BOUND('',#636,.T.);
#708=FACE_BOUND('',#637,.T.);
#709=FACE_BOUND('',#23,.T.);
#710=FACE_BOUND('',#638,.T.);
#711=FACE_BOUND('',#639,.T.);
#712=FACE_BOUND('',#640,.T.);
#713=FACE_BOUND('',#641,.T.);
#714=FACE_BOUND('',#642,.T.);
#715=FACE_BOUND('',#643,.T.);
#716=FACE_BOUND('',#644,.T.);
#717=FACE_BOUND('',#645,.T.);
#718=FACE_BOUND('',#646,.T.);
#719=FACE_BOUND('',#647,.T.);
#720=FACE_BOUND('',#648,.T.);
#721=FACE_BOUND('',#649,.T.);
#722=FACE_BOUND('',#650,.T.);
#723=FACE_BOUND('',#651,.T.);
#724=FACE_BOUND('',#652,.T.);
#725=FACE_BOUND('',#653,.T.);
#726=FACE_BOUND('',#654,.T.);
#727=FACE_BOUND('',#655,.T.);
#728=FACE_BOUND('',#656,.T.);
#729=FACE_BOUND('',#657,.T.);
#730=FACE_BOUND('',#658,.T.);
#731=FACE_BOUND('',#659,.T.);
#732=FACE_BOUND('',#660,.T.);
#733=FACE_BOUND('',#661,.T.);
#734=FACE_BOUND('',#662,.T.);
#735=FACE_BOUND('',#663,.T.);
#736=FACE_BOUND('',#664,.T.);
#737=FACE_BOUND('',#665,.T.);
#738=FACE_BOUND('',#666,.T.);
#739=FACE_BOUND('',#667,.T.);
#740=FACE_BOUND('',#668,.T.);
#741=FACE_BOUND('',#669,.T.);
#742=FACE_BOUND('',#670,.T.);
#743=FACE_BOUND('',#671,.T.);
#744=FACE_BOUND('',#672,.T.);
#745=FACE_BOUND('',#673,.T.);
#746=FACE_BOUND('',#674,.T.);
#747=FACE_BOUND('',#675,.T.);
#748=PLANE('',#845);
#749=PLANE('',#846);
#750=PLANE('',#847);
#751=PLANE('',#848);
#752=PLANE('',#849);
#753=PLANE('',#850);
#754=PLANE('',#851);
#755=PLANE('',#852);
#756=PLANE('',#853);
#757=PLANE('',#854);
#758=PLANE('',#855);
#759=PLANE('',#856);
#760=PLANE('',#865);
#761=PLANE('',#890);
#762=PLANE('',#891);
#763=PLANE('',#892);
#764=PLANE('',#893);
#765=PLANE('',#894);
#766=PLANE('',#895);
#767=PLANE('',#900);
#768=PLANE('',#901);
#769=PLANE('',#902);
#770=PLANE('',#903);
#771=PLANE('',#904);
#772=PLANE('',#905);
#773=PLANE('',#906);
#774=PLANE('',#907);
#775=PLANE('',#908);
#776=PLANE('',#909);
#777=PLANE('',#910);
#778=PLANE('',#911);
#779=PLANE('',#912);
#780=PLANE('',#913);
#781=PLANE('',#914);
#782=ADVANCED_FACE('',(#676,#677),#748,.T.);
#783=ADVANCED_FACE('',(#678),#749,.T.);
#784=ADVANCED_FACE('',(#679),#750,.F.);
#785=ADVANCED_FACE('',(#680),#751,.F.);
#786=ADVANCED_FACE('',(#681),#752,.T.);
#787=ADVANCED_FACE('',(#682),#753,.F.);
#788=ADVANCED_FACE('',(#683,#684),#754,.F.);
#789=ADVANCED_FACE('',(#685),#755,.T.);
#790=ADVANCED_FACE('',(#686),#756,.F.);
#791=ADVANCED_FACE('',(#687),#757,.T.);
#792=ADVANCED_FACE('',(#688,#689),#758,.T.);
#793=ADVANCED_FACE('',(#690,#691,#692,#693,#694,#695),#759,.T.);
#794=ADVANCED_FACE('',(#696),#760,.F.);
#795=ADVANCED_FACE('',(#697,#698),#24,.F.);
#796=ADVANCED_FACE('',(#699,#700),#12,.F.);
#797=ADVANCED_FACE('',(#701,#702),#25,.F.);
#798=ADVANCED_FACE('',(#703,#704),#13,.F.);
#799=ADVANCED_FACE('',(#705,#706),#26,.F.);
#800=ADVANCED_FACE('',(#707,#708),#14,.F.);
#801=ADVANCED_FACE('',(#709,#710),#27,.F.);
#802=ADVANCED_FACE('',(#711,#712),#15,.F.);
#803=ADVANCED_FACE('',(#713,#714),#28,.F.);
#804=ADVANCED_FACE('',(#715,#716),#29,.F.);
#805=ADVANCED_FACE('',(#717,#718),#30,.F.);
#806=ADVANCED_FACE('',(#719,#720),#31,.F.);
#807=ADVANCED_FACE('',(#721),#761,.F.);
#808=ADVANCED_FACE('',(#722),#762,.T.);
#809=ADVANCED_FACE('',(#723),#763,.T.);
#810=ADVANCED_FACE('',(#724),#764,.T.);
#811=ADVANCED_FACE('',(#725),#765,.F.);
#812=ADVANCED_FACE('',(#726),#766,.F.);
#813=ADVANCED_FACE('',(#727),#16,.T.);
#814=ADVANCED_FACE('',(#728),#17,.T.);
#815=ADVANCED_FACE('',(#729),#18,.T.);
#816=ADVANCED_FACE('',(#730),#19,.T.);
#817=ADVANCED_FACE('',(#731),#767,.F.);
#818=ADVANCED_FACE('',(#732),#768,.F.);
#819=ADVANCED_FACE('',(#733),#769,.F.);
#820=ADVANCED_FACE('',(#734),#770,.T.);
#821=ADVANCED_FACE('',(#735),#771,.T.);
#822=ADVANCED_FACE('',(#736),#772,.T.);
#823=ADVANCED_FACE('',(#737),#773,.T.);
#824=ADVANCED_FACE('',(#738),#774,.F.);
#825=ADVANCED_FACE('',(#739,#740),#775,.T.);
#826=ADVANCED_FACE('',(#741),#776,.T.);
#827=ADVANCED_FACE('',(#742),#777,.T.);
#828=ADVANCED_FACE('',(#743),#778,.T.);
#829=ADVANCED_FACE('',(#744),#779,.T.);
#830=ADVANCED_FACE('',(#745,#746),#780,.T.);
#831=ADVANCED_FACE('',(#747),#781,.T.);
#832=CLOSED_SHELL('',(#782,#783,#784,#785,#786,#787,#788,#789,#790,#791,
#792,#793,#794,#795,#796,#797,#798,#799,#800,#801,#802,#803,#804,#805,#806,
#807,#808,#809,#810,#811,#812,#813,#814,#815,#816,#817,#818,#819,#820,#821,
#822,#823,#824,#825,#826,#827,#828,#829,#830,#831));
#833=STYLED_ITEM('',(#834),#841);
#834=PRESENTATION_STYLE_ASSIGNMENT((#835));
#835=SURFACE_STYLE_USAGE(.BOTH.,#836);
#836=SURFACE_SIDE_STYLE('',(#837));
#837=SURFACE_STYLE_FILL_AREA(#838);
#838=FILL_AREA_STYLE('',(#839));
#839=FILL_AREA_STYLE_COLOUR('',#840);
#840=COLOUR_RGB('',0.615686274509804,0.811764705882353,0.929411764705882);
#841=MANIFOLD_SOLID_BREP('Part 1',#832);
#842=SHAPE_DEFINITION_REPRESENTATION(#1378,#843);
#843=SHAPE_REPRESENTATION('Part 1',(#844),#1373);
#844=AXIS2_PLACEMENT_3D('',#1141,#915,#916);
#845=AXIS2_PLACEMENT_3D('',#1142,#917,#918);
#846=AXIS2_PLACEMENT_3D('',#1159,#927,#928);
#847=AXIS2_PLACEMENT_3D('',#1168,#933,#934);
#848=AXIS2_PLACEMENT_3D('',#1177,#939,#940);
#849=AXIS2_PLACEMENT_3D('',#1183,#944,#945);
#850=AXIS2_PLACEMENT_3D('',#1187,#948,#949);
#851=AXIS2_PLACEMENT_3D('',#1191,#952,#953);
#852=AXIS2_PLACEMENT_3D('',#1195,#957,#958);
#853=AXIS2_PLACEMENT_3D('',#1204,#963,#964);
#854=AXIS2_PLACEMENT_3D('',#1213,#969,#970);
#855=AXIS2_PLACEMENT_3D('',#1222,#975,#976);
#856=AXIS2_PLACEMENT_3D('',#1239,#985,#986);
#857=AXIS2_PLACEMENT_3D('',#1240,#987,#988);
#858=AXIS2_PLACEMENT_3D('',#1241,#989,#990);
#859=AXIS2_PLACEMENT_3D('',#1242,#991,#992);
#860=AXIS2_PLACEMENT_3D('',#1243,#993,#994);
#861=AXIS2_PLACEMENT_3D('',#1244,#995,#996);
#862=AXIS2_PLACEMENT_3D('',#1246,#997,#998);
#863=AXIS2_PLACEMENT_3D('',#1248,#999,#1000);
#864=AXIS2_PLACEMENT_3D('',#1250,#1001,#1002);
#865=AXIS2_PLACEMENT_3D('',#1252,#1003,#1004);
#866=AXIS2_PLACEMENT_3D('',#1253,#1005,#1006);
#867=AXIS2_PLACEMENT_3D('',#1254,#1007,#1008);
#868=AXIS2_PLACEMENT_3D('',#1255,#1009,#1010);
#869=AXIS2_PLACEMENT_3D('',#1256,#1011,#1012);
#870=AXIS2_PLACEMENT_3D('',#1257,#1013,#1014);
#871=AXIS2_PLACEMENT_3D('',#1259,#1015,#1016);
#872=AXIS2_PLACEMENT_3D('',#1261,#1017,#1018);
#873=AXIS2_PLACEMENT_3D('',#1262,#1019,#1020);
#874=AXIS2_PLACEMENT_3D('',#1264,#1021,#1022);
#875=AXIS2_PLACEMENT_3D('',#1266,#1023,#1024);
#876=AXIS2_PLACEMENT_3D('',#1268,#1025,#1026);
#877=AXIS2_PLACEMENT_3D('',#1269,#1027,#1028);
#878=AXIS2_PLACEMENT_3D('',#1271,#1029,#1030);
#879=AXIS2_PLACEMENT_3D('',#1273,#1031,#1032);
#880=AXIS2_PLACEMENT_3D('',#1275,#1033,#1034);
#881=AXIS2_PLACEMENT_3D('',#1276,#1035,#1036);
#882=AXIS2_PLACEMENT_3D('',#1278,#1037,#1038);
#883=AXIS2_PLACEMENT_3D('',#1280,#1039,#1040);
#884=AXIS2_PLACEMENT_3D('',#1282,#1041,#1042);
#885=AXIS2_PLACEMENT_3D('',#1283,#1043,#1044);
#886=AXIS2_PLACEMENT_3D('',#1285,#1045,#1046);
#887=AXIS2_PLACEMENT_3D('',#1286,#1047,#1048);
#888=AXIS2_PLACEMENT_3D('',#1287,#1049,#1050);
#889=AXIS2_PLACEMENT_3D('',#1288,#1051,#1052);
#890=AXIS2_PLACEMENT_3D('',#1289,#1053,#1054);
#891=AXIS2_PLACEMENT_3D('',#1291,#1056,#1057);
#892=AXIS2_PLACEMENT_3D('',#1293,#1059,#1060);
#893=AXIS2_PLACEMENT_3D('',#1296,#1063,#1064);
#894=AXIS2_PLACEMENT_3D('',#1298,#1066,#1067);
#895=AXIS2_PLACEMENT_3D('',#1300,#1069,#1070);
#896=AXIS2_PLACEMENT_3D('',#1301,#1071,#1072);
#897=AXIS2_PLACEMENT_3D('',#1302,#1073,#1074);
#898=AXIS2_PLACEMENT_3D('',#1303,#1075,#1076);
#899=AXIS2_PLACEMENT_3D('',#1304,#1077,#1078);
#900=AXIS2_PLACEMENT_3D('',#1305,#1079,#1080);
#901=AXIS2_PLACEMENT_3D('',#1311,#1084,#1085);
#902=AXIS2_PLACEMENT_3D('',#1315,#1088,#1089);
#903=AXIS2_PLACEMENT_3D('',#1319,#1092,#1093);
#904=AXIS2_PLACEMENT_3D('',#1328,#1098,#1099);
#905=AXIS2_PLACEMENT_3D('',#1334,#1103,#1104);
#906=AXIS2_PLACEMENT_3D('',#1340,#1108,#1109);
#907=AXIS2_PLACEMENT_3D('',#1343,#1112,#1113);
#908=AXIS2_PLACEMENT_3D('',#1345,#1115,#1116);
#909=AXIS2_PLACEMENT_3D('',#1346,#1117,#1118);
#910=AXIS2_PLACEMENT_3D('',#1355,#1123,#1124);
#911=AXIS2_PLACEMENT_3D('',#1361,#1128,#1129);
#912=AXIS2_PLACEMENT_3D('',#1367,#1133,#1134);
#913=AXIS2_PLACEMENT_3D('',#1370,#1137,#1138);
#914=AXIS2_PLACEMENT_3D('',#1371,#1139,#1140);
#915=DIRECTION('',(0.,0.,1.));
#916=DIRECTION('',(1.,0.,0.));
#917=DIRECTION('',(0.,0.,1.));
#918=DIRECTION('',(1.,0.,0.));
#919=DIRECTION('',(0.,-1.,0.));
#920=DIRECTION('',(1.,0.,0.));
#921=DIRECTION('',(0.,1.,0.));
#922=DIRECTION('',(1.,0.,0.));
#923=DIRECTION('',(0.,-1.,0.));
#924=DIRECTION('',(-1.,-1.6021459025415E-16,0.));
#925=DIRECTION('',(0.,1.,0.));
#926=DIRECTION('',(1.,8.01072951270749E-17,0.));
#927=DIRECTION('',(-1.,0.,0.));
#928=DIRECTION('',(0.,0.,1.));
#929=DIRECTION('',(0.,1.,0.));
#930=DIRECTION('',(0.,0.,-1.));
#931=DIRECTION('',(0.,1.,0.));
#932=DIRECTION('',(0.,0.,-1.));
#933=DIRECTION('',(-1.,0.,0.));
#934=DIRECTION('',(0.,0.,1.));
#935=DIRECTION('',(0.,1.,0.));
#936=DIRECTION('',(0.,0.,1.));
#937=DIRECTION('',(0.,1.,0.));
#938=DIRECTION('',(0.,0.,-1.));
#939=DIRECTION('',(1.,0.,0.));
#940=DIRECTION('',(0.,0.,-1.));
#941=DIRECTION('',(0.,0.,-1.));
#942=DIRECTION('',(0.,0.,-1.));
#943=DIRECTION('',(0.,-1.,0.));
#944=DIRECTION('',(0.,1.,0.));
#945=DIRECTION('',(0.,0.,1.));
#946=DIRECTION('',(0.,0.,-1.));
#947=DIRECTION('',(1.,0.,0.));
#948=DIRECTION('',(-1.,0.,0.));
#949=DIRECTION('',(0.,0.,1.));
#950=DIRECTION('',(0.,0.,-1.));
#951=DIRECTION('',(0.,1.,0.));
#952=DIRECTION('',(0.,1.,0.));
#953=DIRECTION('',(0.,0.,1.));
#954=DIRECTION('',(1.,0.,0.));
#955=DIRECTION('',(1.,0.,0.));
#956=DIRECTION('',(1.,0.,0.));
#957=DIRECTION('',(-1.,0.,0.));
#958=DIRECTION('',(0.,0.,1.));
#959=DIRECTION('',(0.,1.,0.));
#960=DIRECTION('',(0.,0.,-1.));
#961=DIRECTION('',(0.,1.,0.));
#962=DIRECTION('',(0.,0.,-1.));
#963=DIRECTION('',(-1.29367480554632E-16,1.,0.));
#964=DIRECTION('',(-1.,-1.29367480554632E-16,0.));
#965=DIRECTION('',(1.,1.29367480554632E-16,0.));
#966=DIRECTION('',(0.,0.,-1.));
#967=DIRECTION('',(1.,1.29367480554632E-16,0.));
#968=DIRECTION('',(0.,0.,-1.));
#969=DIRECTION('',(1.,0.,0.));
#970=DIRECTION('',(0.,0.,-1.));
#971=DIRECTION('',(0.,-1.,0.));
#972=DIRECTION('',(0.,0.,-1.));
#973=DIRECTION('',(0.,-1.,0.));
#974=DIRECTION('',(0.,0.,-1.));
#975=DIRECTION('',(0.,1.,0.));
#976=DIRECTION('',(0.,0.,1.));
#977=DIRECTION('',(1.,0.,0.));
#978=DIRECTION('',(0.,0.,1.));
#979=DIRECTION('',(-1.,0.,0.));
#980=DIRECTION('',(0.,0.,-1.));
#981=DIRECTION('',(1.,0.,0.));
#982=DIRECTION('',(0.,0.,-1.));
#983=DIRECTION('',(1.,1.71700922771771E-16,0.));
#984=DIRECTION('',(0.,0.,-1.));
#985=DIRECTION('',(0.,0.,1.));
#986=DIRECTION('',(1.,0.,0.));
#987=DIRECTION('',(0.,0.,1.));
#988=DIRECTION('',(1.,0.,0.));
#989=DIRECTION('',(0.,0.,1.));
#990=DIRECTION('',(1.,0.,0.));
#991=DIRECTION('',(0.,0.,1.));
#992=DIRECTION('',(1.,0.,0.));
#993=DIRECTION('',(0.,0.,1.));
#994=DIRECTION('',(1.,0.,0.));
#995=DIRECTION('',(0.,0.,1.));
#996=DIRECTION('',(1.,0.,0.));
#997=DIRECTION('',(0.,0.,1.));
#998=DIRECTION('',(1.,0.,0.));
#999=DIRECTION('',(0.,0.,1.));
#1000=DIRECTION('',(1.,0.,0.));
#1001=DIRECTION('',(0.,0.,1.));
#1002=DIRECTION('',(1.,0.,0.));
#1003=DIRECTION('',(0.,0.,1.));
#1004=DIRECTION('',(1.,0.,0.));
#1005=DIRECTION('',(0.,0.,1.));
#1006=DIRECTION('',(1.,0.,0.));
#1007=DIRECTION('',(0.,0.,1.));
#1008=DIRECTION('',(1.,0.,0.));
#1009=DIRECTION('',(0.,0.,1.));
#1010=DIRECTION('',(1.,0.,0.));
#1011=DIRECTION('',(0.,0.,1.));
#1012=DIRECTION('',(1.,0.,0.));
#1013=DIRECTION('',(0.,0.,1.));
#1014=DIRECTION('',(1.,0.,0.));
#1015=DIRECTION('',(0.,0.,-1.));
#1016=DIRECTION('',(-1.,0.,0.));
#1017=DIRECTION('',(0.,0.,-1.));
#1018=DIRECTION('',(-1.,0.,0.));
#1019=DIRECTION('',(0.,0.,1.));
#1020=DIRECTION('',(1.,0.,0.));
#1021=DIRECTION('',(0.,0.,1.));
#1022=DIRECTION('',(1.,0.,0.));
#1023=DIRECTION('',(0.,0.,-1.));
#1024=DIRECTION('',(-1.,0.,0.));
#1025=DIRECTION('',(0.,0.,-1.));
#1026=DIRECTION('',(-1.,0.,0.));
#1027=DIRECTION('',(0.,0.,1.));
#1028=DIRECTION('',(1.,0.,0.));
#1029=DIRECTION('',(0.,0.,1.));
#1030=DIRECTION('',(1.,0.,0.));
#1031=DIRECTION('',(0.,0.,-1.));
#1032=DIRECTION('',(-1.,0.,0.));
#1033=DIRECTION('',(0.,0.,-1.));
#1034=DIRECTION('',(-1.,0.,0.));
#1035=DIRECTION('',(0.,0.,1.));
#1036=DIRECTION('',(1.,0.,0.));
#1037=DIRECTION('',(0.,0.,1.));
#1038=DIRECTION('',(1.,0.,0.));
#1039=DIRECTION('',(0.,0.,-1.));
#1040=DIRECTION('',(-1.,0.,0.));
#1041=DIRECTION('',(0.,0.,-1.));
#1042=DIRECTION('',(-1.,0.,0.));
#1043=DIRECTION('',(0.,0.,1.));
#1044=DIRECTION('',(1.,0.,0.));
#1045=DIRECTION('',(0.,0.,1.));
#1046=DIRECTION('',(1.,0.,0.));
#1047=DIRECTION('',(0.,0.,1.));
#1048=DIRECTION('',(1.,0.,0.));
#1049=DIRECTION('',(0.,0.,1.));
#1050=DIRECTION('',(1.,0.,0.));
#1051=DIRECTION('',(0.,0.,1.));
#1052=DIRECTION('',(1.,0.,0.));
#1053=DIRECTION('',(0.,0.,1.));
#1054=DIRECTION('',(1.,0.,0.));
#1055=DIRECTION('',(1.,0.,0.));
#1056=DIRECTION('',(0.,0.,1.));
#1057=DIRECTION('',(1.,0.,0.));
#1058=DIRECTION('',(-1.,0.,0.));
#1059=DIRECTION('',(0.707106781186548,0.707106781186548,0.));
#1060=DIRECTION('',(0.,0.,1.));
#1061=DIRECTION('',(-0.577350269189626,0.577350269189626,-0.577350269189626));
#1062=DIRECTION('',(0.577350269189626,-0.577350269189626,-0.577350269189626));
#1063=DIRECTION('',(0.,0.707106781186548,-0.707106781186548));
#1064=DIRECTION('',(-1.,0.,0.));
#1065=DIRECTION('',(0.577350269189626,0.577350269189626,0.577350269189626));
#1066=DIRECTION('',(0.,-0.707106781186548,-0.707106781186548));
#1067=DIRECTION('',(1.,0.,0.));
#1068=DIRECTION('',(0.577350269189626,0.577350269189626,-0.577350269189626));
#1069=DIRECTION('',(0.707106781186548,-0.707106781186548,0.));
#1070=DIRECTION('',(0.,0.,-1.));
#1071=DIRECTION('',(0.,0.,-1.));
#1072=DIRECTION('',(-1.,0.,0.));
#1073=DIRECTION('',(0.,0.,-1.));
#1074=DIRECTION('',(-1.,0.,0.));
#1075=DIRECTION('',(0.,0.,1.));
#1076=DIRECTION('',(1.,0.,0.));
#1077=DIRECTION('',(0.,0.,1.));
#1078=DIRECTION('',(1.,0.,0.));
#1079=DIRECTION('',(1.6021459025415E-16,-1.,0.));
#1080=DIRECTION('',(1.,1.6021459025415E-16,0.));
#1081=DIRECTION('',(0.,0.,-1.));
#1082=DIRECTION('',(0.,0.,-1.));
#1083=DIRECTION('',(-1.,-1.6021459025415E-16,0.));
#1084=DIRECTION('',(1.,0.,0.));
#1085=DIRECTION('',(0.,0.,-1.));
#1086=DIRECTION('',(0.,0.,-1.));
#1087=DIRECTION('',(0.,-1.,0.));
#1088=DIRECTION('',(-8.01072951270749E-17,1.,0.));
#1089=DIRECTION('',(-1.,-8.01072951270749E-17,0.));
#1090=DIRECTION('',(0.,0.,-1.));
#1091=DIRECTION('',(1.,8.01072951270749E-17,0.));
#1092=DIRECTION('',(1.,0.,0.));
#1093=DIRECTION('',(0.,0.,-1.));
#1094=DIRECTION('',(0.,-1.,0.));
#1095=DIRECTION('',(0.,0.,-1.));
#1096=DIRECTION('',(0.,-1.,0.));
#1097=DIRECTION('',(0.,0.,-1.));
#1098=DIRECTION('',(1.62085818825209E-16,-1.,0.));
#1099=DIRECTION('',(1.,1.62085818825209E-16,0.));
#1100=DIRECTION('',(-1.,-1.62085818825209E-16,0.));
#1101=DIRECTION('',(0.,0.,-1.));
#1102=DIRECTION('',(-1.,-1.62085818825209E-16,0.));
#1103=DIRECTION('',(-1.,0.,0.));
#1104=DIRECTION('',(0.,0.,1.));
#1105=DIRECTION('',(0.,1.,0.));
#1106=DIRECTION('',(0.,0.,-1.));
#1107=DIRECTION('',(0.,1.,0.));
#1108=DIRECTION('',(-8.10429094126049E-17,1.,0.));
#1109=DIRECTION('',(-1.,-8.10429094126049E-17,0.));
#1110=DIRECTION('',(1.,8.10429094126049E-17,0.));
#1111=DIRECTION('',(1.,8.10429094126049E-17,0.));
#1112=DIRECTION('',(-1.,0.,0.));
#1113=DIRECTION('',(0.,0.,1.));
#1114=DIRECTION('',(0.,1.,0.));
#1115=DIRECTION('',(0.,0.,1.));
#1116=DIRECTION('',(1.,0.,0.));
#1117=DIRECTION('',(1.,0.,0.));
#1118=DIRECTION('',(0.,0.,-1.));
#1119=DIRECTION('',(0.,-1.,0.));
#1120=DIRECTION('',(0.,0.,-1.));
#1121=DIRECTION('',(0.,-1.,0.));
#1122=DIRECTION('',(0.,0.,-1.));
#1123=DIRECTION('',(1.8112487350319E-16,-1.,0.));
#1124=DIRECTION('',(1.,1.8112487350319E-16,0.));
#1125=DIRECTION('',(-1.,-1.8112487350319E-16,0.));
#1126=DIRECTION('',(0.,0.,-1.));
#1127=DIRECTION('',(-1.,-1.8112487350319E-16,0.));
#1128=DIRECTION('',(-1.,0.,0.));
#1129=DIRECTION('',(0.,0.,1.));
#1130=DIRECTION('',(0.,1.,0.));
#1131=DIRECTION('',(0.,0.,-1.));
#1132=DIRECTION('',(0.,1.,0.));
#1133=DIRECTION('',(0.,1.,0.));
#1134=DIRECTION('',(0.,0.,1.));
#1135=DIRECTION('',(1.,0.,0.));
#1136=DIRECTION('',(1.,0.,0.));
#1137=DIRECTION('',(0.,0.,1.));
#1138=DIRECTION('',(1.,0.,0.));
#1139=DIRECTION('',(0.,0.,1.));
#1140=DIRECTION('',(1.,0.,0.));
#1141=CARTESIAN_POINT('',(0.,0.,0.));
#1142=CARTESIAN_POINT('',(-0.00266789066253339,0.00695022467967996,0.007));
#1143=CARTESIAN_POINT('',(0.0429691893374666,0.00695022467967996,0.007));
#1144=CARTESIAN_POINT('',(0.0429691893374666,0.04143522467968,0.007));
#1145=CARTESIAN_POINT('',(0.0429691893374666,-0.0275347753203201,0.007));
#1146=CARTESIAN_POINT('',(-0.0118922938295117,0.04143522467968,0.007));
#1147=CARTESIAN_POINT('',(-0.0483049706625334,0.04143522467968,0.007));
#1148=CARTESIAN_POINT('',(-0.0483049706625334,0.00695022467967995,0.007));
#1149=CARTESIAN_POINT('',(-0.0483049706625334,-0.0275347753203201,0.007));
#1150=CARTESIAN_POINT('',(-0.00266789066253339,-0.0275347753203201,0.007));
#1151=CARTESIAN_POINT('',(-0.0441815865933639,0.00825375033231937,0.007));
#1152=CARTESIAN_POINT('',(-0.0441815865933639,0.0392637503323194,0.007));
#1153=CARTESIAN_POINT('',(-0.0441815865933639,-0.0227562496676806,0.007));
#1154=CARTESIAN_POINT('',(-0.000871586593363914,0.0392637503323194,0.007));
#1155=CARTESIAN_POINT('',(0.0424384134066361,0.0392637503323194,0.007));
#1156=CARTESIAN_POINT('',(0.0424384134066361,0.00825375033231938,0.007));
#1157=CARTESIAN_POINT('',(0.0424384134066361,-0.0227562496676806,0.007));
#1158=CARTESIAN_POINT('',(-0.000871586593363921,-0.0227562496676806,0.007));
#1159=CARTESIAN_POINT('',(0.03352038300351,0.04643522467968,0.018));
#1160=CARTESIAN_POINT('',(0.03352038300351,0.04643522467968,0.016));
#1161=CARTESIAN_POINT('',(0.03352038300351,0.04143522467968,0.016));
#1162=CARTESIAN_POINT('',(0.03352038300351,0.04918522467968,0.016));
#1163=CARTESIAN_POINT('',(0.03352038300351,0.04918522467968,0.018));
#1164=CARTESIAN_POINT('',(0.03352038300351,0.04918522467968,0.012));
#1165=CARTESIAN_POINT('',(0.03352038300351,0.04243522467968,0.012));
#1166=CARTESIAN_POINT('',(0.03352038300351,0.04143522467968,0.012));
#1167=CARTESIAN_POINT('',(0.03352038300351,0.04143522467968,0.018));
#1168=CARTESIAN_POINT('',(0.02452038300351,0.04643522467968,0.018));
#1169=CARTESIAN_POINT('',(0.02452038300351,0.04243522467968,0.012));
#1170=CARTESIAN_POINT('',(0.02452038300351,0.04143522467968,0.012));
#1171=CARTESIAN_POINT('',(0.02452038300351,0.04918522467968,0.012));
#1172=CARTESIAN_POINT('',(0.02452038300351,0.04918522467968,0.016));
#1173=CARTESIAN_POINT('',(0.02452038300351,0.04918522467968,0.016));
#1174=CARTESIAN_POINT('',(0.02452038300351,0.04643522467968,0.016));
#1175=CARTESIAN_POINT('',(0.02452038300351,0.04143522467968,0.016));
#1176=CARTESIAN_POINT('',(0.02452038300351,0.04143522467968,0.018));
#1177=CARTESIAN_POINT('',(0.0429691893374666,0.00695022467967996,0.018));
#1178=CARTESIAN_POINT('',(0.0429691893374666,0.04143522467968,0.018));
#1179=CARTESIAN_POINT('',(0.0429691893374666,0.04143522467968,0.018));
#1180=CARTESIAN_POINT('',(0.0429691893374666,-0.0275347753203201,0.018));
#1181=CARTESIAN_POINT('',(0.0429691893374666,-0.0275347753203201,0.018));
#1182=CARTESIAN_POINT('',(0.0429691893374666,0.00695022467967996,0.018));
#1183=CARTESIAN_POINT('',(-0.00266789066253339,-0.0275347753203201,0.018));
#1184=CARTESIAN_POINT('',(-0.0483049706625334,-0.0275347753203201,0.018));
#1185=CARTESIAN_POINT('',(-0.0483049706625334,-0.0275347753203201,0.018));
#1186=CARTESIAN_POINT('',(-0.00266789066253339,-0.0275347753203201,0.018));
#1187=CARTESIAN_POINT('',(-0.0483049706625334,0.00695022467967995,0.018));
#1188=CARTESIAN_POINT('',(-0.0483049706625334,0.04143522467968,0.018));
#1189=CARTESIAN_POINT('',(-0.0483049706625334,0.04143522467968,0.018));
#1190=CARTESIAN_POINT('',(-0.0483049706625334,0.00695022467967995,0.018));
#1191=CARTESIAN_POINT('',(-0.0118922938295117,0.04143522467968,0.018));
#1192=CARTESIAN_POINT('',(0.0382447861704883,0.04143522467968,0.018));
#1193=CARTESIAN_POINT('',(0.0290203830035101,0.04143522467968,0.012));
#1194=CARTESIAN_POINT('',(0.0290203830035101,0.04143522467968,0.016));
#1195=CARTESIAN_POINT('',(-0.0563049706625334,0.00695022467967995,0.018));
#1196=CARTESIAN_POINT('',(-0.0563049706625334,0.00695022467967995,0.018));
#1197=CARTESIAN_POINT('',(-0.0563049706625334,-0.0335347753203201,0.018));
#1198=CARTESIAN_POINT('',(-0.0563049706625334,0.04743522467968,0.018));
#1199=CARTESIAN_POINT('',(-0.0563049706625334,0.04743522467968,0.018));
#1200=CARTESIAN_POINT('',(-0.0563049706625334,0.04743522467968,0.));
#1201=CARTESIAN_POINT('',(-0.0563049706625334,0.00695022467967995,0.));
#1202=CARTESIAN_POINT('',(-0.0563049706625334,-0.0335347753203201,0.));
#1203=CARTESIAN_POINT('',(-0.0563049706625334,-0.0335347753203201,0.018));
#1204=CARTESIAN_POINT('',(-0.00266789066253339,-0.0355347753203201,0.018));
#1205=CARTESIAN_POINT('',(-0.00266789066253339,-0.0355347753203201,0.018));
#1206=CARTESIAN_POINT('',(-0.0543049706625334,-0.0355347753203201,0.018));
#1207=CARTESIAN_POINT('',(0.0489691893374666,-0.0355347753203201,0.018));
#1208=CARTESIAN_POINT('',(-0.0543049706625334,-0.0355347753203201,0.));
#1209=CARTESIAN_POINT('',(-0.0543049706625334,-0.0355347753203201,0.));
#1210=CARTESIAN_POINT('',(-0.00266789066253339,-0.0355347753203201,0.));
#1211=CARTESIAN_POINT('',(0.0489691893374666,-0.0355347753203201,0.));
#1212=CARTESIAN_POINT('',(0.0489691893374666,-0.0355347753203201,0.018));
#1213=CARTESIAN_POINT('',(0.0509691893374666,0.00695022467967997,0.018));
#1214=CARTESIAN_POINT('',(0.0509691893374666,0.00695022467967997,0.));
#1215=CARTESIAN_POINT('',(0.0509691893374666,0.04743522467968,0.));
#1216=CARTESIAN_POINT('',(0.0509691893374666,-0.0335347753203201,0.));
#1217=CARTESIAN_POINT('',(0.0509691893374666,0.04743522467968,0.018));
#1218=CARTESIAN_POINT('',(0.0509691893374666,0.04743522467968,0.018));
#1219=CARTESIAN_POINT('',(0.0509691893374666,0.00695022467967997,0.018));
#1220=CARTESIAN_POINT('',(0.0509691893374666,-0.0335347753203201,0.018));
#1221=CARTESIAN_POINT('',(0.0509691893374666,-0.0335347753203201,0.));
#1222=CARTESIAN_POINT('',(0.0422447861704883,0.04943522467968,0.018));
#1223=CARTESIAN_POINT('',(0.0422447861704883,0.04943522467968,0.01175));
#1224=CARTESIAN_POINT('',(0.02427038300351,0.04943522467968,0.01175));
#1225=CARTESIAN_POINT('',(0.03377038300351,0.04943522467968,0.01175));
#1226=CARTESIAN_POINT('',(0.03377038300351,0.04943522467968,0.018));
#1227=CARTESIAN_POINT('',(0.03377038300351,0.04943522467968,0.01625));
#1228=CARTESIAN_POINT('',(0.02452038300351,0.04943522467968,0.01625));
#1229=CARTESIAN_POINT('',(0.02427038300351,0.04943522467968,0.01625));
#1230=CARTESIAN_POINT('',(0.02427038300351,0.04943522467968,0.012));
#1231=CARTESIAN_POINT('',(0.0422447861704883,0.04943522467968,0.));
#1232=CARTESIAN_POINT('',(-0.0543049706625334,0.04943522467968,0.));
#1233=CARTESIAN_POINT('',(0.0489691893374666,0.04943522467968,0.));
#1234=CARTESIAN_POINT('',(-0.0543049706625334,0.04943522467968,0.018));
#1235=CARTESIAN_POINT('',(-0.0543049706625334,0.04943522467968,0.018));
#1236=CARTESIAN_POINT('',(-0.0158922938295117,0.04943522467968,0.018));
#1237=CARTESIAN_POINT('',(0.0489691893374666,0.04943522467968,0.018));
#1238=CARTESIAN_POINT('',(0.0489691893374666,0.04943522467968,0.018));
#1239=CARTESIAN_POINT('',(-0.00266789066253339,0.00695022467967996,0.018));
#1240=CARTESIAN_POINT('',(-0.0543049706625334,0.04743522467968,0.018));
#1241=CARTESIAN_POINT('',(-0.0543049706625334,-0.0335347753203201,0.018));
#1242=CARTESIAN_POINT('',(0.0489691893374666,-0.0335347753203201,0.018));
#1243=CARTESIAN_POINT('',(0.0489691893374666,0.04743522467968,0.018));
#1244=CARTESIAN_POINT('',(-0.0523049706625334,-0.03153477532032,0.018));
#1245=CARTESIAN_POINT('',(-0.0505049706625334,-0.03153477532032,0.018));
#1246=CARTESIAN_POINT('',(0.0469691893374666,-0.03153477532032,0.018));
#1247=CARTESIAN_POINT('',(0.0487691893374666,-0.03153477532032,0.018));
#1248=CARTESIAN_POINT('',(0.0469691893374666,0.04543522467968,0.018));
#1249=CARTESIAN_POINT('',(0.0487691893374666,0.04543522467968,0.018));
#1250=CARTESIAN_POINT('',(-0.0523049706625334,0.04543522467968,0.018));
#1251=CARTESIAN_POINT('',(-0.0505049706625334,0.04543522467968,0.018));
#1252=CARTESIAN_POINT('',(-0.00266789066253339,0.00695022467967996,0.));
#1253=CARTESIAN_POINT('',(-0.0543049706625334,0.04743522467968,0.));
#1254=CARTESIAN_POINT('',(0.0489691893374666,0.04743522467968,0.));
#1255=CARTESIAN_POINT('',(0.0489691893374666,-0.0335347753203201,0.));
#1256=CARTESIAN_POINT('',(-0.0543049706625334,-0.0335347753203201,0.));
#1257=CARTESIAN_POINT('',(-0.0523049706625334,0.04543522467968,0.007));
#1258=CARTESIAN_POINT('',(-0.0523049706625334,0.04543522467968,0.00621888119526417));
#1259=CARTESIAN_POINT('',(-0.0523049706625334,0.04543522467968,0.007));
#1260=CARTESIAN_POINT('',(-0.0536049706625334,0.04543522467968,0.007));
#1261=CARTESIAN_POINT('',(-0.0523049706625334,0.04543522467968,0.018));
#1262=CARTESIAN_POINT('',(-0.0523049706625334,0.04543522467968,0.0175));
#1263=CARTESIAN_POINT('',(-0.0510049706625334,0.04543522467968,0.0175));
#1264=CARTESIAN_POINT('',(0.0469691893374666,0.04543522467968,0.007));
#1265=CARTESIAN_POINT('',(0.0469691893374666,0.04543522467968,0.00621888119526417));
#1266=CARTESIAN_POINT('',(0.0469691893374666,0.04543522467968,0.007));
#1267=CARTESIAN_POINT('',(0.0456691893374666,0.04543522467968,0.007));
#1268=CARTESIAN_POINT('',(0.0469691893374666,0.04543522467968,0.018));
#1269=CARTESIAN_POINT('',(0.0469691893374666,0.04543522467968,0.0175));
#1270=CARTESIAN_POINT('',(0.0482691893374666,0.04543522467968,0.0175));
#1271=CARTESIAN_POINT('',(0.0469691893374666,-0.03153477532032,0.007));
#1272=CARTESIAN_POINT('',(0.0469691893374666,-0.03153477532032,0.00621888119526417));
#1273=CARTESIAN_POINT('',(0.0469691893374666,-0.03153477532032,0.007));
#1274=CARTESIAN_POINT('',(0.0456691893374666,-0.03153477532032,0.007));
#1275=CARTESIAN_POINT('',(0.0469691893374666,-0.03153477532032,0.018));
#1276=CARTESIAN_POINT('',(0.0469691893374666,-0.03153477532032,0.0175));
#1277=CARTESIAN_POINT('',(0.0482691893374666,-0.03153477532032,0.0175));
#1278=CARTESIAN_POINT('',(-0.0523049706625334,-0.03153477532032,0.007));
#1279=CARTESIAN_POINT('',(-0.0523049706625334,-0.03153477532032,0.00621888119526417));
#1280=CARTESIAN_POINT('',(-0.0523049706625334,-0.03153477532032,0.007));
#1281=CARTESIAN_POINT('',(-0.0536049706625334,-0.03153477532032,0.007));
#1282=CARTESIAN_POINT('',(-0.0523049706625334,-0.03153477532032,0.018));
#1283=CARTESIAN_POINT('',(-0.0523049706625334,-0.03153477532032,0.0175));
#1284=CARTESIAN_POINT('',(-0.0510049706625334,-0.03153477532032,0.0175));
#1285=CARTESIAN_POINT('',(-0.0523049706625334,-0.03153477532032,0.018));
#1286=CARTESIAN_POINT('',(0.0469691893374666,-0.03153477532032,0.018));
#1287=CARTESIAN_POINT('',(0.0469691893374666,0.04543522467968,0.018));
#1288=CARTESIAN_POINT('',(-0.0523049706625334,0.04543522467968,0.018));
#1289=CARTESIAN_POINT('',(-0.00266789066253339,0.00695022467967996,0.016));
#1290=CARTESIAN_POINT('',(0.03352038300351,0.04918522467968,0.016));
#1291=CARTESIAN_POINT('',(-0.00266789066253339,0.00695022467967996,0.012));
#1292=CARTESIAN_POINT('',(-0.00266789066253339,0.04918522467968,0.012));
#1293=CARTESIAN_POINT('',(0.02427038300351,0.04943522467968,0.018));
#1294=CARTESIAN_POINT('',(0.0263537163368434,0.0473518913463466,0.0138333333333333));
#1295=CARTESIAN_POINT('',(0.0154576251148289,0.0582479825683611,0.0250627578886811));
#1296=CARTESIAN_POINT('',(-0.00266789066253339,0.04918522467968,0.016));
#1297=CARTESIAN_POINT('',(0.0341870496701767,0.0498518913463466,0.0166666666666666));
#1298=CARTESIAN_POINT('',(0.0422447861704883,0.04943522467968,0.01175));
#1299=CARTESIAN_POINT('',(0.03152038300351,0.04718522467968,0.014));
#1300=CARTESIAN_POINT('',(0.03352038300351,0.04918522467968,0.018));
#1301=CARTESIAN_POINT('',(-0.0543049706625334,0.04743522467968,0.018));
#1302=CARTESIAN_POINT('',(0.0489691893374666,0.04743522467968,0.018));
#1303=CARTESIAN_POINT('',(-0.0543049706625334,-0.0335347753203201,0.018));
#1304=CARTESIAN_POINT('',(0.0489691893374666,-0.0335347753203201,0.018));
#1305=CARTESIAN_POINT('',(-0.000871586593363914,0.0392637503323194,0.011));
#1306=CARTESIAN_POINT('',(0.0424384134066361,0.0392637503323194,0.011));
#1307=CARTESIAN_POINT('',(0.0424384134066361,0.0392637503323194,0.011));
#1308=CARTESIAN_POINT('',(-0.0441815865933639,0.0392637503323194,0.011));
#1309=CARTESIAN_POINT('',(-0.0441815865933639,0.0392637503323194,0.011));
#1310=CARTESIAN_POINT('',(-0.000871586593363914,0.0392637503323194,0.011));
#1311=CARTESIAN_POINT('',(-0.0441815865933639,0.00825375033231937,0.011));
#1312=CARTESIAN_POINT('',(-0.0441815865933639,-0.0227562496676806,0.011));
#1313=CARTESIAN_POINT('',(-0.0441815865933639,-0.0227562496676806,0.011));
#1314=CARTESIAN_POINT('',(-0.0441815865933639,0.00825375033231937,0.011));
#1315=CARTESIAN_POINT('',(-0.000871586593363921,-0.0227562496676806,0.011));
#1316=CARTESIAN_POINT('',(0.0424384134066361,-0.0227562496676806,0.011));
#1317=CARTESIAN_POINT('',(0.0424384134066361,-0.0227562496676806,0.011));
#1318=CARTESIAN_POINT('',(-0.000871586593363921,-0.0227562496676806,0.011));
#1319=CARTESIAN_POINT('',(-0.0436815865933639,0.00825375033231937,0.011));
#1320=CARTESIAN_POINT('',(-0.0436815865933639,0.00825375033231937,0.0095));
#1321=CARTESIAN_POINT('',(-0.0436815865933639,0.0387637503323194,0.0095));
#1322=CARTESIAN_POINT('',(-0.0436815865933639,-0.0222562496676806,0.0095));
#1323=CARTESIAN_POINT('',(-0.0436815865933639,0.0387637503323194,0.011));
#1324=CARTESIAN_POINT('',(-0.0436815865933639,0.0387637503323194,0.011));
#1325=CARTESIAN_POINT('',(-0.0436815865933639,0.00825375033231937,0.011));
#1326=CARTESIAN_POINT('',(-0.0436815865933639,-0.0222562496676806,0.011));
#1327=CARTESIAN_POINT('',(-0.0436815865933639,-0.0222562496676806,0.011));
#1328=CARTESIAN_POINT('',(-0.000871586593363914,0.0387637503323194,0.011));
#1329=CARTESIAN_POINT('',(-0.000871586593363914,0.0387637503323194,0.0095));
#1330=CARTESIAN_POINT('',(0.0419384134066361,0.0387637503323194,0.0095));
#1331=CARTESIAN_POINT('',(0.0419384134066361,0.0387637503323194,0.011));
#1332=CARTESIAN_POINT('',(0.0419384134066361,0.0387637503323194,0.011));
#1333=CARTESIAN_POINT('',(-0.000871586593363914,0.0387637503323194,0.011));
#1334=CARTESIAN_POINT('',(0.0419384134066361,0.00825375033231938,0.011));
#1335=CARTESIAN_POINT('',(0.0419384134066361,0.00825375033231938,0.0095));
#1336=CARTESIAN_POINT('',(0.0419384134066361,-0.0222562496676806,0.0095));
#1337=CARTESIAN_POINT('',(0.0419384134066361,-0.0222562496676806,0.011));
#1338=CARTESIAN_POINT('',(0.0419384134066361,-0.0222562496676806,0.011));
#1339=CARTESIAN_POINT('',(0.0419384134066361,0.00825375033231938,0.011));
#1340=CARTESIAN_POINT('',(-0.000871586593363921,-0.0222562496676806,0.011));
#1341=CARTESIAN_POINT('',(-0.000871586593363921,-0.0222562496676806,0.0095));
#1342=CARTESIAN_POINT('',(-0.000871586593363921,-0.0222562496676806,0.011));
#1343=CARTESIAN_POINT('',(0.0424384134066361,0.00825375033231938,0.011));
#1344=CARTESIAN_POINT('',(0.0424384134066361,0.00825375033231938,0.011));
#1345=CARTESIAN_POINT('',(-0.00266789066253339,0.00695022467967995,0.011));
#1346=CARTESIAN_POINT('',(-0.0391815865933639,0.00825375033231937,0.0095));
#1347=CARTESIAN_POINT('',(-0.0391815865933639,0.00825375033231937,0.007));
#1348=CARTESIAN_POINT('',(-0.0391815865933639,0.0342637503323193,0.007));
#1349=CARTESIAN_POINT('',(-0.0391815865933639,-0.0177562496676807,0.007));
#1350=CARTESIAN_POINT('',(-0.0391815865933639,0.0342637503323193,0.0095));
#1351=CARTESIAN_POINT('',(-0.0391815865933639,0.0342637503323193,0.0095));
#1352=CARTESIAN_POINT('',(-0.0391815865933639,0.00825375033231937,0.0095));
#1353=CARTESIAN_POINT('',(-0.0391815865933639,-0.0177562496676807,0.0095));
#1354=CARTESIAN_POINT('',(-0.0391815865933639,-0.0177562496676807,0.0095));
#1355=CARTESIAN_POINT('',(-0.000871586593363914,0.0342637503323194,0.0095));
#1356=CARTESIAN_POINT('',(-0.000871586593363914,0.0342637503323194,0.007));
#1357=CARTESIAN_POINT('',(0.0374384134066361,0.0342637503323194,0.007));
#1358=CARTESIAN_POINT('',(0.0374384134066361,0.0342637503323194,0.0095));
#1359=CARTESIAN_POINT('',(0.0374384134066361,0.0342637503323194,0.0095));
#1360=CARTESIAN_POINT('',(-0.000871586593363914,0.0342637503323194,0.0095));
#1361=CARTESIAN_POINT('',(0.0374384134066361,0.00825375033231938,0.0095));
#1362=CARTESIAN_POINT('',(0.0374384134066361,0.00825375033231938,0.007));
#1363=CARTESIAN_POINT('',(0.0374384134066361,-0.0177562496676807,0.007));
#1364=CARTESIAN_POINT('',(0.0374384134066361,-0.0177562496676807,0.0095));
#1365=CARTESIAN_POINT('',(0.0374384134066361,-0.0177562496676807,0.0095));
#1366=CARTESIAN_POINT('',(0.0374384134066361,0.00825375033231938,0.0095));
#1367=CARTESIAN_POINT('',(-0.000871586593363914,-0.0177562496676807,0.0095));
#1368=CARTESIAN_POINT('',(-0.000871586593363914,-0.0177562496676807,0.007));
#1369=CARTESIAN_POINT('',(-0.000871586593363914,-0.0177562496676807,0.0095));
#1370=CARTESIAN_POINT('',(-0.00266789066253339,0.00695022467967995,0.0095));
#1371=CARTESIAN_POINT('',(-0.00266789066253339,0.00695022467967996,0.007));
#1372=MECHANICAL_DESIGN_GEOMETRIC_PRESENTATION_REPRESENTATION('',(#833),
#1373);
#1373=(
GEOMETRIC_REPRESENTATION_CONTEXT(3)
GLOBAL_UNCERTAINTY_ASSIGNED_CONTEXT((#1374))
GLOBAL_UNIT_ASSIGNED_CONTEXT((#1377,#1376,#1375))
REPRESENTATION_CONTEXT('Part 1','TOP_LEVEL_ASSEMBLY_PART')
);
#1374=UNCERTAINTY_MEASURE_WITH_UNIT(LENGTH_MEASURE(1.E-8),#1377,
'DISTANCE_ACCURACY_VALUE','Maximum Tolerance applied to model');
#1375=(
NAMED_UNIT(*)
SI_UNIT($,.STERADIAN.)
SOLID_ANGLE_UNIT()
);
#1376=(
NAMED_UNIT(*)
PLANE_ANGLE_UNIT()
SI_UNIT($,.RADIAN.)
);
#1377=(
LENGTH_UNIT()
NAMED_UNIT(*)
SI_UNIT($,.METRE.)
);
#1378=PRODUCT_DEFINITION_SHAPE('','',#1379);
#1379=PRODUCT_DEFINITION('','',#1381,#1380);
#1380=PRODUCT_DEFINITION_CONTEXT('',#1387,'design');
#1381=PRODUCT_DEFINITION_FORMATION_WITH_SPECIFIED_SOURCE('','',#1383,
 .NOT_KNOWN.);
#1382=PRODUCT_RELATED_PRODUCT_CATEGORY('','',(#1383));
#1383=PRODUCT('Part 1','Part 1','Part 1',(#1385));
#1384=PRODUCT_CATEGORY('','');
#1385=PRODUCT_CONTEXT('',#1387,'mechanical');
#1386=APPLICATION_PROTOCOL_DEFINITION('international standard',
'ap242_managed_model_based_3d_engineering',2020,#1387);
#1387=APPLICATION_CONTEXT('managed model based 3d engineering');
ENDSEC;
END-ISO-10303-21;
